<mxfile host="app.diagrams.net" modified="2021-10-18T10:22:45.069Z" agent="5.0 (X11; Linux x86_64) AppleWebKit/537.36 (KHTML, like Gecko) Chrome/94.0.4606.81 Safari/537.36" etag="ud30fLG_EfXvn_43v3gs" version="15.4.3" type="github">
  <diagram id="Xr2Av3bfWfYQr1X17dxH" name="Page-1">
    <mxGraphModel dx="188" dy="563" grid="1" gridSize="10" guides="1" tooltips="1" connect="1" arrows="1" fold="1" page="1" pageScale="1" pageWidth="850" pageHeight="1100" math="0" shadow="0">
      <root>
        <mxCell id="0" />
        <mxCell id="1" parent="0" />
        <mxCell id="lHLvW-LTFp40BhWTVn9L-35" style="edgeStyle=orthogonalEdgeStyle;rounded=0;orthogonalLoop=1;jettySize=auto;html=1;entryX=0.5;entryY=1;entryDx=0;entryDy=0;" edge="1" parent="1" source="lHLvW-LTFp40BhWTVn9L-25" target="lHLvW-LTFp40BhWTVn9L-32">
          <mxGeometry relative="1" as="geometry" />
        </mxCell>
        <mxCell id="lHLvW-LTFp40BhWTVn9L-25" value="" style="rounded=1;whiteSpace=wrap;html=1;fillColor=none;" vertex="1" parent="1">
          <mxGeometry x="1280.22" y="420" width="239.92" height="190" as="geometry" />
        </mxCell>
        <mxCell id="lHLvW-LTFp40BhWTVn9L-2" value="" style="shape=image;verticalLabelPosition=bottom;labelBackgroundColor=#ffffff;verticalAlign=top;aspect=fixed;imageAspect=0;image=data:image/png,iVBORw0KGgoAAAANSUhEUgAABAEAAAMACAIAAADaGulkAAAACXBIWXMAAA7EAAAOxAGVKw4bAAAgAElEQVR4nOzd3fMlRX348T5f/Aeo+q2732VzLYiGJCpoTIzKs4oiiooij8VTgQUVS/+EXGhhSSmlQIEoCOJTVo0I6wPRqBEwJgR2F3ORG/d5SXGbh+J7fhdd2/b2TPf09HT3dE+/Xxdb53t2zkzPnHPmdPfn093i5eOHBQAAAIA2PLVn98bcZQAAAACQ1avmLgAAAM05++yzjWeeeeaZ3i3f9KY36X+u1+uIxYi7t8EDrVYrnwL87ne/kw/+4i/+YvpBR5ElzHZZDKmPG3f/zz33nP7nWWedNdd18xSreNlO84UXXki6f9oAAADMz2gVpKhnzFhF69b+HSZW/aeoqxY+7+HOOuss45l5W1CG9XqtPnWFFKk05AIBAAAAbSEOAAAAZrC83lnjjIzox/LOt1dpve+FFKNAtAEAAAj37ne/Wwjxwx/+MMOx6q3N1FvyUWwpT42cfiHU1U502T2HtZSPXCAAAACgLcQBgAjOP/98IcSPf/zjuQsCIAfZ99/7jAwIvPvd7zYiA+ecc458UGmX4RQZTrnBqzpoxmuy1ImVFoY4AAAAANAW4gDAJDICYDwmIADdaaedJh8cPHhwcDP3NphRt+9/1GZPP/200KIBeczeLTp7Ado0y2Xnva4ObQBgElndJxcIvVTtv/vnwYMHjf81tlGNgd7NBK2FxC655BIRb3Dhm9/85ig1pNVqVUtNK085bUuPoSnzph5F//hlOx1ygQAAAIC2EAcARjvvvPN+8pOfdJ/Xc4H0yMD5559PiGAZxqbr6FvauvMDEAGI7pJLLvnBD34gTnT/dwV0wOtJQWp8sLEYcCK1xAqm0M+xtPNtcDDujBo85VhWLx8/fOq2zbmLAdRBz/4XJy9F7kYboCJjK+sqq2cweyc12gY+bLX8Xt3qxdgKhzE70Ng2wNgClFMfSl2Scs60q802QINzASU6tNrt3r17U+xfemrPbnKBAAAAgLaQCwQAQkzovFcvnKv7vxGq/14fh6eP2bWt1Pue97xHPZ598GhFg3qBQfN+mPkqTUQcAAAAAGgL4wGAEHJggNEJ4ehiZDxAFeJ25BvZ+ZmjBAsbG2BL4u92BP7DP/yDOLnvXzc2DjB9PIDc/r/+67/G7sG22djn59LgeAA1Qmx5GeqzH6uE43alKIm+z9TjAcgFArycd955Qgg5HdC555479psv2wzd+seePXsiFRARyHpzosq6sSCAbX2AWLo7V2dXbPPgve99rxDi+9//vv6kqv3LeXvEye0B9Z1ar9ey9u/J9hUebCToR/Q5kNxeLhAmJq8RVk7tZ3az17Z7US1Oatmnmf/syAUCAAAA2kIuEOBFxgEG+XciCnujn8SheU3snh/sZTdWAmYiUel973uf/EaEdYaN6pVPsWdje3UgGZ04++yzxwYQejerJRFI5F0neEazF2DGMmQ+bgmXWpd6YlBBLhBQpt6fc58GgEz+ufDCC42XU++PyLaSV57atkq20R/YtsxQHhujeDM2Cd73vveJeD+o3a+hUSlXT3afiVgAY+fPPPNMotXBGqkYzXIU2HD9l4FcIAAAAKAtxAGAfNQI4CeffHLekjRiro72KlYMiD4ouXdEr/6/tv/63ve+131y1Gq+ImqSj0/Cng81iFmMXx64Otk6hgvpgW55Xvz8Ry/kTRcllSQK4gAAAABAW4gDAMO6A4J7M4y7ZJa/nBhUCHHBBRcwGWhSu3btElpXjcpxT90fb+T923LriwoLdAszWH7dJZdcIj//jqk85WPZHb6xsdHdQD6QAQRhWQA4Fs/vrLGBWtbXf0Sv2lIPZfzgBz9YWChglg7RQnphG5n+vwStna/Iu5Q4bQBgmFwWQPQ1Btz1FduyAMjAp8Ida2YeYw+2yvS8q4YZxbCV2Z/8YKsavHTKKaf0fuBfeeWV3vSe7nRA0X//esvj/63stgqMDWwTAxiNh2eeeUZMSAoqrTKUeXr+Qk6/kGJgLmWuShGMXCAAAACgLcQBgEnc/QEyF+iCCy5YWOdBsaZc4ehjZOeanHTQYDHcs4XKqTxtXnnlFeOZbvd/bwDB+N+Kviy2kILx/KgIQEWn34LG347GT78r6T0q59WmDQBYnXfeeY4sIMkzo0B9qy+44AL9eYYHlEBVdsNSg4zGw3q9PnTokPtAAUcpgV771+fX7/1FVAMGjOcHvzJLrXBMzAUqTSNZQLN/Gts8/dkvu1vhxfNHLhAAAADQFuIAQA9br/9YRq//4AaEBUrQHbnrudyv3Gznzp07d+4UQtiiAeXrzQK69NJLe6fW6fbr925g6znrPl9dLpAPx/IIhu6J+1+6DBrp/i8EF6Ep+d9u4gAAAABAW4gDAD3kMIDzzjsvVkCgl8qopvu/ZMZoAUXFBwz1dv8rxphg+efu3bvdo4ElzwGyPtvEWq93XtOnBu4NjGS+IG12/7MOAHT6IKgU8odAaQOgUWrdLklO4KMEV/3Vd1g+MO4X3cGR1P7n1Zvek2cW/1jTEKX7WbLNDpToJ8ozxajSupFnItDsKr28iG7ZmWZh8qzelXONMHKBAAAAgLYQBwCEOBEWUNEAW4+jel4mCxnBBH2qRNnBf+GFF/ZuID355JPxzgBCTF73V77jckSvsU9hT/4JM7GQvc/EDQgYF3OwwGMn/VTb+3R6GfOQ+iu8Z7EcXKgSzP4uMBloU4gDAAAAAG1ZvXz88KnbNucuBjAn1Z3/4x//2BgJoNYIc79WrQesntcT/S+66CJbJwehgLh8OtdVIr56U7qjePVQQLoxvmGhAEeHWdLxauJEZMBnZHA63WDCYA/ivF2M8k35/ve/77k6mOdMoNFPavaO2NkL0JWhSIWcdZsrkfmbawj+3r170x3lqT27yQVCi4wcHv35sV91fTDxnj17jPn+jVygLrkBLYGJPCvTxgw/Rs6PLs/cPr3T7ds28PlkDu5wCnX1RuXwiNhjeQeXIzAyo8aOmbZt79iPfmr6xTG2H1wn2PMSpaiOMAGOkvRLVI7SLnvJljoHlyAXCAAAAGgNuUBokS0OoHQHWcpnjNSgCy64YNTknrawgMpnaDMgYPTi+4y7nTKrpqOXZZap/W3nEtwblK4LU741l156ae//BnfAp+73Mvrp83SzqdM3ZgVVcQDV3zy2+7/2OMDY6FZm+S9FfqVd9tLKY5gxJYxcICAfxyoB8hfLmD6oy8gF8q8DLT707GDMlO8z/U7Y/D+F/9IotZTTzf8jPSX3JmD/Y3OZ3Huz7URt9t73vlfY1wdYxnvtr7XznZ2R2lTa9S+tPJnNfvrkAgEAAABtIQ6AVsg8HNvcGr1d+7ZuyPPPP18Fso3IgEoNMgIC6nC2fT7xxBMeJ7FMAblAY83e3eJgO9+dO3f25iY5hjJL6QY1yndq9+7d8k8jKWiWWNaU3J4oY4WNHtbB8pT8UcxAXZ9u5ticxdKUVp4oFnY62Sz+uhEHAAAAANpCHAALp4bh6p1Pxpqj3e58N7XZ+eefb3uJvk6wbaSvPkT4oosuEm1HA5TB8QBLHQbQNdjlb1jSqBLHufTm94+aqFQa9cEYvLbdu4qxwZve9Cb/w2Uz+7yH9X49MVHJb33JZYuINgAWTta/L7jgAvmVllV2PZlH39g2X5AR37e9vEtu4D99kGwJiOYbA7KW320JtFP716mMoLFNguhSpGnFYnxJfZpDtrHIMYtVsHbOtEBc/JJlmzosw1HcyAUCAAAA2kIcAEumJwJ5zuhn6O0p9EwZEvasAPf6wa0FAQ4ePLhr1y6hXSijvzlsNQCft1h2sc/ev+7JGCJsFHtJiUBholyB7k4mTiH6ve99b2qZFiTb+gxlavncdVyHQrBGGJrQzcaR8/Z070R6/V7l/Dj4JPk4hg2oxoA8kKz9X3TRRa01A3pr+ca6Af78f2BmWRRsOnlZjNPM0AbQ22bvf//7W/4h9z93ow0QPCog7hphM753VXxs4hZy9qs9+/oAVbzpSqLSqr5I//2nXiOMXCAAAACgLcQB0AQ12Ff1x9viAL26U4Cr//Ic7Gsji7FarXw6cRccHAjr77fxfFsrDQIYVEZQ5jiAYqwSAMno81PRgIA4gP55Du6hLKcjtpySOEwvpP5jMXscoJ3jTpG6zAH7Jw4AAAAAICbGBKMJqotU9buHraXa3V5fD3i9XvsPF9Y9+eST+ijhBgd3yg7muNEAYEbGcgHKs88+O2WhgLFjasvpji2nJEnZlqIHCkQbAAsn69bGuvTi5BCt/rPqs4RQdxry6APIGmwGRBH2Rsh0msHUIJV1U1QSkSrMXC2oWBPpIC7eBcBTs18WcoEAAACAthAHQBP27NnTOyW/rQvT3Q3fDcer5YcDCiYfyPWMDe0sG6z3YesDT+P2bbtXA9i5c6d7An70vk3dlTdmHwdZuGeffVZMmCTUR4EXf9mfiqWe1+K1syRwL9oAWDhVt5YPZEugW4l3/z51J1eWzxiTAo0dDKC3GcIGEizDaaedlmc8gFGnH6ziG2k26/W6qCwgQ/ByCv77lw/kUdS7ZmN8ywpfHKrw4qFYfGzqleG9K/zjQS4QAAAA0BbiAGiLvhyvTmXddDfuPrO1tRWl274bXpBhit68oOXRO61tj+Oa3osvy+bu/86sG80Im/NqUPd9kc90V8/oHWFvK1J3hL1jA32ziR1stm934f12KASfk15VXJYqCpkHcQAAAACgLcQB0Baf6T4HTQ8CqAHKRlzC1ncrwxSLGRm8a9cuMUdnjOccoDZlTth66NAhdV56TGBwcMt0Mh7yne98R/75gQ98wHHcbhk84xW2DfxPZFRgxFg8JMWndNRo4LEFKLyP0/YuGEPJHW+WEWWa63zLjBrNXp4yL4tSbMHmQhsAbbFNvzN4a5iSn6P2r3bif6OUW/7oRz8KPnqBDhw4oP+ZYWL7iVlAxpBlo8DGYNz8mULq7NwTH0npVp+QjYHLLrustMbSlKUAU4wVzjAvUHVsS6o5tvTcXorecii2NjljLbzYawIbcoEAAACAthAHABIyFiW48MILZShAZvX0DkQ2LCwCIKXLBbL1gU3MAnJHKoz/dUya2dtDH32+UbXD3sOl7qT/7ne/Kx9cdtll7ryO7ph4/XnHx6O7IoHtSTfPHlNbOT3t3r3beOaNb3yjGJmhhIls0YOw97ScDu9uSYgAwN/q5eOHT922OXcxgCJ01xELTgGS9fvuTCnygVpYwFgFrNsq0H+6FtkekJKmA6mLH31eIHexjRwh289kujUHUrcB3FlPl112mfuImesNnnXuRPn33ZbAG97wBiHExoY1Gh82eInaWICxNekSLvK8Zej+tFUhW2ljHWjv3r1R9tPrqT27yQUCAAAA2kIcADiJEQoIiwNcdNFF+hw+tjHHTz755GA6kDFXxiJDAdGDALY+qug97rKjfWJegUgTCrCNDI4VB+gGAbpDpeVMQYNGjdecfrXHGjyQT0m6cQDJNjI4+KB19cuWw7huhV/e2YsxewFGyV9a4gAAAAAASsSYYOCPupN4jn1572PR6eCUfzqCAL0j2JYXBMgwK+h07qk2RYVdYtnGocrZQgejAT7jNW3L+tpEfFM8xyjX9TFIxzZiu/brU0L5c3553fKH48IUXrzZ0QYA/mi1Wk1Zh+uJJ55Qi3n11u/V/o3/VQeVzxdyl08tdQMg1t1fX4TL+K/B5sGCqbfPNjJYbfCb3/xGjEkNUqZ8EaJXOgPmHZL5P5deeumoA01MPeqWc2wTxX2mwYstZKs1+pSw3qphISUvpBhlqujikAsEAAAAtIU4ACCEEO9617vE5Ob7xRdfLPfQDQLInv4LL7ywNz7gs1DA8syVHuCYv98tXa+/sefgIcKeJTRy0ibyv56z5Mx0z9E9BNnzY9nt1e7ubWwEwNOoyxjQDW9Moho9LDl2h+kWEvHf+Yw9u0V1KhdVGExHGwD4o+CE+4svvrj3eSOzSP3wGBlBRi5QIw4cOJBtPICsVavDqWn+J64dVhr9RAbbAxHrdj7vY/6xH4Nrk9k2632hrfZj1CbHXtVnn33WmBrIf+WysAqZ++wKTEQcNVtU8M7lg9/97nd//ud/HrarFMqpc5dTEn85y1zj9RHkAgEAAACtIQ4ACCHE448/nmK3trG/vX+qZ7pRhYXNCLRr1y7jmdSdKLJT3JiiRPWULywaIKmhzDaZ5xgJy78qx+CY4LGZTm984xu7ux21h4gK7P43JC2hHlT513/9VyHEn/3Zn6U7nI9K+5VbU/vbRBwAAAAAaAtxAGAS20gAKWym0XImgU7kwIED8kE3IBCFunqy7/m0006TvTW2nn53f3n5E4C64xjduU2znVHvx7iWmcXd9FNzr2Mg//f973//3//93+vP//a3vxVCvOlNbwq+DqxLEFFRt9zS3tPSyoNYaAMAIWxVf6N+0x31K40d+ysPt16vpyxfUBpVNU96CP1PWffV4/5V5P94Vtl37tzpPh3VElCb5Rynu2vXrm9/+9vy8Qc/+EFRTBrMdLb2QPd/JTkIONbJ0hJYkjLfx4qWeGMc8CjkAgEAAABtIQ4AJKF3zgVM/dnbwRAQBLj88svlg29961tjX5vawYMHZT90hk4m/e1Yr9dGf7m7+3zUhJtR2HJ7BpN5bOsM2E4wbDrLYDL1S2WCLdLYRWoX0JW4DP/yL//S+3yeN6iQj4GehqrfHAop3qBaylkO2gBACGOiHveoAD0jSG8G+Ne9VGaRZzPgQx/6kP7CAhsAumw3bvV7pirZeqXZ0RIoYeKgKdn8vW0D9WS6ueGNNoas/TsGgbiTahZDjQQIeO2CL8u83vCGNwitJfBv//ZvooDZgfKr8QNWY5kLQS4QAAAA0BbiAEAE3fn7jciAbcHgURxBgA9/+MP6n0bPrgoLfPOb3ww4bjqzBJq76wPYzDWdTu/h1JBf/3l+xj6fjRwcLEcGN+vZZ5+VD0YFBBzzEdEbGl2GSzrvu6aSf2zF4EO1bMQBAAAAgLYQBwAiUL3+RkBAddrJDX70ox+NigAELBTg7rZRAQGptLBAIhO7smbvNVd6SxKxeKmHCBsjAcZ+F9wb1NIR/sEPflDNkTpR5jBa3PerCs8999xZZ501dymSUG/QMt6pzBZz0WgDADHJur6tOqKaCrZlkmQTQs8j6mYZ6YwUIFHbNA5J2S5Cd2hvObX8UYKLPVd2k3TgwAGfLKDu/CS9b6heMe2tpA5mO2STKPdJnV2i0wxrE9peNfu7MEqKBkAJV6CEMgRwL8aXuQDLQC4QAAAA0BbiAEAEsk/i8ccfV8+o5B99M9sUoj/60Y8uvPBC/U/34brd/7ZSubtOP/zhDz/22GM+u1qqSiMAseRf+mAKd8/f4KfdFnzLrHt0OTg4bKrQ7g6NaIBx0brPG88E5B+OYiuPbcvMb9Yb3/hGOXMritL9GGT+YCwvAiDRBgBiete73iUf2G4Ztvr9k08+6bP/j3zkI46dQ+peH6Oya0yQXynPszCWQRCW5Q7S1fzk23Hw4EH559iUmOh197AznX70RF/b3rqy7Ry7zxvPZE6xGDycatrZmihJPxUpxgMUkplWhUKuUiHFSIFcIAAAAKAtxAGACFQWkHpgpP30pgYF8OyQGOzta43PhPrqyXnXA/bnEwHw31vqJJDperNc9GLbelij9LzawhH+YQpVjA984ANCiO985ztTytMO97Bv9+Bjx7tje+Eb3/hG9ThiXpB7aHsGC+7MTmfxF404AAAAANAW4gBAPhdffPGUUMAVV1yxtbU16iWF9+weOHBACHHaaaflOZy7p7/24QFdtjOqJdDRazB/3T0o1mcDQ3Cq/aj1Fp599tngYcHo6n5OUi9/4WPx/cqoC20AICG1XEDYy9X8P+mGkclDzDU7kFo0aq6fxtSrbpWpd0ywSL9GmOKuRtuKMepDEnHwa/C3r/cQ3Sep+ucx6oNdeO/JWHW1PUrIS6zrigUjFwgAAABoy+rl44dP3bY5dzGAZQobCmxb/Vck65yYNw4Q/aQa6cKZrnd9gEQ9cGpuUCHE5ZdfLrT+9VFHrHdIpRFPkA9e9apX/ed//md3s7FHDC4eU1X2Upfl//7v/6LssLRVKUpTWgkLKc/evXvT7fypPbvJBQISCsv+f+yxx4xmwMQkDWMyiu7cFPNmBGWeK8M9O9BiDCb9z3X6l19+uXumF7fo08N3myK9X5aA3CT9JfrwA32Hjz322Nlnny362kKjaudjv0T+mVE5lzUogX4pfvvb34atD6DeTar+NWrnupELBAAAALSFOABQkG4WUBRGr0a3k2OuCMAslt39788IFOjhkRTpQKeddppMB/rWt771oQ99KNZuBzuwPc8lIDQRa4zpM888I+wjgwfjD88++6x8ee8hpg+vtO027IUB2xjrBA9u78mI0kT5zOvFa6cvOYreoFlmDb5lxAEAAACAthAHAJK48sorhRAPP/yw5/Yf+chH1OOxfWw+nVi2fc4YAVATg0Yke5rp6Z/i0KFDqVds+OY3vylORL3S9b3FimbkSeyW3fmKHCTgKI8yy9SiExdDCD6We1Xg4AJML/bsXcizFyCKZZxFRWgDAOGuuOIK+eDRRx81/uuVV15RG3T/183xg+Q547j/BrLt8Y1vfMO7dEnEqmbFqv3LxJhK2xK1LAHWfbvdLdt56wcTq4n6INEUjQqjCSFOtA2yzbM+74TuiY7+pje96X//939T7BkGav+zIBcIAAAAaAtxAKCHf/+97H/66Ec/Kv+UnRmPPvqo3i+l/veRRx5xHE4Z2yMSMPZOHmLe7v8DBw7IB7GSgtQM9BP772vpR7exLQNcDn1MsHvNYPczosLuQ2Nu0A9+8IPf/va3w3YlBxNjXsz+Od0yziK6DJeFNcKAP9bRxcnfOr0NILdRlXj9JTp3WqrnVzpFG6DX2CSldGItFsZ4AJ3KaAprDyQaFaAvFiZizIVVXQXCmD2mtw3gGA/Qy9YemGW0wGKoDCvbKgGzf/ZmL0AUs5/F7AXotV6v9+3bl27/T+3ZTS4QAAAA0BZygQDxyCOP9Pbrd5+Uz/j0GRhLjY4qj8+Sn/OOwItL5QLFGitpG9HbyArBpVGfVZX9peuuih28f13Ap6i7YLCxwxKmMNf55AI9++yzc4UCSrtcAfQxwcbER5WeUVFKuIYllGFGxAEAAACAthAHAMRHP/rR3smtYy0eqQyuaeqzpc8hPLusrrjiikKGBMge4hQrBuiW2v1vi3uoZ4xRwnMNGpbvb280ILrBCextXwrPMcr+3+VBl19+uRDiW9/61qhXiRNjBiaODB57qwmbiX9wXv/CqXKmWwZhrFouXa9CCl9IMbqyFYw2AFr00Y9+VI7utQ3tnci/utBr+phgdwEmrqcTXcRKoRzGWuydXYq++IDnrvyPGGs0sOcHLPU6AL07TPfhH0xpMxrqvbV/W0Kg/vyU2v/EXoZ2PPfcc0KIP/3TPzWez7NynE3htzjUglwgAAAAoC3EAdCWj33sY0KI9XrtjgC4+7p8Zi431rc3um1i9eKE9ckV25MnAwIBndDGdJNSsZk/cQs2dqDzoUOH3FumDgLs2rXLiPwYXarR1wGY5QM/GNzwDBc4nj/nnHOEEE8//fSokhQl1rhh/6G6xpaD74KaFdSY0TW4qBPVGAEosMwFFknJWTbiAAAAAEBbiAOgLYMDAccOdPNMNe7t6UzRtTmqX63kDsJRZNe1EQ0Y7PDOr3cY7sRC2qZAte22tGviyWfC3JLZvpjTv4OD0YBa5uiMMmzJf+PeUG335bbxALMo+e2rSIGXca4i0QbAolx55ZW22T88I7+j2OL7tgMZ9ZiAak3vL9zY9sBiqv6GbhJLafd6vf6dookyaqof2/rBBw8eTLRC8ETu7JqKGgmx7kKDWUD6ZrKpUJHMt6ml3hUhlXxzmLFs5AIBAAAAbSEOgEV5+OGHr7zyyu7z3VQfn5Z3t2fRZ/Bi7+G6/+UoQ1g4O9aWs1MpPao32kjy8e+lLnlRz9lzcrpBgFjd//L9MlZ7iL4sQNiXy3/PKnKY6MOjSiuXSX7sscdSHKV70AK/C1iq2T9ssxfAbfbi0QbA0rjr5YN5/+4lYGypPra6pufejO2nK7nuG2Bi3XQZF8Hf2NaFWjIsuK2lG5tKdMUVV8gHg83UUe9jxCR49WWPPqpnIj29x5EXZGQBLezmkJpciO2///u/5y1GdW/WvAUuZym3wpELBAAAALSFOACW4KqrrlKPe7N3DI4O+N4Vdid2aejjko1wRC9HF6ZtAeBFdntE6ZYWnfyHAucLimXUeRkbR7wm6o0z0oEMxhodYdNYeSb1DW4z+CpbCDFRds3TTz89ahSv2tgICLz5zW/2yTmsrps5G7kY81lnncUlqk75b9nssUTiAAAAAEBbiANgaSI2rPVJo3vn1uwODxib02z03/usQOy/mRi6GsZ6yY888oij5PlFnKFy1KSZ0Y1dFmDs0r+Oo4zayeB3R3bwu9+X0047zRgTHH00sM6njz91N1tvh7ptRgGjPI4wgm0cwii/+c1v5AN3VIGxwjZyPMD//M//zHL06t6U2Qs8ewFGmb20tAGAP3r44Yflg49//OPGf9kSAwafFH7VAuPJwdwez/QG99wmxk4+9rGPff3rX/fZbR7GBEHd+YLG7key1YlVjpBRmdbn0Q9LmFGv8myKGEeZ2IDp5j7JHarL6POZ9Keu9oEDB2QzQP574MABI/mnK1FkPGc7wVh5yqc88s+PfOQj3/jGN/TnZfXdVndXyUKVTv+fWtyhz88991zmZcJmrx2OUkhpCylGRcgFAgAAANpCHAAL8bWvfU2cPDh4FM++T9s6A7Y+JzUCuHfMsSNFx386UU+eXaFydQUVDymE0ZE/kWNMcG+Pu/6kfJx5SHFvdGLUC/XX7ty5U5V/bLeZTwTGtqqDOJFsZosG2DLiurGswQWDu08Omqbo0YEAACAASURBVBL9iNX72LtQwNNPP/3mN7/ZeMZ4EMXgBAM+scToHbHPPPOMzMaRY3PPPvts9cBdksHnJVuBjcNlHhNcS392OeUspyR1oQ2Aol1zzTW9z29tbclKvxJc+9d1U4CkwZxd2/ODCwi4D5d/np+6ZhbySU/vlWh4wGALwbPxoPYTVk7jKCpB35b806VvP3a+f/24Aa/qGlzTo/d/c056E3dtsm5LQOX0u+lNgnPOOSe4dj6lA8J2KfznOus2bGQtXG0cN+vJdpXkUdbrtWqBZM4FAjIgFwgAAABoC3EAFEpFAGwdSLaO/zwxwcGjFBKaHJUXsVqtHnroocQlSsI2XNiWRBRl0G26dQZS5xp59qyrqzcYb+ndoLvzwTHBYQb7pwcH6y/bXKfpjieEJTKpVyUaAz37/EhVfCZLKGQJZVgA4gAAAABAW4gDoFCDub9GN4AcHmBL6B/coW1or2ePqT/3pKKqGP4LDkRU7Jhgg5GhHnfEsD9bvn7YBKCD2/gHK9TUn+pjPCo1P+B69u5ffXqN9QFm72pVghcezqA7Vahbt1tdnUjv5KFzvQvdIc6lsc3umnpJ10I+eLVIPRi9EbQBUCX1hVcPHLV/H7YBhYNDgSfeetzLDkyfBWjsFB9yy6uuusoYcl0aWz3V9ryspNrerLHz90cZqqvvzT1PkfzfbpNjcL6gsM9Pd2Kf4NG9eu3/Yx/7mFGwUR/ObDyn/Bp8uf9LevcQsfHfrf3rD7JdbdVK8Rzi3ILqaq7VFRhu5AIBAAAAbSEOgMpM6VpL8cIpEckZJ+J0H7rwIEAiiSYMFZYhyN08n240wHimN1xgC2IEz+mpTHx5NyYzGJ4yNtM3zs9/zZCxEwfrpx82fbCDyrTxnF+4e7VLTpGa0XPPPacetzZPaDnvflh0rkwlFJ42AArV+yXv/tzOdS9wLwqWrTy2aH7Y8gLq5//jH/94pRMETTE2I8jfqBSjiJMCTU/mmUKtSyDNtdhFrG9ixPJ7LnRwxRVXCCEeffRR25buxPqwAqdrmMmUpLHTAZ1zzjnGS+RZG22nEqpTi1TmhS2zVDUiFwgAAABoC3EAlK43Yj5Xr7/7v2zrYorYnZHd4EPv/scetK5FgqNLlwtkO5wa7JuoAGqh37i7tTGCYI7jjl22wn9j0fkYOxJy4q7v291/8Gsd3vzmN48aU/ub3/ymhHl41GmqwhhnYXu+S25gnFQtS0CUVh6bWspZi2KvJ3EAAAAAoC3EAVCi6667buxLjAn1wxLibRy7DRt4Z3u5+tPWbWA8H7evMfNyBPm5R2vY5vtPRO/+NwICY7mLnW0wgO27IPPau6ZMuzld6o968AT8gwUb26+fInbqf3a205Fn0Q1TdM9uShzDNvOsf/nD1jOuV7E91jUq/2LSBkDdjGqH/5Jeo5JqBo8b/ase62d7VEVHbbz4eYHkmR48eLB34p08LQH9KPrjgJaAbd6huC1hf0YWkBzVKpefC1Zsld29T/1Po/ZpmxdobDl7c2PEUFLN9PPt7XYx/neQo9iJUpgGfyMcKZ2LV36dtRa1XElygQAAAIC2EAdAKTzzf9QimmP7OCeO/9Nf0l2lOFjwOsHuJKKJ3VdXX331V7/61Sl7KFl3wkr1PmYeFhyLbf3gWaYE1dcGlllAp5xyivslRo9yL/1/3d87994y9M8NThysF8xzvgGd0VNu9Jd3u///+Z//WQjxlre8RZx8WaIEG7t7i9J3/pa3vMW2lnnmGKzKWZqyz1p6hQtXy2WspZyCNgAKcd1113n+YA9+u3zGA/inDPXudrrpe7O1Fqb8AOuvvfrqq4UQi2wJqHnrTzvtNOMtSDdFj7F/nTqWqruPTQeybZ9tfQDbp07W/rtJL7bq3ZRDe+aiOOqOYd/KgEq8TxvGRlbo9S31ZzxfKE40CbqHi9UkGPsS1XiwFWzKIQLIo3Sr/q2tDlaI8mvV5ZewF7lAAAAAQFuIA6AIji4fd4/+2EkePEviTq0Ze7iJZzeLBUQA9P7+7n8J5+XVe9a7A3ZtUYJRYQS9v18/XMCYYNsCw+qZFIODfZYdePjhh4UQH//4x42jB/S4D+bPjD27wXCEZ8jR8aRtD8Y2we+LZwRglMH8w0SHUw/0zCX/PSS6VY5djUFXacdwIeq6enWVVkccAAAAAGgLcQAU4f7777/++uu7zw9Oh2/Lg5/Y5ek5kGDsvH62LR1dkmFzlXoet/tC+eDBBx/0OWixVMe/Ow/ecXl7e9aNbnsjj7+7pS0aoJ6fOOqgWwBbQEBSPfdygwx51TICYGPrwbVlqEcfBurThax/SMZmqLuvsOeYpUQCYqcTp1Xw5B8B0DlOJ26g4N///d+Fx6iA6jqGCylwIcVoB20AlGJj46So1NbWlujc2R3JM4nuHe5f4olV/8ENjDwBxzn2toV8miieU5QsiZ7EYqsu+yTnDCbtDL7QXWV3GExG6t1t8BpkBp8sIOmhhx7S/5RNgoceekhvGwxWRrt1uLgT/gw2RWLdBNwvtH1br7zySplSFV2eOn02E9+m3l+WbrbV8sYEL+Ctn8sCLh25QAAAAEBbiAOgUDIssLW15ZMwMHZcnSNqHDZMMFZfYPDGqhPLZ2pU4XFGLVCZQmMvguq/D+7Il+K+MGBS0Sh27dql/6mvD6BTff+OBKGAZDbHBklnjo8eNJs3Chcwz0HESVRL4Fk8z1yg8pVw5y+hDI1bvXz88KnbNucuBiBuvPFG/U91d5BJQepJ210jz90kuA3gmY4/uB5Cb4tocH4hh94Ui9Vq9ZWvfGXsrkrgMxG+nsrSO0GQZ2W6m5AzSxU8WHCdTF1Ao/avDDYDcjJybBw3iliV+94knylzl8kdGolVwd761rfqBVOi3EJjrRFWjt7Jl2xtAHX6hdduZyxe4VfGU7az2LdvX7qdP7VnN7lAAAAAQFvIBUIRbrrpJp8Ob4fB7Wfsnhmc/t/ReeY5Fbp8xpYO4dkzpzarNAggTnRRT1wW17M7v65ef50RwYi+irCMD9iiAZlFHLjvftVgkLCQHuJf/epXQoi//Mu/TLHzhQUBAsz+/toUW7C6LOwyEgcAAAAA2kIcAEVwtK3V4GD5p7vXzTMv39HvnjMp1tadH7BAadyBCtdee229oQBhjwb4T2rZiLERgIkXUGa0D44KcH8LpiTWi5M/8BMnyA9bkyTpnWcK21ylZZq3tPogk8IvVFG4VqVhTDBKYYwJvvfee+WT+l3jlVdeUY+n3E2mtwF6M5dsHMcaNdN5xDj7YAKDMVa4riaBu2qrKrLB8wJVbeynyFHvHzsm+KqrrtL/HPU5735Zpo+1LU3vWihCiBTrA3jmAhV7bT3zHmMN0lUjg1//+tdP2c9cCnkfCylGsPzlZ0wwAAAAgJjIBUIRumOCjbCAPkOomNwcD56G3Gfl3enF0Dvpo4yNDijtgw8+KIS49tprRx29cEaX9sGDB3sjBo65QY3LW1f6xFjuzB9bEMDGCAKIoYvZu7H7mdrZkovU+srTD5FoKHAvYzmFuOsPeK6hPv1DUnsEAHCgDYAi3HPPPbZcoIqqWY7fLXec2rFD40E2svZfnShT3AxO+GNUXpc3J7rb9Nq/rsD5+Mt05ZVXijR5QQ6D9ezBdRUdr3UIfu/SfRmff/55QUsgVNVfxqoL70YuEAAAANAW4gAonU8T3H+K7t7EA/9JHvznHTK2j9s1NRhw6D7pzjtyd52uVqurr75aCPHVr341uMx5hM0IFDZqUL9cC+4oUsZ2/yue+XW27YNn74kyGNS2CHel7/ivf/1r45ng7CDPJU1s181zhjfPJB99Nd/eM4oVF6olGlDp57McsVYNLxxxAAAAAKAtxAFQKDU8YNQk3N3OnrB5+gd3G8XYPgZ9e1sOdPdJxwYGxxDkxXeHBKiup23im3jgwIGxoYBrrrlGDF0oW0d7OqPGIvtvkPrzII9y5ZVXxh0S4F9499iA4OURjC7/7g1ff96nnDLW0Y0GeJZQP1w3bFK4cm5K5ZRkFKPYlZ6FP9oAmFN3yK/UrYyqlcJGrZ8V8EPlkzMzKPowR0+DOT+eh+u2JeQ0QXXRp/2RDwaXuDp06JDcePG3frfeCxWcCyQ5Zrsa21AfO8PMqOeDdzuYvhJF9JbSr371KyHEW9/6VvVAPu+fFRmrSD7vVLaGorv2//zzz5efDgQMIhcIAAAAaAtxAMzjhhtukA/caQATk3Cidxqp/ktbR2aUhQuCd+IOo08plZwqtJbVggf7+20GZwWt1KgPQPDVk7qLBNuiTMEfy8InAw0O4hkvz3w6RvJMngSnAunDi9GIBj/nEm0AlKKiyTcclRjPH073ZhGbLlOGHHSfv+666x544AH15DXXXFN4jtCo6uzYlINyKp2phWUBXXXVVbGaoML5nRpsVHiuzpHn3bQl7HmOZfra176WqmR9Sv6Q295ulc4kFVv+uAo5zUKKAU/kAgEAAABtIQ6A3OSEP56jdW19Y7E6GwLGJgrn/Dm2/dimvBhZXquw/v6xcyitVqvrrrtOf2FdOUKK5xDhZZhrTqfVauUzytN/nH1wzk8Js1rFWr/2qquuihsKUL3mE6dDMPIku8Ju2r/+9a/1JCVbfqM6CzmyuVswt1/96ldyD92XV4He92CNXzriAAAAAEBbiAMgt7ETUevPbGxsbG1tCe++QM8O/uCc126nVJQUf5+No/Re2DrV1HXu/im31EcFlKy7YHA75ur83rVr17nnnuu/vf+3z5b3H/zlHXxm+lG6O3ccZZa3zJgS1CZ4+n/jv8a+192C9R5CdeQHIwLQIK4ebQDkZoy8DE718UknGNtU8OQYPGo0Bgbj48Fspx8rV0otyKD+7VV4LpDM9rG1BKa3EEqbO2XixyzKsgAHDhz46le/KoS4+uqrjf+amG1i41l3H7w4njPiGzu0/VmX6XVoT4naOWp9g1lenl+ZH7MySwUHcoEAAACAthAHQG5jx8VGmVhwYhkmHrfbZ5866N/tkvQZnWmj5wLJ+IAxMrhxJc+fOEXwwsDXXHONfBCWAhf3Yib6rtlye6aMXfY87lVXXSUSTBKqOsL/6q/+Sn9+3s+2/6di4qDe3jCIY2/PP/+8fJB5weBF3mowF9oAyO2ee+4RQtx00036k46J9o1Ks8pR0ZNVYtUe5D51cv9GfvwUo2ok3bx8vVSD+4xeC+len2KzgBpUwuw3UqwFAbINjNGPO7j/cq5zIr/85S+F1hKYJcfJ8YvgfmGejCb0WmpvyIKRCwQAAAC0hTgAimD0+endCb1JNaeccop8oEcDhEc/RHcCHM8S+m8p9c6rMxhPME7HvVsfvX2WtniC8DhN+RJ5/e+7775RhVmq2bu+UgwFroV/rCDptD9JhS1jUoWAhU1GvVO2qdu6x5XRjwAyKShWRpD7s1ryp1QUXzx0EQcAAAAA2kIcAPOw9XYYqcCe/QrdCezdB0rX/W97Ye+fvbn+SblL5di++6AiBw8eTLRQQAn9XkvqFdZFPK/Ml8gYLhx3UXO182uvvTbRaBxjTLB+dBFvnYRsPGeAUGetn6BjTHDcocDGVdVjPiXcZAx63L7A4sEfbQBkcsMNN3Sf1G8lE38bbFk0wbX/RPQC2Arj2GYwWcjYWOUgBRR10A033CDTgQpfJWB5Cq/3y0+C/FSUr9JKTLqvm54V020PpFvzpCiFLBdQ7Iez2IItSYaLXF+XHgAAAIApVi8fP3zqts25i4FW3HDDDbL36N577xXaDKGr1Uo+L3usX3nlFfl8tx1si5mG6XZlJZrS29h/rOGJxrT9c5Hv1wMPPDBjGdwWlgsUqwvWGA0cvCCA7sCBA8YzEwMCeeamdOw/1qGD1w0wsoCUBx98MErB3HpTg9IJSzKJPoWr5xDh6RlBNXao11hmqbqS79u3L93On9qzm1wgZHXffffJer/813GbVt9Vz3l+avlu+/wy+Z/UvFX/WHlclarlIzc7lbXS2xjw/PA4vhSpGwm9Q4ym7MenC2Cwe2IxXzr38oWFf8uef/75zGuEIUDhn6IZkQsEAAAAtIU4AHIz1gk2FgDuGrV45/SRat28HVsZfExPVSqkA8PWCyv/vP/++2co0xgy6SVWRtC8b0qiDuAoiUC66667Lu4OJXe3sY/et88/+JY69mibLW0uxrLBwcLOwnYP/OUvf6kXSe1c5fDYRjNLEd+7uOsDFMsnixWxZPuJIQ4AAAAAtIU4ALK68cYb5WhgabBLL2zwHKbzScZV/3v99deL9qIBc4k4LaO8FLH2ZowGfuCBB6aEAmwrvE7n/mz7zxPgDlHaOrAdz9uLfBI5FPiaa67x3H5e/uelvy+2peLVBt1ufmMUb3dh4H/6p3/SN/jrv/5r0ffmBi8YvGCew/MKVF2BRd4y0wZAbjfeeKP+5+Co1kT1AB/TU3Gm167CZhCyjWLsXkbjd3fw6LHGR6I1tq+w4xPeu7qT0QTqLldkVPFjfYv9dzK4KFVwVox8UPLCCwGnZrtctstuZPuoVCX9z+4OjQZA95nM0x+Vf+csv4RdNZZ5XuQCAQAAAG0hDoCsVquV7Pgf7P63jfHNPGFctuQiz6HP/q91bzDYVYlehfQzxRqflygLSLr++uvjruYhOT66Po8dMbHB4xby7s+yILcxBnes4E+aeuEvfvGL3v+SKT22F/7iF7+wbRCrhAtTyIe8EbNfbeIAAAAAQFuIAyCrifP36fsZ1YD2z0X2XJLMk63Tcfq6SGHlSURGda6//vryhwVPMXufTVz5PzyjjrixsaGWwS5BQFAu1hXW9zNLEKCrkDtPr7e97W0Br5LDA8JeuzzlRL081VXachAHQFZf/vKX9T/vvvvu4F2t+qjnjW1srwo++qhCup/x389gyX2SgnzKE3Z9amkAHDxh7oJMtV6vC/nl27VrV3d5gY2NjVHftY2TdZ/ppTYLLrxn8bLdLtzlSbTqgg+9eN0htrbtExVGVdaNG6NRiX/b296mnpfcu+1mHA16/etfP2pxgHK+tg7llxBR0AYAAAAA2kIuEFJRKwELIe65556bb75ZdPrSbrvttlG5N2qI8GBuTHD/k23/Uzq0UnSGeZZzcElUz4ka3YdbfKdRyScYcbmAYMaY4BtuuGHUy6f04qvXGjtReURGTtFqaHp+x3vd++XyeWFEM34UZd+/HGKrBtqq62nLpYmVY9Pdw6iPfUAHv6dG1gkuU8l35kElFJ42AFK55557hBCy6n/zzTer+7Xn731v5TJbXcf4Xc9/XP3o/ttPPFwAvYRypTAhxMbGxn333TdxzxkcPHjQZ72wEu7UNVqdmARMVsH1L77+jGfSf7fu7m5/6oczDhSr1t5NqxN96xV0N/a5q6w6S6QVwijPL37xC1k7t9XyZ8+wz/P99WwJFHgzKbBIPiotdmnIBQIAAADaQhwAaU3vqE7a3B9MZQkrv62jsdu3l7ozI0qgYPD6qA1kh2sVQQAftXQ1uTuM1ehnn6BHgN4x5fqDbuiv20nfu1t30k73T/f71Q079L62ezrBHwN3Zt3Yl6s/ZcAt/xB8o0dfZdfIB8b/2s4x4nfKSO/pDTis12uf4cvNquUWh0SIAwAAAABtIQ6ATBy9fcLeG+G/zujEwameL7eNUfYpYe8e4koUNhkss627t141do8NDg6WAYFY0QB1rD/84Q/68zfeeGOU/U/X+6XufkplZMDx3Rl1b0nxBTfWBJjlCqtedtXrL5/pRgM8xzlMlG6MbyNqvMUtRjkXnzYA0ppYLzR+MPyn8facwcaWq+PPnYYRlms0ZTigrU3iTplwD2d0lLb33bnxxhvvvffesSXPyagHx60czyjzKFLP2n9wdo3x9fFsi7oT8LqHVjlC3W+BcXT3GN905JoADzzwQNKjuKk6d3cCfr067n+LVn7+85/3buYeTOw51DjziOrnn3/eNiy4kGpfIcUIU3Xhy7ScfjsAAAAAPogDoBR6h42KHqjOOcU9ptYYjNjtQeztFup27/n3NzhGKOpPju3AsHVJulOPbPMnusvcfd5/PF/v5So8CCC0YbK9T+7cuTNvcbJSp9ld2XcU/U0fm51i+1R7Rp98dm7rs7eNy9fvOT7FdhxxcF7j3gI4IninnHKK0C6y3FJF2+T8y6eccoos+Ze+9CVb+VMwcnJ+/vOfv/3tb9ef+cd//Ef5QD6/Xq9lx//f/M3f9O5QPj+lx3fGNCHH3KATs1Wnq7QTvdJi9yrwXGgDoCyeybuKu7YaNv9G8PaOaX8mzgRi24n7mSl3HJ8Cjz075KE+hL1NHeXAgQMTmwHSxPR0o4IuIv1SOj6Ttq+Vagz4rCmWogC9T65Wq94NVEv7y1/+snxwyy23BJQzmK2qLSv9RktAaI0BSbYEuptNZwxUmEuBFb7q1HsNayk5uUAAAABAW4gDIK27775b//PWW291bz/YEeg5yNgW0O/dczfHxh2m793S/WeswZq9p69O1tGF6TMm2HFQNXeKvgdb9sJNN90kV4nGjNxBgJLNFVZSN5/edYVnnPKr9+t20003yWdkHGDw1hqLZ/+60evv2Ewm/xgjg4PDL7N3/5eplm5ppboCV4o4AAAAANAW4gBI67bbbnNvkGgy6e6aoMbhPKccdQ+TNZ5U/eXd8YWefYRGN7/ewS+coxVt3MMTbdfWtrDr2J7RSh06dEg+WPbgYCHEgQMHROjgYPlaIcS9995bzpoA06lvh+3LaMiwboD7tdkiAAaVyt/b5e/+X506uxRjAzJzzA06lxrv0vWWubpfRtoASOuLX/yiEOK2224bnCsjBcdcH+75dsbu1pahZFSdbZvZqhfG9o48KPVfva2FwYmAsDw7d+5UjRm3KS0Bh8GmZuoD9U6upXMXrNvC792s++02vn1j10hxN/UX9p1V9f5uA8A9B5qSbmzxFBXVAktQ6eXqFru6EyEXCAAAAGgLcQCkdfvtt4uTc0gmTrQ3JTVIZ4ydDdhD75Oem43dYOzLg3OHPIvaO0RYd9NNNwkhih0ZvLm5KYQ4fPiwfKAcPnxY/1P2oy8+I2i6wWUrHP8rvL/dg9/TUathDO7QM2ipvjLGkGLbsVRcYjATz0gsNF6u5gw1CibTL2UANil13He84x1CiKeeesrYwJ0FJHvuu/MpK7brr3Yrj6v+t1uA/F73utcV1RNcVGF0xRasNbQBkImqO+r3+m703H1r8EziH3ytmFBLLoRP3qHPskdjjdpVmS0BVe83GgA2+vAAW3ZNbzthMMfMM1dnbCPEc7fB1EgAm8FBPmEvzMwzF8Vnsv/eDQYzlIzav3vpvcGRV4kE17wHr4Pteb3qr/9pa4rk9MILL7zuda+bsQAKlWz4IBcIAAAAaAtxAOSgj1j16UjuLh2qHgdPtN/bce459cfYXJ3glCefPXf/HMwu8NebfqDYAgvdt0OtXRqFO2MnYA9hHP3r8r+6RzHeEb3k/kVSKUm9ExbppSoqbcm2WrYtF6jwnkvPsED0A/U+I4S45ZZb5Pdx3uDJO97xjt6u99VqJbN9jIygt7/97Z5LB/Ry3FpLyAUSQrzwwgtCiBmjAYV/j1AU4gAAAABAW4gDIBU5GtjG1tOcukewt8/MloA7/UDdYW1GHCPWmWYeGGAbTRG3+19R3edju/OjdP/HOkpA+EKn9/fbIhKpRwKEdTnbOrZt347B/fRu5uind3/rw4TNNzrlQHJ0jRoKvLGxoa/Cbpt/OR3Z7/6Od7zDSNAfNHb7UbstJBqQWUV9/xUVtVft5TfQBkASd9xxx5SviqM2kCLwbawVEGU/+jP62NCJ5Q8r3tbWlqy1jx0JrVKDelcrW6/XstJ/yy23BJTKR+ZKv5ovKNbOHfX+iU2CnNSH9g9/+EPvBvqw75tvvlk1dH0q66pS624S2PIDB8scvMHEGcwcu411w5GrgxmzA8kHn/jEJ77whS8E7zkK41J4Vv0937hiq2KZs4CKvQ66KgrpUHv5HcgFAgAAANpCHABJfP7zn7flAtlm0Nc7p/VBhJmb4KnjDKO2d8ykrvOfcXwsY/lhIYSefuCvtwc9uCN8c3Oz97WxMn8iZhC5AwtFsc34+Sd/8ie27n8bo0967FfYFjRzDylW/+W5mX8x1Kui5BR1TypnzDOWbqe+Sg3q3VKl6HQHiPcmcfmHetQOC8kCyjYmeMGd08iGNgCSuOOOO/Q/Z7xbhdVCjGSGWD/G3d/7scWzZVnEusJGXV8mGwzW+7/0pS8JIW6++ebe/7VVqadU5X1mCvJsQWWQaFiCPOvBnTtGU+h7sDVU9AZAWJPGXSl31/hFp1LoubyAz2ajvjX+09hPbBUEbJCfXuHW6/1PPfWULeent5HgOQlS12q1+tnPfiaEeOc73ymEkI/bQQMgs8Iz0IKRCwQAAAC0ZfXy8cOnbssxdQaaosYEe3bqqOZ1d7hqWKfa4JTkowwu+Opftikl0YsxZT/qIn/pS18yhvPKHv1Y8kzLs16vjxw5IoTYsWPHlP0U2Nsai2fEYMrOdfJD5VgMxDbY13NeoJwCcoridhZ2wyNGap8RTjFkGxks++N1+nVwxAdsbGdkdPmXGQdInQtUeId04cXzN/uJ7N+/P93On9qzmzgAAAAA0BbGAyCJsR3namPb5JXd7nz3/mNl76k9TBwYYMtmjpKRHED198ft+Jem9zfbRk3Y3taJEYDuQauICfh/JpMGZLrjOtSHSo4nUdT32j+3vstzrXHHy43CuOm9/p5jlNX/ztuJmPnoena+pF+ud77znbFGX5TZ8Q9p9o5zjEIbAJHJ6YASVaGWMU3Q4OF8zrE35cmg/jdsMp8AY+ua7onkjc1Exh+YnB+zKc1CUXbTRa0vIf8cuzyFTk+AibKW39i2hP+1jfsudNcTMK6qwbjIt912m3zwxS9+MWKpxvrZz36mmgfuT7gcOtzNLJKV/nPPPdeo/ZfWGMi8lfT34QAAIABJREFUPgASaaQxQy4QAAAA0BbiAMhN776y9cMNbjM9J8fTxGn+Bl/eO0l2rHBHtu5/f73n1UiPi03E059rTK1t/QeZFGRkBEXpxYdB3UPUGt7ZDn3uueeKvsy0n/70p/pmvWN5uwl+3QiAfhS1gVr7vLQ4QFzdKFBpsT5d43fyGtEGQGTGHcr9e98Nx3fr0EZ7IOwO2H1Vb8F8xiG4d+t+uS39IOJtfcaI/44dO4J/A+TEPmo/kUqEk8h358iRI+oKJ6pPVLEmWjrRa0K96V7qTnLKKafEPdwoqmre/SzpbQOVC6QnBemvcgwA6B0ddMopp8jnSxseINcIU6anBiVaCiaW0soz0cJOZxD9MQAAAEBbiAMgss9//vNCiL/927/13N5zmGDYOELP7n/H/8rjTlww2P9V/oMmZXkKzPbxpzqk9SAAUtPDLBPHE3v296tPqZEUtAwBi39PmbWsmw0Sdy3z6GTBzj33XL3b3v+FwhkiiFHAQlXRIV1FIR1qL/90xAEAAACAthAHQGR33HFHlP04Vg6WRo0stO1kcMlP1TGv9zlNGdTo7umfMvH5LMJy942OfwYAlMCxIO5S6V9Gfd2AsXOYxlqNxJOt4994ft7JQDNTwxJ++tOfysfGiOTMgocB0DOdB9dZog2AyMLqx7bBwe6qeUCp3GHl1PcFlTYQVsn4whe+kK5sPnbs2MHg3XbYWgXTvyYyOyg4Ncg2U0pvwQZn2fKcaH9KIfWyTWxZrVYruYfuPc3Ys1wZoJyWgPvEY917jemD5hor/MILL3g2AzzXSClNXaVVKi12OuQCAQAAAG0hDoDIjG6ziXOBr1YrozfO2GG3s21KN5vttbFmNB9McDKU04c3iooV2AIFBBAqZfSijR3SLbv/1cq1E6MBNkawwtHzN1dKXlhnpLo7LXKBheiJZ2ossvwzW2rQqCyg/CugA7rVy8cPn7qtZ3kXYIruqIDeunv3xqdyc42fYc9k5XRLqKS4R9syj2fP+THoVXZZ4bNV4t3/i2UbbAzI6v5qtfJp3BptAz1ZItZKf3Hr+u5bRKwbiH8ukDpioq4EVb02imccPZbpeWiZRwi4GwO1V/qrK391BZb279+fbudP7dm9wO4EAAAAAA7kAiE3vbOqOxBKdW65B+TlnzHa1sfmQ/X3G+erTraQjn9jyK/o69F39/ETAWhZ9903Pk4y+efmm2/22dvdd9+tsoakuAP3IwYBwiIAieYhUHfO1JmEslv93HPP7b3rJhrkaluNQRTf0Vt48Uap6FwqKuosiAMAAAAAbWE8ACLrXSFYdYSL8R3qs0yZb1sw2G1wZVC5iLIQ4vbbbxdC3HXXXeFFjKE71ycz9yO67ofKNsOse0SBERbw1/vFjHVjcXzr3Te3sDjA4HgAI4KaOsZoiwMowR2xg0Fd9wLJtuPmGRVgGwygRqxV3T9dcuFLLluA1OMByAVCZJ/73Oe6T+oNA716rdbeShQQF5ZfemPMcXcIsmF6dUHV/qXZa/+KMbULlX5EN3b6IBuV3OLZGEhdG5i4/4Dav9CmShOW6m856wxOuT4+WZ0lr2H3wgsvyAfBi4UBGZALBAAAALSFOACyMnpuBjvgp3MvLxBscJpC/XkjCJAfvfuYnf4h7P1AdoNRttCBPtrVFhOoJSVAH9I6KijqXswkZzRAL/D0vvmSe/ejqOWT2au0wpdWnliynRdtAOTwuc99zhgn4Plr5/9LNqpyb+x2yu+lnpOaOsNnsG4kQvMuimokxK1SoCIBn8OxCUJicv3Y/+fZnaqe6LOdrfZvrA/QPZ2xeZ4L+7IvLAtoqbXtMmUbNEIuEAAAANAW4gCYmYpcG01ez94sW/e/0YxOl3Q0yyQPg92lRfXrOwxet9TDClGOiR/aL37xi56hAHXPGZs2E3GtX88nu0dfrVaywKeccorP9rfeeqtcliGdKV80Nd9/9G8rX/+ICAJklu2CEwcAAAAA2kIcAJnIXitH30yUDnVj//qiknrEYOxkoN1SRR9k7OPIkSO1dPC75enkGFyuAWWaOIuo/6crbmzQvz/btqVPydU2agzxoFtvvVWcWKQ5FmMwgMPggjCDZ7GACfVrwUXOqYSrTRsAhXKH6bs17ym1OvdiAhN3HpesHlXaEijhlif1lqScd3kWg1NdZaPGtY/6nE9ffyAzoyVg+3YYdX19M0erI9t3beynxTP5Z/oI466f/OQnwa8NIJcIUCODy7n7GYotmEONZdaVU35ygQAAAIC2EAdAWbpjeeUD2UOfIfHGOETvssfixESEal7CT3ziE6kLVq9y+jzcBsupp5YNbqnvc/ae9V6Ojmf3C1OfzsQe/e7F19cT6LrlllumHM5gm9k24GrraT+ic9nVmGafXYkTp/mlL33JsU0eEz8/g8lFADytXj5++NRtm3MXA8v36U9/uvd5eQfvJuG47+zu9XEUW26P2rnRtDB+Vre2tmZf3ktXeAoQP8Ztit4k6C4WNvaFE+mtAv9PtTvTfcp+evep7lTqgS0pSD7vbggFOO+889wlHHtDSNq2/PGPf5xu572M9QHKvD2WWapBlRZb8S//iy++mK4YT+3ZTS4QAAAA0BZygZDJZz7zGfnACAjIvh9jop6AGV1604Qc8//oz3/uc5+74447hBBF9fqXrPZuGEQUMNOLW9ha1xEPJBNmujlCY+fzSfo18Z8XKBE5xNaIBuhF0hM7y0yHy6m02Y3KKQlmRBwAAAAAaAtxAMxMjQcY213kOT7YcylQIgAO9BhhFOMDE9YHHDz6xejd37Fjh9HTb9tzb1hAHwhuO5GcXbx6978+mMq9YnoG7ovToFrmBkU2BX4GaANgTrY5NHwmYPH85ZP7UUlBRpOg/Kr/XOOAC7xboVK2z1K22qH7S2T8r/pTZgTdfPPN6Qpm8PzS9bZJjPkMUl/b888/P+n+kUjtN/bay18acoEAAACAthAHwMx6xwQLj/B6bwTAsbqkvv3GxkYV3QnZggBVXA0sTJSUIZ3+fYn13fnyl7/sDgV0F76N/m1yj0X2vG7GkibBLrjgAuE8x7Hvo+cC1cFXVe72ggsu2LNnT9gewsgsoNlvrbMXACVjfQDMw5gdaL1eyzZA91etN1/IMRigdwUZ1cC48847J5Y8gwxVf34YULjZ88j9JyaSMwgZS3oFGPVCdX3kg9Vq5c4FirU+wIUXXijGL6inN5B8FvnqDsPobmZLJTX+1/ivPC2BM888k4mApjM+LdWdwvQCsz4AAAAAgJjIBcI8ZPv4s5/9bO/6wYNTX6t+/W5AwGh5yy2r6P5PqroeFDQu+rIDsajpg+SD1WolRw9LOccQ91Jhgbhf+Ysuush4ZnCod29HuCNd0/gv95+DvxHzflrcFyGn2u/8JZffEYkqudg64gAAAABAW4gDYB6f/exn5QO5fvAnP/lJ+aetlyjM4LIA+em5/nrCcdIxALX0SQAOtsTxRIfzn1F0c3NTCHH48GEhxJe//GX55E033eRzlIDvpufY2bg90Krf3XMIrzJxM9tIa2Mots9pZo4MyPUBpDPPPDPnoWtX4w+We3RKsWgDoAh33nmnagZMpK8DMHsK0GDNPvXw3xpvpoC/wZyQDAWQD2RLQPn+978vWwXSYJPAP3vHZzqg0mohAblJvblAjiVlRu38wgsvfPLJJ0e9ZBTVAJi39l/R/X/sIqHzcl/Yii47uUAAAABAW4gDoAif+tSnwvJ2bKsFF96d4D/tYJiK+iGAiYrtQdRzhO655x4ZCugm1Uxk7Ofuu++WDz7xiU9E2b/tQDYT3wjP+EZwypOc2zSbvXv3ijmiAZX+BJRf7PJLOApxAAAAAKAtxAFQBDVEWOqODXB39W1tbc2e+q+bcRjAwnopAE9jx6pG5D6iGidwzz33yAcyIGBLcLd9hW2rEctn1FhkRUZHt7a2ptwTLrroIp/lwHx21TukOHgkpWP2iJbvgZWee6XFXgDaAKiM+iGcsdKvftTX67WR1ZNhiV8H7qRA4alBQmsMCCFuvPHGFMe6/fbb1eNYyTkpZj6JtY6BbXwwt0TENfuCD3GRCwQAAAC0hTgACtXbzlZPzt4KVwWYt+Nfmf2CAEXJOWfo2MiDPlZY38nYAt977722/7rrrrv0UMB0xh0m+PLGXQFm4qGz2bt3b+phwZX+BFRX7OoK7EYbADWZNwVIKeEuUEIZgJJlTgoKawnce++9Mh1IVeijZAfdfvvtUVZIfOKJJ3on0ikw1arXYDkvvvhiIcSPfvSjLMUBv1xlIRcIAAAAaAtxAJSohM7+MtGJAowy+0LCbpubm46UHl3YWWxsbMiAgEwNuuuuu8buQa2nm3pm/d6xvLEGDXdddNFFgjtqFou5yIs5EYU4AAAAANAW4gBAiZbX3zBF2NUoufcXOeUcGBAQdjCGCMuwgG1UgNq5PsGoEOLWW2+VKwSrocDG6umvvPLKqFLNbknf3xQDgqv4jaiikIOWcRa9Vi8fP3zqts25iwHUJPpcQAu+xbjNcuJLqlvAX+b3PeBwxkxB7sHBRgbRrbfeKiv9qupvjAmW37VXvepVn//858cWTCczggbPTuXwGFsaX3l98QGfef2jpwY98cQTEfc2KFZjoJafjFrKaSin2C+++GK6nT+1Zze5QAAAAEBbyAUCvEzp+9fXEpb7KaebYRbznn6K5U5RvmLXD7bxHCvspsYES+kygjwn/rddf8fzvW+c5/vouNVkjgA0pfEfuIrQBgCyavnmWOC52zITgImmDwwY6wtf+ILQxgMoMjtI1v7lNlOoaYLkvDoi2bdG7Tas9q82Vk0I48suy5+5JTBxsbACb6GoGrlAAAAAQFuIAwA5tJwCVNFZV5cugrFyLhcQ9nEKiwbcfffdMgKgDie7/2296bGUv9veK1DdwsAV3UVREeIAAAAAQFuIAwAJqdHArfXiVH2++hql85YEKWSO9gRHA4IHBkjGEaePBLDtP8qVzHzHuPjii6sLBQDR0QYAkqi6EhxmeadMatCC5UwKCjvcxCHCqT+9vUN1g28CgxP/6ysJuP/XsyQXX3yxekx7ANLyfsXcyAUCAAAA2kIcAIjJ6EXYvn37XCXJoJEuk8wdxsimijiPjAYIj4DAXXfdpR7fcccdqc/r8ccfF0K8613v0g80ZR1fzwK7NzMylGxhgbk6/sdODNrIPbYQDV5t4gDAJOuTzV2ctJo6WV1r54sUZvkUydmB0nn88cdHnVdwy2S1WgW8trQG3t69e0dtX1r5l6fNXzSFNgAAAADQFnKBACs5qb9DOz0H7ZypQ2vzBTWyiHIVGUFCSwqS3KlBGxsbxkIB6dgGB+vP639OHD0cZkqS0oxqLHP5/AeOLx5xAAAAAKAtxAGAkwz2/UuN9B80cppj1dJz7MnzXe5utpgrIDIGefLPSZr6ED/84Q/V43e/+93yQW9wwJ/ebe85CNhg+7jKocxIpPCfDFW8wsuZDW0A4CRqVS9hbw+0cPto4Rwn0i9RRbXhiO+se6b2SmWoo+dpQxb+Fe6evnFZeq+P/0Uztiz8atSLC1s1coEAAACAthAHAGCia2eswrODcr6hrY2cnot7iPDW1pYcClzRu5C0qIWMCfZfH6CE0naVWSobxv4Oog0AeGnkJtLIaSZSZktgrve03vEDOXN1Yh1lc3NTNgPuuOMO+YwxL9CnP/1pIcSrXvWqv/u7v4tyxOrIC6JGLOjDGOBW7+9CvSXPg1wgAAAAoC20AQArNT64kb6ERk4ztXJWnSykGEpp5XHLU9roh9g4QT2ztbW1tbUlH6cOAugjem2MDZKWB8FqXEC32ZXsg9EGAAAAANpCGwBwOXLkyJEjR44ePTp3QdKi1ySF1Jd0PSTp0YMVXrx6bW5ubm5uujvXP/nJT6YuhiqArSR5uv8dgQiCD4P4ejaCNgDg5ejRo8trCVAbSy1FjXwx71oVJ5InHSjiUe68884777xztVp1k4IycM/ub3vJlEq58XJ31V+Za0Dw3r173RtU8aXAYtAGAAAAANrC3KCAl+3bt89dhJjoZ8rPuOb+fZ+Lf7PWRc6pqhRevF533nnnpz71KflYhgI+85nPJD3iJZdcIh8YFyr1dVN5Rz/4wQ/kM+95z3sGX3XJJZeo7bEAi79JJkIbAGgOt8sSqHehW0lq8w1an1jQp0yFF0+Ra4fpS4Z99rOfna84vhzX1rPxrBohnoztm20S6E3cSu88lRa7BOQCAQAAAG0hDgAMW1giEIpCJ5aiX4oqOt0jihtn2NzczNz9n64jeWGfBDks+Mwzz9SfnPEmsLDLi1GIAwAAAABtoQ0ADFvMrKDMOodaDK5+kH8WxdSHq/rrWfXU+/kHA+zdu3fv3r3MBAqHDB8McoGAYQvIBeJnBktV47w9DpWejsoFUiUv4Z6zWq3cxZClveSSS4wL/v3vfz9pwV772tcm3f/ilfDpii7/SREHAAAAANpCHABwWUAEQCy0ywTQOeZaRTZ6v3vvGzHxXtQNMiQai/y+971PCPG9730v7m5Lw09DIeZ6I2gDAABQllqWI1B2794tH7z3ve8Vncq6z7nYZoWy7UF/xpGAZLywt7KltkmdAqTs27dPzJcRRNUfErlAAAAAQFuIAwBWC0gEor8HrUk9praWMbvdBYPzkF3pMpdGdC6U53Xr5hTZXmgLOIy99akIQM4soH379qUOBSzsJ2BhpyPNeFLEAQAAAIC20AYA/mjHjh1zFyGmRXaZAD4W8OGveuZ4ox/dZ/WA3g3yLztQ7yoHizTXYiCNIBcIOMmU/J/B4WgAMErw4OD8WUA+bLk6KvlHbdBdcKB3P45nfP53rlu0TAGSI4PTodIMN+IAAAAAQFuIAwAJzTV8kO4fYDHCbiNzjQlW9Jn7u9357m5+YzOfDXqvUnedYNsOL730UveBUkg3IJifgCrM/jYRBwAicKcq5vyekzQJSEm/C/m/ZWGnI1sCM3In9Btz/HdNPG63AMZu8483gI8WBgCUcHa0AQAAAIC20AYAhBBix44dO3bsCGiXe/ZVLL5LA0CZNjc3Z48GBDP677td+IN7MHqU3bditdpxOmeeeeaZZ56Z+ihV47cyG9oAAAAAQFsYE4wWddcBoOMBWKTguTXLVNHpGH3qwYNuPVcadj/vf91ShwL27t2r/xl9WHDVv2VVF35QgWdHHAAtOnLkiHpw5MiRbN/MpCMUSTcCcuIb52+WWXd0/g2nSy+9dPbSBqv0A7n4369iz442AAAAANAW2gBokcoF2r59+5SFgQGUr9hOuDA1nk6GsbZRZI4ApFsfAPDBeAAsmarrq+QfRX+m9mZAdRUCAIuXuj5tpPfEug3WMtzCUOmvQKXFXgziAAAAAEBbiANg4boRANuTefQuaD9xbwDmUstEPWqJgMOHD89bEoOatyfKfmwG969eXuNNtboyV1fgMOWfJnEAAAAAoC3EAbAo3Yn/jSEBjhECo0xs30+PBpTfwQAUJW4Ibna1xB9sYnX/63sTfZfF/b53/7fqq1o+frmKQhsAi6Jq9o7GgFTCOOCAX3FuoACmkElBqTOCxg4IdtwJbTc9z1ZEb5LParXSa//11vtr+UWopZyx1HK+5AIBAAAAbSEOgGUyMn+M51UQ4OjRoyIoJhArkK32UG9HFNC4ubKMphx3c3Mz5+DgbiHVM8HXTZ5+9yasXxY91mrctHuPu1qtvvOd74SVJ8C+ffvClgiopZtZqqu0AdTHrLozXb18/PCp2zbnLgaQRLcNEPcrWt0Xfqn88wHQuNSfhPyftOAj5kkHctT+R+l+x/VaV/BFcL8wW3vAsyVQ3S9OdQUeJcPZ/f73v0+386f27CYXCAAAAGgLuUBYsiNHjnRDAeJECpCYMDJ42d0btfB/F4zhgGmKgwrUPp1OV3BHeOrBwbZkG/+NJfcJuuMM+ts96iaQMyNokZb9E7mYsyMOAAAAALSFOAAaVcLcoAg2pRtmeT3BQIH+/u//Xghx2WWX6U8GLMfb+201RmHadtud+N/zuB/4wAdExmjAvn375IPuwIAau5xrLHObaANg4Yy1wKj6LwA/MCjWXC3M4OOmzgj67ne/K4S47LLLjOJ15+0ZxTat0ODeim3/h00QVJql3pyXel7kAgEAAABtIQ6AFk2MBiy1SyCYeyHP1EcJ3lWxPYJAajkXB3Ao9juYeUzwMoIAqA5xAAAAAKAttAGAEdbrNUGA/LjsiCj1x2muj+uo48phANnIUQEV+cAJcxVgfcJcBUALaAOgFdu3b5+SAsTtuGvwV6rwn7FiCwZksLm5mbMl8J3vfKeKSfdXmvzzAlWNO2p1aAMAAAAAbWFMMDCM7g0l56XIcCwGBzdrqctE+H+kcw4L/tCHPvTKK68IIVarlXsKgbBvvWO3Y/czfSdTVPpbU2mxBy31vBTaAIDL4m8BeXjWS6iRA9noiUCp2wPf/OY35YPLL7/cto384htff3eqoegsFGA07SbewD/4wQ9++9vfnrIHf5X+1lRabLdFnlQvcoEAAACAthAHQBPGjgZupxtglImXRb3c3dOf/+ITf2gT73t+Y9fxVf36Rjd/N5VLvZtGTpHtiL3vvvoz82fjjDPOyHMgQEccAAAAAGgLcQAsHBGAAnGRgdnJMQCZFwpQAwM+9KEPyQfuHnf/nnij+39jY0OcHDcYtefewQkpyBWCuSUWorU3gjYAIER73/yxuD5YqkVmBPnMepS59m/jUxfv/tl9lZEL1N3e5yamNsv2qVArA9TYGKirtL0WcApTkAsEAAAAtIU4AJZpypLAMDTSU6Kf5sJ6hQG3zc3NbMsFqCwgt96hvY57UdjyAmGZQinIgECx0YACizTdIk9qFNoAADcCAEtTbI6THBLw4Q9/uPd/u8XufexYaCygWt/9r/zXTdb+CxF3mYUCLe+MwpALBAAAALSFOACWZlQWEJ0B6EVeEFCCsesJGM9Xd4eft8D60au7dAhAHAAAAABoC3EAtIW+jVG4XMJ7eWNUzWcyzQXLNiDYRk3K6fkujN3M81amtlfrGGRWafiiLlxehTYAFmIwBYiv/Shcri4aA8tW7CDaKTzbNmqtgLkaA6lvOGPfVjlk+bHHHktTHKu5brzc8NtELhAAAADQFuIAWAKCAMhpYR3G6nQWdl6zO3LkiBBix44dcxdkhJwLBZQsfwRgLk39ODZ1sj5oA6BurAWGudSbGtT7Q6iebDwzfqKjR4/OXYQ6yEq2WiVANUFnN++Hf+wAhmCFXO08uKfZkAsEAAAAtIU4AGpliwDIfjj1v031dsTCRRullk4m/7eVpCDksbGxMfhhMz63S505Z9++fUJbLXipp5mZHt6ctyRlIg4AAAAAtIU4AKrkGAag/xdNf+RReMd52BfBGPBQS7hjXur+s1qt5JhgODz66KPq8Uc+8hH9v3o/dd1PstFfvlqtbD3oPt+CcoYlxCpGIaeDMtEGQGUYBAyMMr0SQDUiTCEzAhXeQFXcJVT/a2xm+9NoQthasLZGxTLwza1RzneNXCAAAACgLcQBUBOfIAA9H1Nw9aYorcM1+rtZ2gmWrNLUqRkXB5B5QVdccYXxvH4ZHdGAbuqaY3ub1WqlpyflJ0cGn3HGGTOWAZnN+LNLGwCLQhV2IiajWADevgDHjh179atfLWLU3Y0lAgrJCPI0+xphqgr+0Y9+tHcD2z0q7F0rs51WzrAELBu5QAAAAEBbiAOgJqqDjZHBidD5NN1cSSC8d6WpKwKgbG5uilmTgkRfEMAzRDn9qyeTkebNCOK7HAWXcRBxAAAAAKAtxAFQk+3btxu5thLNfRQl89jZzJ9/9+HKTLDudezYsRS7lVHK3jsVBtkiAN0n9c/ho48+2h1MXK/9+/cHDwtu/New8dMfizYAKkMWEGqRJymotN88fXqWkucR6l432SSIeIeRa4SRETTKI488IoT42Mc+1vu/6rP0yCOPyNaC3D6iebOAJBoAweqa1mL2cpILBAAAALSFOADqNnszGnDQP5/d+f7cHeTGfOeik2LEh99gXO3gncSdGxQBbG+Bene6gQLbS4yOYWOz7ldy3jHBrAxgcMcSq74HllB42gCoAylAqF33jt/782bbzLFBmVKXU1293gP51Pm2bdum/9fx48fjlrCoLKCwvKzZlwswrFYrd13f8ULP50vIBYJhVO9J+cq5h5MLBAAAALSFOABKpHr9HVH1clrSi8ElnddSr3/ckcFjoyKeuT3Hjx+X6wRHVPWYYGWWwcEPP/ywfGDk/AR8inpfYoSJ9E9RoqHGnvbv3y8fkBTksNRbZX7EAQAAAIC2EAdA0WzDAOgGwGLwYTa4E/2Dd+imjw2YErjQQ5e1RwDm9fGPf1x4vHeDs4hKX//613tfpTYzNpidDAj4RwO4jVShtLeJNgBqUtr3B4CnsV/e/F92uT5A9IygogTPeiQzgsQcKwboupNiuWeMUS3JK6+8svu/OtkqMJ6fKyNoLH4ZEYZcIAAAAKAttAFQlu3btzMN6FyOnzB3QQAUavOE1Ad66KGHHnroodXJ9A0c84Sq/1UefvjhVZ/uxmnPKrb1ek0QoGTrk81dHBO5QCiFu+pf4JcHwGKkmBcIweRgADfbnPG9PxbGDh3LBTz00EO+pSxAd14jwB9xAAAAAKAtxAFQCjmfRjcaQA9HNsayqQCCMSlQarYu8G7K0KjdGhEDIywg/zd1rKDx6YAWcFK1nAJxAAAAAKAtq5ePHz51W/LBPcCg3vEAqjHdwrR9s1uv13JAMAEBtEMNgu+9vYztRVbrAxQbB5g47DX13KBXX321EGJra8ud36+4F3NQc4N6nvXY7tvZAwK19DePsoCTinUK//Ef/xFlP72e2rObXCAUYXAuIGr/GTAjEJqS6ANfbO1fmrICmjixUEC6lsBXv/pV+eCqq66SD/ScH//1ARR98p/u/3YHFo+qvam80LooAAAgAElEQVRCbmxsCCEefPBB+ee1114r9yP/VScFwwKq+10VnRS5QAAAAEBbiAOgCCqArgICFbWkF0CmWgmygICT+S+sq25iR44cEcVHA6rj2d/vHx8wNjNeODY+IP/3mmuukX9ubW35HL1xS/2VHxtNmhFtAJRCTweq5fuzPIwHQDvk51x+5qNnGx45cqTkZoB/22YWKsdmOts0Qb3LCziaEPozg1dvevKP/9RAy1DpQge2FLVakAsEAAAAtIU4AIpACtC8ZCeoyggCWnPs2LHgUIDKAmqHHBkspRgf/LWvfU0+kNME6eRvhByDq/7Ufzh6e+jd/fpC69D1+Q0qOYRSONvlreun3yhtXYXXEQcAAAAA2kIcAEVQHWnMAToLGQFgGABaFrwIiQxjNhgNSEoOCTA65m0TfTq6+cf22U9JTFfjBK6++mq5BxXQGGV5gwHq7SnXFT6KJgBtAABArbpz/EdvyoZNqF/ygOAqyNqzmmlHGaz9+zzvXyUd3N627EBY7V/av3//MlYHq6KQ/hbWABDkAgEAAACtIQ4ANI1xwFgY5rf1NHHB4NTkaGCVC2TL7THG8vpHCXzmBl2v17aebFt8IErP9wJygRYWAZDIBQKSYBjALBZ5mwZmwaiAuNQU+3o6UPS8f6V3onfbNEH6QW3HleMZpmQEORR76y62YBOp81rYCZILBAAAALSFOABmRgRgRmo8JYkTWBj/z7a+WrDD2DSAwtcJVuTs/vp8/wEvz8B98fUOe9uKv3pPf+re3MGPSjfbZ//+/cmKg0kW1vevIw4AAAAAtIU4AOa0ffv2BbewS8ZQYCzDtm3bBrvwPfcTZbTf9u3baxkScOTIEfX48OHDwaGA1B588EEhxLXXXivsY3+Fvfvf2EA97h0T7OD58VDFSDR4lF/MnBZ/tWkDYE6L/4INcvxi5UEWENAmmaqkWgJhSUGbm5up04FU7V/+2Xur1NsGPtk+Y9cHGCQbKqq06/VajWl27FYvBnMBIT9ygQAAAIC2EAfAPOQ8eoV3G+ScDFi/FAubgRgAgn3lK19Rj6+//vrebTY2Nra2tvRnbHdR96SfiurXH0svbdcZZ5wx5fZe+C/mkjRyqWkDIDc5EVDhXzD3ZMDp6uiZa/8kAgHpyDSbKmYHKt8NN9wghNAr+hsbG8YzPjzz9WVKj+Ku2ftTk/8sIPNHKvynPMwiT6oXuUAAAABAW4gDIKtyVgPozb3xbP3HGshrW2c+WzTg+PHjhAJQO/UZNiYImuuzLRMda8no644MLnOCoPvuu0+cnAukRwDGRgMGxer4j6WdnulZNHt5iQMAAAAAbSEOgLb0drQH9wEEDxoenLeulk7EuYyd2xstSN3x7xmmk+sDMAxgLsY4Afmn4o4YqLHCcjxAimjAa1/7WjH+RyfP8sYNavyS0gZAJrNkAdm+3uV/7ZMmBVW0QFjm7Cy0TH4vyslXzGnHjh36kmGjyNyh1KsESEaFfvqWtjuGfP66666Tfz7wwAOex3WTDQAUovyaQGrkAgEAAABtIQ6AVOZdASDbccfO6z+qYNGTgiqKAIigN5FlFpBa5oH72RiDg8fKEw3oZvi4Z3TY2tqyBQT0d1DfRh7CcxmBseh4LgRvhEQcAAAAAGgLcQCkIgfGKZ5ZtlWn5A5229P34IOrhKrJEOiRI0caHBa8ubmZNBRw//33ywc33nhj7waq4192529sbPhM/ewIF8QaCYBy8BOj0AZAJpmzUOaaRSH6EZMmHpS2OED0sPvyEjZQiKV+unbs2CEr8cGrBOQcIqyTb4eqyrvHBBvvnW3j9XotVyRQbQ9/vcN/x97iCv+YUZmuHblAAAAAQFuIAwAtWnYEwNhtyR1pQJmCowGJIgA33XST6LtRuEO++nffCBTYNjOWFwiIAEj79u0TkycDLfbeVVcEoK7S5kQbACU6duxYpUMCCier/sePHz9+/Lj+zLIVHk8HiqJPEHT48OGxzYBEuUD33HOPEOKmm25yN+xtS4OpGX5Um6F3D0Zl0X85gq7e2v/YiYa4d01B1X8QuUAAAABAW4gDoFBRJgiKPrtz7VT3f1F4j4BiTRwiHJeMBkgyO0g+o6YJuv/+++Uo3vvuu08+P2p+CNXpriIAN9xwg9rbKDIXSFIxgWXc60o+i5LLViDiAAAAAEBbiAMAmE3m5ZzJrMWgWIOR5CoB9Zq+bHDq6UH1mMC9994rO+xFZxSvvplOX2Hg3nvv7d1G7TPYxDHBopiO7SpuoYVcq4rQBkDRGBwsJbr/zjsgeK7VGwr/GcNc1Ij5uQuyEJkXCuhN17FV7tV/2dYak7X/6fcKz7ucsVlp9yhVvGIr2cUWrHDkAgEAAABtIQ6A0ukLDDceE5gyT1zmdZrd5u2zYbo9RDEYVpKJNDKpplI7duwITgfKv1RwAFugIGAQcJjem+GMK9yPGkKN2tEGABbLuK1DISkIGVRd+zcELBSAktlq+TXW/msscyHIBQIAAADaQhwAqIlnB7bRL1JIN0khxVBICkJXCytnjyKjGXxTUJTSfk0qRRwAAAAAaAtxANSh8dHAhu74LfdAru50h3R2AkkdPXp0SeMBxgbN1PiBKkYGoy4EAWKhDYAlW/ydYnDa5kImOy/2jWBwMBJZUgMgAAOIw7z44otCiNNPPz3pUYq9IbtVWuxgGc6XXCAAAACgLbQBsEzr9bq1PoNilf9G8GlBsO4n5+jRo0ePHp2lMEmFfU02Nzdbjgns379///79tv/ltuOpqVt0zjMlFwhYMpn3b2QEZRsMUNddm2mCEIaMskF6M6CpEQJnnHHGqO1TZwGhZIPJvdERBwAAAADaQhwApWNGoCnomxyFDl0IIY4dOyYm33m6n6K6wmKIQiYCdaMB6laT+VNR6YfQPfFd7WY8L+IAAAAAQFuIA6BoAV1xS+0qCCN7NEX2BQF4F9Aa1bNrGwLbG1+q7pvijpWpZQEguccDVPfu57fgS1TCqdEGQNGOHTs2qhlQwpeqTHJYMEuD+WBwMKZQY159asPqk1bvvUueL1X/MNmyXOr9gC1POe8FuUAAAABAW4gDYCHKaViD9wLNauTDr8fKRkUAmpoYVPSNCTY+IY18YAbp1yH/UOlm0QYAmvD//t//0//svcPaZjJpMDGm2ROHOJEyFzY7UPBnprqkIOM74lm5Vw2G1hoD8yrtQ2V8eNppF5V2auQCAQAAAG0hDoCajB0iDIO7E0LF99WDsZ2apXVyAEhK3Sv8M4KaigAY8wJxh9SvALMvzI44AAAAANAW4gAonZ6VSxBgFDkf6Ciqk8bor1rG1OaAv+l3m7BJM6tbEpXBMw5yTLAQ4vTTT3ds9uKLL+p/ujcepaIP0oIV+y7QBkAd1FpXEo0BZFBF5caYT2PGkiyGbDyH3WTW67V8oXHLWjz/L4tsFDWVETQoYqVfV2zVUym/hAEqOilygQAAAIC2EAdAZYgA+Nu2bZtKB3rppZdEZ4ZQfxV1bEQ3+8A1/4vfm8GlniRKkEfYxPntaCECcPrppxvpPUCBaAOgMirCLufwhqfg2j/mMr3dZZt1m8aAW6x7S9h4AGl5yySpq9FILtCo9B7VYEiUFFSIhX2ku6o7QXKBAAAAgLYQBwCAATkHB2foSfJcJXoZuifreaZh6wT3HjFMdRMECSEOHz5si3u0kBkV3IsfMXeozA9MmaUCcQAAAACgLcQBgMVSA4IZDFCFebvKKhotoIdlAi5a5ilfp4wKqMiRI0dEA6fp9uKLL04JBRi76j45qMzu9jJLBUEbAPWSFVxGBiOD1PVFfiN92IY4JzLx3rJ9+/ajR4/GKkzJZO3f37JHA4fV3VXjIezlhVveAPfFIBcIAAAAaAtxANSKCICDygJCFBXlySxJ7X2H27dvF0LIaIDq/B6bLVN4H+qRI0fGzvXZyNygo6iOfz0asBglf4Anqv3UaAOgMnKajtq/eIBS2od59jXRVDFS79/nNI8dOxa8LmFvLpBj5hybMicIMlKA3Cel1/gbHzPgY2G5QCgWuUAAAABAW4gDoDKsE+xGFlAGsSaWKa1nV9ELljMmUOwFCeA4l7EzBRV1WUZ1//ciCyi6oj4horzyRLeYEyQOAAAAALSFOAAA+IrY/bOYnqRgzV6BGscDTOz+t21PTGAZ2vkuL+xMaQOgSiQCeWJ1sHR8BpX2Zg3V9StiK21wjlA5p++T09XsrcY26z8jeqGU811ObalnSi4QAAAA0BbiAKjJtm3bGPPqJrstuUp52DqSjecX2Yekr5kw1xjiwslJRdU0BsrYMcFS3IygsYv7ikgRAONLsXPnzkOHDk3fbTkamdZzkfe0BtEGABZFr/2TCJSHSgoyfhcb+Zms/azdC8AVslqCMrhkmKzc79ixw3jGX9JsH3U9i7qqEanlvRI1Bub9flX37Q5j3BMWfNbkAgEAAABtIQ6A0hlj8podoufDSAF66aWXCAXkseCOogaV+W6qDCKffv2AVJ/Ultrxn5oKLAghTj/99Ll6psv8UmAi4gAAAABAW4gDoHR63zZBAACJ5Onp3Llz56iDGjPoT59Q30j3DxugPJYjCCAvyDJGBk8ZA2D097v3qYaFLD5hfV6Lv7C0AYDFIhEImN327duFEEePHpV/qsquZ7V7c3NzSr1/8CiFzPevmkbLaAwE0Ov6L774ovqzt22g6qZ5KqmLrwo3i1wgAAAAoC3EAVCT48ePkw4EIJuXXnpJTvMfbHCh5cFO1kK66sP4DwVeQARg+sSgcg+DuUBIpLWIB20AVEYND6Ax0KXWUCMLCIgiw1eJlG5pSQMDAug5P3oukG2b17zmNUnL09QHsqmT1ZELBAAAALSFOACqRBAAQB7Hjh0TQkzMCOqyDQ4mLFC1WKk73aSgnBr5+DVymg7EAQAAAIC2EAcAAGA2vTP0qwngUbhEXfVEAFJY9tkFoA2AypAF5KAGTL/00kuCkcFADFG+R69+9atlTpGNsQjAzp07VVIQ2UGlee1rXysfpJunXx/+m9NSP2zLO6MoyAUCAAAA2kIbADUhCABgFu5e/OjUiGE1v/7qZDkLEyasnDt37lRrBhdr37590fd5+umnsxRAIgQBbMgFAhaILCAgronfqYAmhDFTvlEz9l9irEY7d+6sYqGAiMM2xib//P73vxexVwlY3mdpeWcUF3EAAAAAoC3EAQAAqNVSB3GWTI0JjkgmAvlHA1KvE4wWEAcAAAAA2kIcAACAtLZv33706NEpe5D58eWPl41FnmlpowJUBEAOC37ta18r4zD79+8XMSb1V3tQAQHZ3y+z/6Nbdvho2WcXBW0AlI65gEZhNDBQoFjVkUOHDvU2A5a3plhptX+DkQ50xhlniKiVTtkYUDs0WgIkAtks7FuQGrlAAAAAQFuIAwCLwgrBABagzFwgm7hTtRqJQF2///3vCQVgOuIAAAAAQFuIA6B0x48fF4wKGCKvEoBibd++XT6YODjYhklCk7LNByoveNzL/prXvMYYBBx9TDCfEwjaACgftf9RyAICUnjppZde/epXz12KYQtrCdSyYHB0RqqP+jNKY2AxHw9MRC4QAAAA0BbiACgRff9hCAIAifDlQi+5MoA0fX0AZbC/X24wdmTwYiIA8kSModjqT3giDoASkd0OoChyxq1azF4ZilWANhOBfLzmNa9pbWqgtcZ4Zt6C1Ys2AAAAANAWcoGAihkBk5deeomMBaBMEZcKFiemz1+8QsYE2yYFmmi9XtsCJr19/KwT7EZAYCziAAAAAEBbiAMAFVODp2VAgCAAACnuyrUzqmvB4EHG2zE4mFUf+zul+7+uj0Fdpa0XbQCUhRmBACzYsWPHouzn0KFDnulAta8YMG/t3zMLyHNGINu7MPjuhM0CBLiRCwQAAAC0hTYAynL8hLkLguTWQ+YuIBBfxMWGDx065N9HvlqtZp8wNMzOnTtLGwC9b98++WC9Xp9xxhlnnHGGbcu49zQ1JjjKasEAuUAoERlBo6gmU/nzAo36FVQbV1p3AUqzWq1St64X9m1V1X2ZFKT+9DR9VIae/6NX/RecHUQHUDbEAQAAAIC2EAdAWYgAoIt14AGbscsFLGa+oFmERQOmXGoj7WfZWUB8JjMjDgAAAAC0hTgAyqJS2wkI+Nu2bVvh6wNE6d1xrKkJpPPSSy+JeGN5Y80NavCfKlSpa87QeVcJMGYI7U4YaruY0y+vzPhfWPd/LZ+6xaMNAFSv8GmUIt7uSQpCfrGa1olq/xPFbQmk/m7u3LkzZzPAc3EA+KP2XxRygQAAAIC2EAcAKtZOBACYS6xcILWHAgMCDBS2MeYGlXJepSlZQKW9m6WVp3AZLhdtAJQo/2CASpNM5IUqsCWQ9ObFugFAIhkWECjcYOq/6LtKKUYCSLb1AerS+Idq0FzXh1wgAAAAoC3EAdA0d19ORd3MhcwIlLkzo9LoDeoiv1zHjh2LMjVQgYlAhrBRwtm+hqknCDLm/u+NA2S70dXb8Q9/MwZJiAMAAAAAbaENgBJlSHBfr9eDjW9SGKvA2wQohw4ditJHvjpB/Tl9nzXad8LYF+pXL5g+GKDX73//ez1WsD7ZxKMjtdnfJnKBUCjZDIg1OPj/t3f3ynEcVwOGByrqAlwAVWXmXJBKRNigSokCBw51r65y5kQBE32SSJCJCCwsh1IVsFu6ALK8Dvpjszl/29PTv+e8T7RcAouZ2Zme6XNOdwdfZpUPP61qaTBuOZDNlPHEWiwsukTlMXU2fYn0Kn/cR3/z+unTp5k3aekaYW0t/aZZDd8ReQAAAABAF/IAqNTKDEANPWxkw+BgwPXbb7+ZsbMRudfX4XAQdrmNjv398ssvA6qAirC3vArvfRVuEgz6AJBGYXOz2+3KlgNVcszlPZdAkswzApnSoOg9AaP4hfbo0aOItU+jHQBPpvW7vr42/3zy5In7PjBUz7lBLRAAAACgC3kAiJKue11ztUnBJEA98QwgqbOzs91ut+YTzGDi+tcHkM2E/G2Fz9EMgP35+dHANvwPzKjtjkkeAAAAANCFPACEqK17rQHHHPBHBqAIG8jvhfwXjQHIPyUoZKi5gqCjD4A6xVoWILp6rueyKwNU+/RfzxcEeVZebtQCFbSmAzAjW0u4dJWAUqq9NZRV7WGhFggAAADQhTwAarEm9p+5k11wDkoT/u+qWRsYgCcyAPmtj/dXFcE12QAgFvIAaNvhcCjSRhf5u7YD0HXdbrdbOUuJYKXOCmhwd3fX0NN8xEn0kcHNzY1nwY//TwJT6AMAAAAAulALhFqYIHe1o4FHZS4KevjwoZsKKKKh+DrLBqMqjAnOKcqo35nmLmlLOAzwD8cEV1gX1NDdIY/6Dwh5AAAAAEAX8gCoQkD4v/4eNgB5TDh/za+TCsjArAQcaw7Q4qZK/+37m80m4+Z8xI24afQB0CTanSLzAnHYAfMEH9wTyN8BMMOCHz16lPnvlhX89F+qlQsb4Gsrgmica2AXqGnl66AWCAAAANCFPADKaGvs7wwWpgUAZNbLG2SuBWolzo155AFQxv39vTvFjed0N4cPkm1XG/IXAjV62BvdbAi2cjgBPP3yyy9mSEAiJycncUM/5+fnFU7108MteFTvsDR0fOgDAAAAALpQC4SSis92H0u2iqAiQ4Fbx0IBiMJdmfvu7i4sop9/TLC20cBAOg3F+H2QBwAAAAB0IQ+AMpaOCRbW+Q5mIpFkAwB4Ejk3qNmpo3755RczSah9kQc3LKlMSlnM90sfAGWYKiCfnoD5SZ56DZYFCOPuAnVBQLs8n/6t+ZHBvaXE/Nu66K1i2PoA2Qi4C0Qh7DhQCwQAAADoQh4AuYlZGWAow9jTzLVAwmIeaJo9G+evsuFJG+uqNNedOzI4QG8kcbYhwiIrghaZSQgsrRQS3zCK38Ew8g4LfQDk5l8F1HXd4XBoqwoo9QRBbR2NOlU+TdCa20zN+7XUzHFYeojiXpVRegLWF198kX+mIAyZHsLTp0/XfMj19bV5ETDTv/kVc65ut9ulvy6sTh15UAsEAAAA6EIfAGhGzuUUWAwyv/XH/DAr1nYmknpr13/ybrez4X8ycsI8ffp0Pgmw6ORcOcB3s9ks+vnz8/NYV00TbUVmrTShAegDAAAAALowHgBl2FEBNrYteKwwapNtXWcf2cJLVe21lT+61vuL/gekF/u3dfxhCwb3PgRruCN65ycDDZPtLDVno38aYWnGYJ7IUHcYJYeCPgBKcotbeoUupNpdmRdJUNL8ec4zI0w9e13JaRbcNYo7TVDmzsBvv/3W4hxBU4sDuBP72EXB8m1WPP4XRcCw4yh/VzCFB4FaIAAAAEAX8gBAfIlmn9ztdqRHUgguDon4R/MrmBAovu9Dlc8YG12LSYAZqWuBAph6nmG03s072bMu4IpwZxFdUxFU4cWIbOgDoCR3DIBbC8STbincD7qUj4OaD6/UfT87O3PLePzHBhQZCTBVS9NV3yuY2fKeXi3Q1OJfbldhZkag4PPWfS4ffoh9Z+V1EXc8gHInJydSm6kp1AIBAAAAupAHQBk2A2AnCDLv5JwCHz3aQiAzRg+FTQ74jyJt4pCmKwpqYvetsoODMcUnA+COCTYB/qnwv/sz1tu3b3upgPWn7pqrabPZBCwVjJXaaq+iIA8AAAAA6EIeAGXY8H/vfUYCjOKw1KAXJZIXNIq1gEDTRyZ4NEjrF6kJt1c+KsCHzwCARJ48eRKr0P+o9aOBAfoAyM2t+XErf5p+bmgdBx9WQGkQ50/3oRZozXphNegV3jx69KhU3+BoCdB8tc+QqfZ5+/bt1H9FYacDCpvwx78EaPTp3/66Z9+AK1f5EaAWCAAAANCFPACyssU/vSogeX3xWGUVQCnyrkpPnhevCfyfnZ2FjQbuZQyKTBXqL/O6wj7jgN3zM6CljRj7nxE8/X8YSoM8qW3ceugDIKv7+/vhGADMMOVSiUqNaQeBMO6CfSvnBar86d9KWhTkP/1/aitbxeGiYJm51URTXQK1Lb/aHZ9CLRAAAACgC3kAFEa/vAgOOzBvviLIlgD1cnR3d3dRhgX/8MMP33zzjX1t33/37t3oz3/77bfr/+jQMDxv32llBqFFbV2ihtFnAdpFCwJMBfhnPoQ2H0PkAQAAAABdyAMACdU5MpiAEODp6HIB65cHNnmDu7u7n3/+2b75/v37Fy9ezPzW+/fvHzz4eAe3PzxMCJg0gs0qLPrfGbGGB0QZCTD1NQ3butGhwKmbxBSf77k+AK29wXEYRR8AmYwOBeaynHd/f9/6wkOAVPbaXN8NCOB2AAz36d/tP5jyIfNO9JKhlfMFrekAmJn+h8/0YbeVKBP4XF9fmxd2ZHCie1yv5me73TIj0CieMeZRCwQAAADoQh4AOTAfaJiHDx/GnRuUoAiwlGdFX/BFauYGffPmjQnYv3//vvcD5v3PP/98/nNMpN/8uv2QXrpgvr4ozFQs380P1DP155QobeP5+blZJzhAL5DvOUR4/se22+3jx4/DtkcA7ndHkQcAAAAAdCEPgBxYGmwpE/7vyAAAdYs1GODdu3fDDEDXdZ9//rnJA0zNCjrFZgDMx/7tb3/ruu7Fixe9IQEpMgNG6th/byRAJU1clDXCFs0TGvwrglVyMtSPPgByoAOwlDli9/f3o3OQe6IdBGLpzTzjPvqnHrhvqoAW9QGGI4bts76ZCOjdu3dHi4v0sN9scJu5vrEdfYgPKxDSjLveItQCAQAAALqc/HH/+58e/rn0ZkC+XipAVWc9YH2AKLVAqg4ykNqiC/mzz5aF2O7u7myE3n3f1gJ5MpU/vUKgbiwz0MsDBCwRkN/o7P5RrGwth78e9oFHZ/1fmgpQNSZY3i3v3//+d7oP//5f/6AWCKlQ/xPMdgC6DyUHS3sC8ppCoDh3giBbCzR1bd7d3ZnFv/yNPusvHQZgDIcW9DoD0RcKaF2U9QHWfyDT/KPLeAenFggAAADQhTwAciNEDUCA6EOBpxb69TE6p9CM4QRBdRoW/0wtD7xGirtSJXe629vbTm5FUCUHuV3kAQAAAABdyAMgCQYDuHqzCib9Qxn+CoDu2Fids7MzswDw0lEBSy3NAFj//Oc/u6777rvvom5OcrEyALFay9HPSdcUmwED9p5ixxBPjRUmA9CQ/DtFHwBJsCjYGg8fPlw6L5DIBhGols+FmXrdgDDukmGaRR8EbCRtiu2H397emod7+4hv+gYsINCoUndwaoEAAAAAXcgDICvC1T6Wzg3KUQWycWcInWcu3qO1QKZkKB23WOjvf/970r+V2tu3b4NrgXpfXKPNphnj677o9M0o2uh3VyH6AEBF3Kd/HzSFgGy9lbzClgvo2n/6t8y8QN2xgQGmbby+vn7y5Mnw/Z7hj3m6vr4+Pz8P+MWl5pv67XY7Vfff9LxASm5wBXeTWiAAAABAF/IAyERJhz7YogwABxMoy64TbA0L9ioZE1x5BsAE4K+vr0ff73n69KnNA4wuFGDbRvuB5sVUmH/4d6e4P2lj/+mSAGZ0r3/83i0NcrWVAdB2ayu+v+QBAAAAAF3IAyCmqflAi3d222VCiRxAoE5Hg/1hqwS8f//+wYP/v0GbF3Zor3nx4MGDmZUB7K8Hrx6QyJMnT9yAug3Pn5+fjw6znmr67C+abIAb5p8P/C9lN8CE/G9ubnx+eKWZKT5NXH8q6t8u7nFF0AcA6nV6ekrLCFTo9PTUc+G/sIqg4fz9P/zwQ/fpEOGZp3zbf6iHfSgffTpfuYqiO6jXPKx7tpy2mGfpzyflrvkl73F/SOdtroa9phYIAAAA0KW6UAGaNhzYWsmouOLm5xRfOiUogFZ4rhJw1DfffDP6/vfff98NAv82OVBqQLCt+Zka8rvmk7tBiU5XOqqa6K+vTI/UPyC4hli4ZvQBkJbPElew4yjoDADamO5BwEphpjrIrBjQW0agBm7Nj0fsrKIAABTASURBVE91ftNreJnNrm2bb29va+4G1Ha4Mqhtl6kFAgAAAHQhDwDUa7/fn56elt4KAMl98cUXS1MBpjroxYsXXdc9ePDApAJMWqDCMcHzbHy0tkBpKZvNpvQmJKTnW658T8kDAAAAALo0FioAGhU2tIskAFCt+YH+AcIGBnz77bexNiCuuPP0a2PmBt1sNiYhYE42DfOEIif6AEiFccCLMBoYUC5gWHC1/CcCqrxYwlPcvXDXCJtZLwxYiVogAAAAQBfyAEjLzA3akRYAoJiNE8/UDrlrCEjKCchWeR7DlA9VMkNo5ccquvr39+SP+9//9PDPpTcD8tEH6GZv/6O1QIwHAOrnMyRg6mdmfpduAIB0vv/XP6gFAgAAAHShFghJ9KL+u93OFgUpZ5cEnnmf8cGAMPf396PX/uFwiDizEDCqbC2QPcnrr40JlmjXfv311xQfa5EHAAAAAHQhD4Akdrudmwo4OzsjD+CDDACgjc9w4eZ4LgvQemA49favnxiU0cDpCLhy6QMAiC/68klAtTzPdtPDn6oG9P+cJtj1AUxnwC15Evk4GFfENQGqmhdIqnZPaWqBAAAAAF3IAyAVt/iHiUGXamtW0KkoiIBUKRCFfz2kuWrElAXaRkBSliOd+QzAZrMZ/YHNZjP/Cbe3t6QCImo38N9DHwBp2ad/5d0AzzqB5ng2hdz+AdMGTk0QpISYh6c87EO/fco3L3qH0f2n+6xf/NFf3tctbI+oBQIAAAB0YZ1gpKI88G+Y7L97KOZj4TYb0EQtUEBEhFQApPI/tz1/stHc4Kjz8/PSmxBZ0njwdrt1y3tS/7mIbMq3lQ0Ok23vkq4PwDrBAAAAgDqMB0Badhic5rTAbrczFcBHS4GbCP93K6IgDAyAVJ7ntm0N0KI8AWA3CdBQQL03/lskYbtGHwBIYmoOEDe/P3wU2O/3CbcJQAUkFfl4urm5abQcqOwzX/1PnPVvYUTydpZaIAAAAEAX8gBADqORv2zhwIglRikCIZQGQQyfk9lzoQBhal4n2F3JpIbNq2EbYAn+OugDIC21wwDMjofd7KsdFZCoKTwcDnQDIMPRk1lPB6BX/FPVg9TRZQ0T/cVeR6iSLgd67FUs/tuhFggAAADQhTwAgONSh0OYLwgQ5ubmxr6uYUBwwZju1IQ54sPMzdEwtZGLPAAAAACgC3kAoCJ1jgTIFhEhGwABpk5j2SMBTKS/eOy/nvBtPVuCo9R+WfQBkIp7w1M7Mngpsz5AnT2BbBgiDLQuQwdA7XNbPQR8BQJ2YQ1qgQAAAABdyAMgFWL/AWrLAJSKkVAUBFRuWPzTpQ//txK1bWU7g4nfQSXoAyAJOgDGmlUCyqqhiXcX7im7JcBSskva7LN+uof+Gpogf21tbTAlu6kHtUAAAACALuQBEJmNfJMKWKS2KqCqUBqEFvXO23azgkkRWkZ+nHUGeQAAAABAF/oASIIkQNPqjJHUuVXAIrSNxuGD0hsCL5K+LDE7sh61QFiLW9oMz7w/hUCeGCUMlLV0ELDU5y2p+2WJ3EGRO7UGeQAAAABAF/IAiMMEvMkJ9NgDMpoQqDD830qYhFHCaMXwXHXbyYaGCCvPAAjbHW34+kbRB+j7y1/+Mvr+8AS6urpKvzlYbPRSL/uwOHWb3+/35kWFnYEm0BNA687OzlrpBpjlwFKvAgYgG2qBAAAAAF305gGm4v0IU7YKiDRfFI0eRgYKS9U7Ifl+G9JoYwKRX5zInYqCPAAAAACgi948wKtXr1amAi4uLswL5QMD3GLWbNmApaHfw+FQJIjYSqWvjDBJo2HjgIPfyq7NW7rjDP+ogRkV0E0PDJDRmFjCdqdH9t7hKL19AOvVq1fuP6kRaot/E5b5AYKn/+Kmdq34Q+T6Y+5+QvHdCbDmCJTqz6/U6GYvJaw9EbY7LsG7ZmnYx5WoBQIAAAB0IQ/gG/jvhXBsUIeOZubRwCsPeLZsQO+wzKcF9vt9kelBdZ69BccQpzjgDQWYY+3+/OdUezSmGh/TVrSSORwSWaMltW0UuV8idyoP1X2ANS2XsPauZk0/NrV7X9cg22mQ+hZV7cxIRe7N1R6NefPrCSKPhnrUYcTELgXsQg2oBQIAAAB0UZ0HMMR0i0VK972kHlVJMK8JPidYwOlRqj2pYaxwPW1powmBRtXzvQdwN77pHTlKzN65F7WYncqPPAAAAACgC3mA7r///W+3IlCkfHGA7kPAO/rIYHr2SXF4/fnnCqo6qvmj4FXtvquqQatHK85bHyLcopOTk95JUu3JvJSYHRllvzXZu5mO6j6A+/jOsgCV4EpGi2o+b1N3Bmred1c9PQGfLTk7O6MbkFMNJ0YKFYYnotBTvpUUtUAAAACALqrzAEtJ7U9XouCBFT8fXA/nsE7D73247MnwzflPaE4rFztJgMzqSRMB2ZAHAAAAAHQhD9BdXFyE/eKrV6/ibkmjMq8TnAhBICg0GtcXEOyf18ScoSwZlkfvbBd/8jeK7yUR+gAfRwYzLLigSq7wUnUCp6en+f8ooFwNyym0rpKmG6MEfDsCdqFm1AIBAAAAupAH+MjU9sxkA+iPwpN/+j5zBoBzGBiVMwe43++7D9f+zB+tuQro/Py89cak9e2f1/retb79rSAPgLV2u13N96qlDofD+tbHc4xEzg5AlP0CsJLpAJgX9vWQpEa1BoeB0luUhOy9Q3T0AQAAAABdqAXqG872w1jheSvnBaozYiFsmqA6DzKgymjUf7fbtTi12s3NzWazKb0V+IhGHgHIAwAAAAC6kAcYMR/4Z1mAHlO3GhbKqjZ0EZYBqLCEt9ojDNRGWPYPBm0gMEVvH+Di4sK09XY6INtSuE2GXT0AU1pMZB+V+mkgz2hgbn5Abey1b0uDbOygrbZ0u912XUdFUA2ENfXCdqdm1AIBAAAAuujNA1xdXfVqfkzQt7eMfC9dAEThThAOoB7pFgpYdL2fnZ1VWFvYHPERZTE7KGZH2qKiDzBf3z/8X1P/Y96nFigRLvikOLxAMAYG+GiiCujk5ERqYyh1v5ATtUAAAACALiryAHbUb9d1h8PBhPZtkc+Q/Unzz4uLC/OCnEAUgqMX7pC+0Tx+huIfwYcXyIlsgAC0h5XjCyqLPAAAAACgi4o8gGGyARcXFzauP9UBdd+3P2xfkw1Yo61Of8TRgUwGCrQowxBhUg1x0QwCnhT1AYyrqyv3sX7+J1NvDOoXVg8wLARiIiCgUSuLguw6AMbRRoDpgNYQ3wGQtIOS9qVR1AIBAAAAuqjLA/ij8gcBSsXwCKgAkrA+AOThPlUb+gBHXFxc0A2IgosfQLuCBwYsrQB0pxeDPw23GA37iJzfMrVAAAAAgC7q8gCeA4IBAHAlWjGAhQgA5UpleMgDAAAAALqoywMAAdLNER4FRaJA64aNzOjAgHoGCm+3267rNptN2c1Q0vo1vZtNb7xs9AGwlrknzY9jE9AErMzXszIAIEOp0p16nv4rIeC24qPp3Wx64zWgFggAAADQRVEegNHAiYjPAABAdKwdHkbVEGpuoBoU/JYV9QHsNP90BuLyqQXSwxyHXtae2zwgzJoxQubpf/Qzu+mn29G2RS3ZD8cN7d3oSdvQ9pdV/EBRCwQAAADooigPYJmEANmAWFRlAI6mockAAPCxtHGoMwOw3W6LTw0kSfHAcBh7Z2x0+4uo4ViRBwAAAAB00ZgHIAMQ19R4gBr6uIkMS4FLhegEH2SgcsGDU3sZAM/BwYwHkK2txnx0a9vahSJqO0Qa+wCIS1Ut0BRuz4BOwYOD7aN/7+l/qmtRZ/OSuRCotkeoWNrar7a2FjOoBQIAAAB0UZQHePbsmXkx1YUdjeXYGUUxpVcLpGTyZs/dZApwAKOmmgXbaDTRim63W/MiekJASbBZyW6iTor6AK9fvzYvbGfAvNPrG/Sa3YuLC7oBAWjXDHOb3+/30bsBHGFANiXxlFHi2zfxO4gmUAsEAAAA6KIoD2DYqH/vdeeEW9zoC0kArEctECBY3ID9cIiw+eRqJx6IVQVEaLx+fEfCkAcAAAAAdFHUB3j27Jkb+D/5lPuT7ju9XAHmaQsSeO6vGeQHAAEOjtLbMmK73dqRwQBch0+V3pw+RbVAvRHA3bEHOPO/diQxsIib0GdAMACp1tQCKWzKFO6yNg19xYryAAAAAAA6VXmAHjvQyvbY7Au3NKg3kSimmJFqDH613JUBIs4N2lCAAUBE1ZYUmkIg/2yA5kas3X1vd8tzau4okQdAZPv9vtp7VTp1lvoByIZGwIfOQ9TuXnNWy0YfAAAAANBFby3QDLfXSwnQIjYDkGJl3Art93szaffMD3SUSAFq2CpT9GgLJ/f2t9Hd52T21Oj3Sx4AAAAA0EVRHmA40/98v40MAI46PT2dOotSxP4bjTQAWKOJEVbzI4NpuxrFFyeboj6AP57+19NZ/ZJur2mIAbXs9GKlN8RLr7HSWUzSeovd+vanJub4UAsEAAAA6KIoD9BbDQCIzgbqdKZBACg3vMNqu+dq219thH2/ivoAPa9fvx6OEOgoBMIKjAEAYK7ZiDUwTVQBPX78uPQmlCeguRawC/BHLRAAAACgi6I+wNXV1dXVlfvO69evh1H/0eQAlmoicFU/QjIAUD/W00WLFPUBAAAAAHSqxgP0AvxT8X7GA6ykfDgsCwMD6FgwWA0Z4X8Ze5GavKN08sf97396+OewX37+/Ll58dNPP8XbpHzoBqSj9iE41tRA8toaQKeVPYH9ft/W+gDaBgfLaKtl7EU6pY7Pf/7zn3Qf/v2//kEtEAAAAKBLhFqg5tKdhP+TUpsB6NoJ1AFoheYWtWZiAudidgQBjvcBbMHPlN4J9Pz585pLg2am/TH/RU9gDW5XUdAoA2J4Lhdga35QMxpnVcR/3dQCAQAAALrEmRfo66+/nvmn6UgVTA4smvL/2bNnpAIWIXbVxRsKDECno01HWyODgXaJD/9b5AEAAAAAXebyAEdHAhhHyxzLDg/46quvCv51wQh4u2KF6PSEHwBVlCwXIHhiUJGNs8idCqbwaESoBTratPX6EjWPGO4YE7wQ49gM+/Q/ukYYRwmA5+BgIB2Fj7k+1B4WaoEAAAAAXcbzAJ5VQJWjCiip0YC3QgzRC9ALuhAZhR7DzLltS2lUgZzUhv+tj32Ay8tL82Ll/dht4EaPb7YFBN68edMtnBQIS1Hl4oNDZEw1uPZ9OgPQoFcUNCwdHL5p2a4CcuJhURi+UINaIAAAAECXkVqgldMXzPwuo4FFIn8dheywhOfeUSMEGDbFSq4VUci+xXjiIPSQBwAAAAB0ibNOsFvdaNMI9LeggbsyAOG6uBgnALTl9vZW2BIBPMnIwPc4arwPsHQaY/cn7euTk5PeQTfTDdVZEUQhUDDlD77u+Dz7WvkxiW6q+T7aRvWasvnbAD0N5HT0PttbdcSgbcmp9QfH1rc/ImLTo6gFAgAAAHT5mAdYMxR4NJ7x448/uv/MNiUogOLyhFuGY4hH/67/iGRSASjILSyc+t+jP4Y1xMSJxexIFByNKeQBAAAAAF0edF3317/+1fxjtHb2aGDMM7qfOQnA0mB5UJyKoVJBl/V/9+go5EVjpYbbQ54BRw3D/KPNLIuFxSUjVCxjL5DNZ13XvXz58uXLl/YtGecQY3xR0NJ7s4yLTpLDhPn/Hf3h4cfa1/n2B61xn/v3n7JvFto0gbgYpZpqimFQCwQAAADosmpu0CbG+E4NE7TIGAArEWhZpJcKoEBIs4CR6GQA1qPJ0oBv+aiQNcKaePTvPO6vPP2vxzr2ytHIrsdSaEBq4lsq8TuIFKgFAgAAAHQ5ngdot3P55s0b88KdI4jYf3QmMU02wFB1HNptHOpEaRCOsi1MtRVBt7e3Xdc9fvy41AbIbpd6aUPZO4vUyAMAAAAAunzMA7x8+dIuFNBju5uNBqhM7J8VA5LSmQ1YH4ojioOe1ocHtHunKGUq/6OtOcUi3DtmcHA8Ha8Fsg2TffH8+fOunZHBFlVASXG7UoUWNgP/JcZKFRFNnQaj79MxmCes73R7e1ukHEhq0yR1v+LiKC1FLRAAAACgy3gewCca8fz58+ZSAUBVWgxatLjNYswf/Kn/jRVdXvnVt17jlNlw2uVeveXp6Wmdw4ILjgbuPFYEgkh86WE+6QO8fPmy67qpUQE9dADgsncjc4vSuW6Awl1G/Wq7O/a2hy6B5dZ00ZgEY8Icbfiug1ELBAAAAOgy0gfwjMqYkcG9d4ZvQifxQaz9fj9MxPun5g+HA6ELoPtwLXA5HHV6eiq+XV2P0wnwRx4AAAAA0OWT8QCXl5fuP/3LNAn/gwCVBkTXgNT8Z3p1W906xwcDSXFLWmlufYCjLdHoo799k0HDqvTGBGMKbRYwirHCa9QzTdDt7W1XenYgAD6oBQIAAAB0+SQPsHJGLQL/6AaTWMPVbhKg3S1Ho4Stm5uNnZ259IZkJbiBErxrwTgmsXzSB7AP8Z71/aUWqEfNhD3906XpaHBRiOZbTOtdIFMR1MUrCqIVAqKjFggAAADQ5ZM8wNLpfWyUgiogiGTz6f7LHk/lDRoNYjW62ZDEnoRNx8UzcJudeoYIIwANbw8HJBHyAAAAAIAujAdAZKPBJxuUaquwPmBr29rBGcRdUBttCYGm77AR5wbV0BZp2EdUaHx9ANMZmO8JcMpiETEPx52COTe4ulGzph+OsYjstkj23kXBIUqKWiAAAABAl+PrBHce6wa4GQM7oxkDhZUTPE31zHi70ZKnhiIZDW0qlGNd4ToxGeg8qfuFFs31AX7++eeu6y4vL6d+YHReoMvLS05x2IdgSSVAlsiODdA0ugSuFtsonhxgcTLkQS0QAAAAoMvxPoDJBsw4HA6Xl5c2XUDvTbnT01ORsX9Pvd0/HA4NXRENbSowT8zJLGZHgBmHT5XeHC3IAwAAAAC6zI0HsKb6ZL33bSrgaOoAaNrUmOB2EyDEXSCPmClEA3aEdYLREG5ApXj1Aey8QG4b5P7TfH88+itkn3pbXAIMHY0vpNO2spjRXAdASUOkZDfRCmqBAAAAAF1O/rj/vfQ2AAAAAMjk9dX//Q8GgKVzYAH8oQAAAABJRU5ErkJggg==;" vertex="1" parent="1">
          <mxGeometry x="980" y="190" width="160.15" height="120" as="geometry" />
        </mxCell>
        <mxCell id="lHLvW-LTFp40BhWTVn9L-30" style="edgeStyle=orthogonalEdgeStyle;rounded=0;orthogonalLoop=1;jettySize=auto;html=1;" edge="1" parent="1" source="lHLvW-LTFp40BhWTVn9L-3" target="lHLvW-LTFp40BhWTVn9L-7">
          <mxGeometry relative="1" as="geometry" />
        </mxCell>
        <mxCell id="lHLvW-LTFp40BhWTVn9L-3" value="" style="rounded=1;whiteSpace=wrap;html=1;fillColor=none;" vertex="1" parent="1">
          <mxGeometry x="940.08" y="170" width="239.92" height="190" as="geometry" />
        </mxCell>
        <mxCell id="lHLvW-LTFp40BhWTVn9L-4" value="Depth image" style="text;html=1;strokeColor=none;fillColor=none;align=center;verticalAlign=middle;whiteSpace=wrap;rounded=0;" vertex="1" parent="1">
          <mxGeometry x="1020.08" y="320" width="80" height="30" as="geometry" />
        </mxCell>
        <mxCell id="lHLvW-LTFp40BhWTVn9L-5" value="" style="shape=image;verticalLabelPosition=bottom;labelBackgroundColor=#ffffff;verticalAlign=top;aspect=fixed;imageAspect=0;image=data:image/png,iVBORw0KGgoAAAANSUhEUgAAA/4AAAL8CAIAAADWQfklAAAACXBIWXMAAA7EAAAOxAGVKw4bAAAgAElEQVR4nOzde9glRZ3g+TxvIaCU2ApV1EuVu8/M7MwK2KPdIqC2onIHUURQQUAuw23QgR3GnmfHeXr32We6Z0cHR0Z5sGC4CYIXtBXk7g0vtFC2szZUFdLb7vRjFbxVJV4AkVu97/4REh1EZkRGRkZERmR+P3/Uc+q8eTIj85yTJ/KXv/jFrAIAAAntt99+9gWWlpY6Pe+iz2sjidqkqe3v4JsbcKN1S0tLs9lMPg675oBrs3jggQcirXku0noBAAAAZGWHoRsAAAAmJ5PwcEDaHsmoc+NfxypSrN1bJs3ICl1/AAA8HXXUUVVV3XLLLQm2VW4nptyWd6L19aWJ7H4m5NGOdNjr73Jx7y8JPwAAAMAkNF+hAnB3yCGHVFV11113Dd0QACmISH8jEf4/6qijtPsA+++/v3jgGCBsXKxncHGo2GSC7WYedp3acNsRf9JSbpdhvgAAAAB6IeoP+BPxfg3hf6hWr14tHmzevLl1MfsyGJAl0t+oMft///33Txn1HzwWnqwBg++pHTU9x92G4qL+DPMF/IlePgk/aCQ7/fX/bt68Wfurtoy8BmhcrOIiIbKjjz66Cjde8IADDgjSOZjNZjl0sFykaafYimlwLSZi2B5/8I9fgt0h4QcAAACYBKL+QDcHH3zwN77xjfrzMvnnrrvuUu8DHHLIIdwQGIeuOTnqkqbgvQfi/cEdffTRN998c/V8sL/OI9yuJgjJ5J/WSXyDKOXOQB/qPua2vxMcXzugCe5yf9wmA1xpmf3qPOF2dP0L0rWPLlN3WlN0YuOSwIWpc9+o3qvo2s/QMv67dv27NiCfblDsluSzp3XT7PqPLM9+wE3L1a5fvz7G+isSfgAAAICJIOEHAPxD9fKFQwX7J0JG69WhdeowXNN8uu94xzvk48HHgxY0ThdoNeyHma+SN6L+AAAAwCSQ6w90JpL+tZCDJaBIrn8Rwobttcz7xPcERpb3b0rQr4f9vv71r1cvjPSrukb9++f6i+UfffTRrmswLdb1+aFMMNdfjv4aX/b54NvKYbt1MVqirjNerj8JP0C7gw8+uKoqUdjnoIMO6vqFF5cK9W7HnXfeGaiBCEB0lyP10bVC/qa6/qHUVy73Lturgne+851VVd10003qk7LTLyrwVC+8DJDfqaWlJdHpd2T6CrdeG6hbdNmQWP7ee+8V/91///1dm9gkn07P4AbvZDeiNxzVuHcz5d6R8AMAAABMAgk/QDsR9W/lHjKszJf4ZAcNq2cwvjWmrs3XSyVQ4V3vepf4RviFvjrF4GOsWVtebkjci9hvv/263i5oXKyUbJ8q7Wy+Axq8AQO2IfF2czjUqtiVPSsSfoCsNP6Ku/T7RYbPYYcdpr2c7n5Apom30nSyZUaN+sC0ZIL2mGjNG/BK4F3velcV7ne0/jXU+uLyyfozARugrfy+++6LNJnXRPpDg2wFJhz/0pHwAwAAAEwCCT9AOy3hxy/qT2g/DRnGptC+RX3Ycc8VNg7SVf9q+lOjTnPu2pmi/qblXbLyWs1mMzkuueo+ia9p0/0rDkWSrBlT21+2PsgWTRK0JE3CD1F/AAAAYBLI9Qda1Mf4NsYR60SYX1T2rKrq0EMPpZpnVGvWrKmUqImMZMcO/2s5/aYIelZ3IeqNaW2/6uijjxaff0stTvFYBL/n5ubqC4gH4nZBZZimNxTH76y2gJx8132QrlxSvXFx8803R8r1H8oggdhMor8TKdufg6ntb5Vqwm+6/kALUc6/aroGsHdTTOX8kYBLPztUjR1tDaY+9LCTfGnNMLXZnfhgy467sGzZssYP/Pbt2xtzeOqFfYL/7DW2x/1bWb8Y0BYwZf1p1wz33Xdf5ZX5U99KDhKX1c9k9zNpBoaS52wSHkj4AQAAACaBqD/gz371LxJ+Dj300NGECjLX5wgHHxY8VHXRVq3NsJf7FLU4TbZv3649Uw/2N94u0P5a0JfFdANBe75TvL+g3Z+Cib8dE9/9uqjnqDRHm64/0Ozggw+2pPoIjmkD8st86KGHqs+T+p8D2cf1y//RrhmWlpYefvhh+4Y8tpIDtdOv1sVv/CGUgwG051u/MmPtZ/RM+MnNRFJ9Bv80TnP3Bz/sdpk3zwUJPwAAAMAkEPUHdKYYf1dajL91AW4C5KA+GNdxUl6x2J577rnnnntWVWWK/eevMdXnmGOOaSySU4/iNy5gipPVny8u4ceF+7QG7pX7x11jZ2QfAD8chElJ+XYT9QcAAAAmgbKDQLPW2H/XGuEamS1NsD8UjzT9Ptvq+XLv16ahzYqwefNmketvisr3DFmpgwca/9tn5QOSeyGi/q25/o4x/sQHZJrBfur3k+uvkielqM1LM5svCT+YIjnNliBK8UjeCT/yvCAeaF3/+nhHOv3Daux/p6m+H6qgkNZFDshU5yfSz55jHlGefYJWjtk+gyv08CK4caeT+Ukz2VaarZDwAwAAAEwCUX/g9zcBZOzfFF+Uz4uin9qtA7XWoQjnH3bYYY0LCHfccUe4PUBV9Z6dV7zjYpCuts6qd4aPpmcjG58JG/7XDmZrg7tW7ZTLu4S4tEKi7jKPI+aDA5WDwd8FMnwmgqg/AAAAMAkM88XUyeD9XXfdpWX5yym97K+Vs/bK59Uk/sMPP9wU0iDwH5ZLKF0m2cs3pV6FUw38x6vR6Rf4t4THIiX9S+I+gH0239jqtw5a44XDBhTFm3LTTTc5TuY11DDfwcOugzegLkGTMtnraU4c5m6oUfUM8wWC0RJ11Oe7fsPV8cF33nmnVqdfS/ipEwtwAdCTYx9am7VXS+xRpSnJ31gm37SAyyezdYV9yKPXKVGnCj08t3UaAS39qeswaNPylvWou6YeHG351tl8HQ9RjF4IpWykqF+ifOR22HM2ympaJPwAAAAAkzDyS1ugzhT1l+rjJsUzWv7PoYce2qk6p+kmgExamGb4X4vZuwyl7VMW0xJTGWT+XdO+eMd+4gUsxVtzzDHHNP7VO9weO8qlReXTBNXk7mtlPWXUX0aXuwb7S4/6d72XlVj6Q5Feboc9t/ZoBsz7IuEHiM5S3V/8UGmFgOq0hB/3rs/o7y9baBXuXQrp+FXyyfwHRiqlnXbuH+k+CTYe6++asGRfm2klcrF3vvOdlbmu/zjea3dT29/BaflLuR3/3NqT2IC7T8IPAAAAMAnTjTViUkSyjalKRmMg35IXpN2trr9chP/rAUJTIHOaqT6CR8JP4wstHIMrgyT8mOy5556N7bGMTlbFTvupzJk/QbgPq02cwGNZwNIeGfV//etf790A7UFAA2a55Jn5k+xDNYJN9DHx5rWuP17CD1F/AAAAYBLI9ceYyZG14vJaS3yUAafWJH6VXOyQQw4xvUSdzdcU0VdH/R5++OFVVd1+++0uDRi31lz/sab41zkG+KUxjRix7Etj7n6nSqNCpw9G67Gtn1W0Bbzj/VENXriw3K8nesr5rc+5bUHQ9ceYiW73oYceKr7Joqd+yCGHNP48mzJ8tJv4ppfXiQXcCwGJC4Bq8tcAonNfvwCYTqdfJdN+ul4JBOeei5We9iV1uQoyDS8O2ayMTWdPM8TBz9lo0r0sSPgBAAAAJoGoP0ZLzfZxLMmnaYwLOuYFVeZb//ZZfqcW8t+8efOaNWsq5UBp0WW/Kv4ub7EIqA8eTXekjfrVmj2mbB8/QY5AfSU9a4B+7Wtf69umEUk2LDtPU953FcdhcFP/tcAU1FNuRAWe+glI7dbLxB4Ll0wey5AAeQ0gNiQ6/YcffvjUev+NnXut3r8799+VrEr6uBOHpbFSSlTqJdm73/3uKf9+u++71vXPpMLPgO9dER+bsI0c/GgPXte/iDdditRaGYJ0Xz8VfgAAAAD0QtQf4yfH78rouynq30gLmajhVcfxuyay/L9LyHbEtwL8ovsmJVbx9ybTfhJH/aWo1f3LpUX4ZOzfI+qvfp6945H5hF3zaYlF/0aqPxaDR/2ns90+Bq/iX0fUHwAAAEAvDPPF+MmAqIyy1+P3ndYjiRUKS0tL7iOAVXfccYc68HeC4zVFODls7B8YkFbmX1q3bl2fAv9dh8nmE3zNpyVRmSaMB7JC1x9jJrrU8vzbOO2O+mvqMuNPvXx48DFhE+z9B+H3Roicmdb8H5lak1WmkGzMUBdOoUriICzeBcDRBL8sJPwAAAAAk0DUH+N35513NpbSNwUs7UH3+j13OUmwR8PEAzHrsGY6k/uqEWt1LGnYSLa9iv+ee+5pL5yPxrepPmPG4EMbM7du3bqqR5VPFxke/HF/Ksa6X6M3hYl7G9H1x5jJLrV4IC4A6n13+89SvSiyeEYr79M10V+9VPAbJDAOq1evTpPrr3XlW3v2Wi7N0tJSVqk+Gu9pENzXLx6Irch3zUT7lmU+l1PmzUO2+NiUK8F7l+3Hg4QfAAAAYBKI+mNC1ElzVTK1pr5w/ZnFxcUgQfr6zQRxU6Ix+Wd81BC16XFY/WP2om32aHdi9XsXftWrWtXfF/FMfdaLxkHzpibVB81bFlAX6xlOM327s43SISt8ThoVcViKaGRsRP0BAACASSDqjwlxqdfZqn/IX4451u5CmCK14qbEaAb7rlmzphoi9OJYxNMkz4qrDz/8sNwv9Q5A68CV/sTdjy9/+cviv+95z3ss2623wfHuhGkB9x3pdBtEm/Qjxqe00wDfrg3IPKJpehe00eGWN0u7pzTU/uZ5j2jw9uR5WKRsG5YeXX9MiKmQTusZoU8Sjly/XIn7+VEsedttt3lvPUObNm1S/5ugIH3PVB9tFLLWYG18bfp0ILl39hJGQrxZI8Q1wLHHHpvbNVKfmftiDP9NUOGnOKYZ0CxLOi4vBL9gyLYTOWDnO9tjgjoSfgAAAIBJIOoPxKJNJnDYYYeJwL9I3WkcW6wZWbxfiJfwY4p49Uz1sd+X0P5qqXrZGI8PXjBUrrBxc7FD8l/5ylfEg2OPPdaevFEf5q4+b/l41GcSMD1p5xgfNbXT0Ve/+lXtmX333bfqmIaEnkz3Cvze03zC2/WWEO+HC847wO/Vp/3yzvMR3fp6zRPxQE4IoE3aVb8YUH+xRnkZIETN+ZEHP3iFH3uztUQg069jvLkCYnf97alNxx57rH2LibsLjl3tSLn19QuA173udVVVzc0Zb7z7DUyiE+ahawc6h4M8bBvqP21FSNbaUBtav359kPXUkfADAAAATAJRf+AfaIF/v6j/4YcfrlbjMQ0jvuOOO1pzfrSqF6MM/AcP+ZsiUsHj6yKs3jN5oIoT+DcN9g0V9a+H/Oujn0XNn1adhmD2P9pdtW7IpSX1qL9gGuzrvdGyorD50I5b5od38GYM3oBO0reWqD8AAACALDDMF/i9ehXOri9vfFzVwpniv5aQf+OgtPGF/BOU9ezPXiuzKjAAlmxoqSj32Rr7dxmCaZp81yTgm+I47Lisj0E8pkHYpR+fHNqf8strl/7mm5/Mmzcguv7A781msz7TZt1+++1y7q3Gbr1cv/ZXuVHxfCYn99hi9/tDnfTVObO0P7VeFYyYfPtMg33lAj/84Q+rLvk/Up8vQvC+pkcFIZHkc8wxx3TaUM/8ono7u16Z2PfUe5KEZJ1FlxaW2yPMpOWZNCNPRRwcEn4AAACASSDqD1RHHnlk1fti/YgjjhBrqIf8RVz/sMMOa7wb4FLgf3yGygGw1N23ixfj19bsPerXsYVa4llP7sdzkMSY+j7aRxU7fizrMez62rrG+x11OoweQXetCmrwm5BdVxhvAhD3lQ8Yx80qhJxVY9AHXX/g97yT6Y844ojG57X0Ifl7o6X9aAk/E7Fp06Zkuf6iMy03J8vz95zqKzfqjrReBgTs0rm8j+nHdbROJWZarPGFpk6P1onselTXrVunFflxn2jMrx9m37sMsw071X3yXrl48OMf//iP/uiP/FYVQz5d7Xxa4i5lm4s7PiT8AAAAAJOQ3SU+UBwZ9bdf+juOIa7fQxhZbZ81a9Zoz4QNmbQGCBsXsMT+Ew/nDXUXImXgv9XmzZuPO+64qsDwWKOudd//8i//Untm3333raz5SN5tgAdxMH/84x+L/772ta+t/zV9e/KRW3tcJGhz7E1Q1x8AAABAL+T6A/5MWf6CX6nQfIo3R7Jp0ybxoB7+D0IePTH8dPXq1SI2Y4qm26Pj+VfwtI9YqBcnTbZHjR/jUiqC26m7Zp9/QPz13e9+txb4/9GPflRV1etf/3rv48B8AgFldcrN7T3NrT3oj64/0Jmpx691a+oDeYWuw3nF5paWlvpMO5Ab2SOPugn1v6LLqyb8FDHA17Gnvueee9p3R14AyMVSDr1ds2bNjTfeKB6LzJ8+uS5ZMV0G1P8qiHG9oXaWC4AxyfN9LGhGNob2OiLhBwAAAJgEov5AeGoozqN2Z2M4wSPkf/zxx4sHX/rSl7q+NrbNmzeLqHOCkJL6diwtLWnRcXuwvFPFzCBMCTytGTum+QFMO+hXj9KbyO+S6V6j1HUq2aIDh2Py13/9143Pp3mDMvkYqLmm6skhk+a1KqWdOcgovw0olCn/RzsT3X777Wrv373LJdfj2Pt/73vfq74ww36/kL7We6UcTJkEL/9reonsi6fM+9c6+h6Z+qaXiOfr64l0DSBXKzr9a9asOeCAA1pfNb5f8S9/+cvqf7Vy/o66VhZCJ9oFwGtf+9qpdf21Z4ro+g/VvATbpcIPAAAAgF6I+gPhyYG54r9azo/fVPaWkP/73ve++vJ1X/ziFzttNzaRAZJJzex61H+QYL9F//sAdsmi/uKBGOxrknmg0YMW9Zf8wv9V7RCN74ilp0X9X/Oa18Te4rDvmszwKfrDQ9TfA1F/AAAAYBIY5gv0JXP9tWl3ZbxTLHDbbbd1Cqx6FPi3xyHkGAAht5sAkfSMzWQS8q8MLQnYvNijfrVpHLp+F+wLlFJ/8LjjjpNFTntKHK8N+34V4Sc/+UmCwP8g5Bs0jncqsREcNLr+QDCii2/qhcgrBNOsRuLKQR00rF1LaLQ8n6qQUVlpmA6CKbGnON7NTj+3l2rTpk32VB+hXmmk8Q1V+6ONfdN8Uhpc9tqD3LtIu+l3KWh61eDvQicx+v05HIEc2uDBPnde4gaUjoQfAAAAYBKI+gN9iQjErbfeKp+RGT7qYqYaoLfddtthhx2m/te+uXqw39Qqe6D0fe973xe+8AWXVY1VofH+UNJPWdCHPc7X+mk33WpLrL71devWVeEG+2qxf+2g1Z/XnvFIMuzE1B7TkonfrH333fdHP/pRyi3CRf1jkPiDMaZ4v0DXHwjmyCOPFA9MZwpTt/6OO+5wWf/73/9+y8oh1I+P1sc1FbYvi+Ne1CsUNU4ZFq/DJ96OzZs3i/92zXsJ3mX329P+W4/0tW3sIpv2sf689kziPIrWzckrOtOVSdRPRYxc/0zSz4qQyVHKpBlhkfADAAAATAJRf6AvmeojH2i5PY35Px4cww+tsb2pcSmEL5+0TOubFZd4v/vaYmd69NeYyqI22xRPDRJnNd18cL8pIZvxnve8pzKX+YfGPpLbPp7Y8u6YXrjvvvvKxwGTf+yj1RMYZeg6thEfNKL+AAAAwCQQ9QcSOeKII/oE/k844YTFxcVOL8k8jitmdV29enWazdnj+qWn/teZ9qiU2xqNWnPT7eNcXRbQeKfRd5onYd26dd4jfVFX/5zEnrbCxYijyCgLXX8gFlnm3+/lspJPvJFhYhND1fmRczwN9YsYe5KsPDUO863iT+kl2XvPpmZ0+pAEHM/q/e1r3ET9SXr8aXT6YGceNOmqrEuOHJIPyzpiHkj4AQAAACZhVJe2QFb8Rvea5uitooUiho36B9+p0QdsQmms6x8p3iaLe1ZVdfzxx1dKNL3TFssdJandPRAPdthhh5/97Gf1xbpu0bt51JpsJA/Ls88+G2SFuc0mkZvcWphJe9avXx9pzXT9gew0TtrlXR1Ce6FpPekvACIl/NjXZq/zMxqtCf1yfgP5X/Egdtf/+OOPD7iJgD3yxj635UvnWNJHLty4/htvvHG//farzJdA7jvYMyEqyGq7NiCTDpZKPTLr1q3zq+sv3016/I6yamo+jYnX9SfhBwAAAJgEhvkCuWgM9venxTDqIY2hEn4GMe5gvzvttoB6MyRG4H/16tUi8P+lL33pve99b6jVWpraadSyvXh81013Wvi+++6rzIN9W4c7r1u3TrzcdNOg57vpfS/CZbsuy2iz+bYu78h0T6YPtXn5RI6LoL0dg7RhUm8ZUX8AAABgEoj6A+GddNJJVVVdd911jsu///3vl4+7RtRcQlamdQ4Y75eJ/gGJuDJx/T4efvjh2DMtfPGLX6yev8cVL9IW6t5FmqRtEbyXxAAAS3ukQWqD9pzEwHtb9rl7vRvQv9mDB4wHb0AQ49iLItD1BzydcMIJ4sENN9yg/Wn79u1ygfpf7Sy/Q46Vwt0XEJccn//8551bF0Wo3lWoTr/Ifin0EqKUGbvqb7f9gnbYbkHP3qE67jPGtYR25VA9f0mQrD76sIXYI2399a9//TPPPBNjzdDQ6U+MhB8AAABgEoj6Azr3aL2INp144onivyJ0ccMNN6hRKPnX66+/3rI5qWv8w2M4ndjEsMH+TZs2iQehMn9k+cie0fpSouYmpsl686EO87XP7Gt/piowWCirhYrdOe6442688Ua/VYnxwRgW5Tv7G8deBBf1sFDXH1Mnu+bVC79satdfLCP77upLVPaUU8dvcoyuf6OumUjxhJrbi1x/lUxb8rsMiJTxr87tVYWoalVcv0GrA9PY9bfk+jcyXQYMMhJgNGQalam6/+CfvcEbEMTgezF4AxotLS1t2LAh0spJ+AEAAAAmgag/oGfsCJZqEq2FJlSNs3jadZoo1FsmUX8t4adPAEaNKNdj/xOZx1fKJOovP6syxUsTYzoLj09RfVpfbYWhSo+Hivo7JvwMFfjPoVJ7f3KYr1bCKJM9yqQZfnJofA5tMCHqDwAAAKAvhvli6k488cTGotShpniUWmcedVnSZROOAaoTTjghk8C/iAfHqPSvGmuw31SKVD6jDfwdahyweH9Nsf+wWgvPm74UjsOO3b/LrY4//viqqr70pS91elX1/J2BnoN9u55q/Crod7pNmiHZznjTF3RVyqFrlEnjM2lGXYKG0fXH5Jx44oliwK5ptG5P7r2ERv2H+dob0HP6m+AC9gVFjkq2J3Qh+KQBjqty32LwVJ9OiwV/++xpeMG1lu3Xrs8bO/2yEJDl+T6d/p7Bhen4yU9+UlXVP//n/1x7Ps1EbyaZn+KQPxJ+AAAAgEkg6o8J+cAHPlBV1dLSkj3eb49suVQc1yaf14I0oWI2Q81aH4kI/3uEnLV6kUK26T1hG9Z17PLDDz9sXzJ2yH/NmjXafR4tgBq8fv8gH/jWWxmONwcsz++///5VVd17772dWpKVUEOB3Uffaku2vguyrKc2ONu7qT2VGO/PsM0ZNklK0zai/gAAAMAkEPXHhLSO7es6ds0xjbgxrhkjkNkpipZzOLATEajWYv+t4e30GkfW9mykqYapabW5HRNHpu9aKUxfzP7fwdbYfylFNoMMSXJfuPHGbP3lplz/QeT89hUkw8OYvkl0/TEeJ510kqmOh+Pt3U5MN/FNG9K6Lx69mcYftq6XAaPp8WvqmSq5neLVbneMK5NORXtM9f43b94caR7fnuwpNAVdG4Q6C7Wm+qiLiSuEgiQ+TY31rAgh55PDIG0j4QcAAACYBKL+GI/rrrvupJNOqj9fz+dxuc6uxxFdxiM2bq7+J0sb/O5Zh1pycDJvR8aetUwe95h0blNvqgZPvKmH/EMF+8X7pc3SELycv9+Xy33N8j5hpA+PbK2YzPgLX/hCjK3UN5rhdwFjNfiHbfAG2A3YPLr+GBV7d7w1p98+Y4spn8fUxXRcm7Z8fzl3eT307JKO4yC463pRIWf48r7EUnXNFzrhhBPEg9ar007vY8AEd/llDz5ipyc1h8eS/KOl+ozs5BCbmDftqaeeGrYZxb1ZwzY4n5nXskXCDwAAADAJRP1RvFNOOUU+bkzR0VjC7Y3z4PYMYKhDjbWbD40sAUvTNL2jDHIECUJXtSSHDCv/hNJpv7SFAx4T+cZpOT8abW4Nv4JUjpl7rcu0vsp0wzBSCs29997baWCuXFgL/x9wwAEuiYXFBZWTEVMmv+Y1r+EQFSf/t2zAO4dE/QEAAIBJIOqPUQl4Ga0We24sjllP/e+ar6xF613mCXZfrGo7Gtqsxtdff72l5ekFLDHZqeplcF3L+XedoNeylU4raf3uiHC+/X1ZvXq1Nsw3+ABflUtEP3ZQrTF8bioSoLXHctPANMagkx/+8Ifigf0eAsN/TUSu/9NPPz3I1ot7UwZv8OAN6GTA1o4qQwDTpCb8CF2/UWL56667Tvz35JNPtq/HMYVAvLw+A3xrwk/rYp0aUDkfkM997nMuiyWmzdjV9ZJASxwydYVlIpDWh1br3/fMilHX7L6q/tct2rbECuVhdJ87yaXrrx5tNeFn06ZNWoaPpmcft6ccegyf//zn60/uv//+jYdFZgRpZftN431b04dyOAIBhR3NfN999yWe1austyOT1mbSDHetDd6wYUOkTZPwAwAAAEwCCT8Yg89+9rNVU/jfkWMQ3TQ/gCnCJAf1NgZWLXk47vVAHTnmRYhZEeTdj0xoYfueLMN8G+Pr6pPiceJRwo33Ijq9ULvbINvfNUjmcr/FNBtD9XxGmSn2b0p7qyfdtU7rW3+yVZ8h8qFijY0F/u+9994DDjhAe0Z7EERrzYDG3bS/F/3dd999IuVGDLfdb7/95AN7S1qfF0wN1jaXeJhvKdHrfNqZT0tKQcIP8nXqqac2Pr+4uCj6+kL/hB8TrdvhOC1AZe5/1JN/6iwJP107KJ2Ow9LS0tzcXFVV1157baetJKZ1Llv7o2GvHL7MjAUAACAASURBVCprypDlr+7kevxSfbQGzGYz7UCZJquSny51+a51+htXWCkZ//a0Hw+t2XFlddrEGrrO8LX//vurVwIyTShgw7pqHB9Vb4nWTvv1TKeqRx5MJ/DECT+ldGTzaWc+LemEhB8AAAAAcZHwgxzJeL8pXGTK7Ulz9d+6lUyCEJ2SH2azWebxfhPTCGBTvL9x2GtX8eYHiJ1Q1HrzSpBHr/XuSuMC9ZUHj/ebNuS4QCZf0tiG2k17Bo5ftpJ8VaTw/+CVjor4TObQyBzaUDSi/gAAAMAkEPVHjhzLX0oi9V8W5ey6QtNoXcf4qDt7nX7ZDPeJAgLKdpivRss+D57K78iUi+94D8EltK8u435rQtbulB/jTsn6Hsezcf3y06vV9R88sCp5Tw+cwPvf//7GWp8m9SC63BGt+qcw1LtQH7WcG/VTUX8c76Bl8sErxeBDWUpH1x/lqZert3T6XWjnkdaa0KGKRpu22/hfj9V2LdYhljzllFPUUdQZMnVPTc+LvqnpzZI9bMfudZDRt+raXMYN1680Wiv/+H1+6iV6vIf5qp3+D3zgA1rDOn04k3Es3tX6cveXNK4h4DV/vdOvPkh2tOXFiZxlDMV1WItrMExI+AEAAAAmgag/StInkBbjhX1uO6ZM5um06cxD/pH0nzTXpHFUcT2Zpx77155pvDlgumXRpyin0PPl9TswrTejtMXUhdNzn+uj65zf6u7Xcwt77q9Mp3GZOLy+gCnJkHDvT37yE/k48cy+g8vn3fe7F5enYRtP1x85avxuWyqRJ/4W2efwStYe++wBHpMAiJecfPLJhZb66aNr2o+7TnlEAcv79M/Y6WP16tVq7z/9hW7YhJaA7W8dyCQenHDCCVVV3XDDDaYl7Unzfg2Odz0m8o66FvbR5iuont/r1hlUEESeBzbPVpWFhB8AAABgEoj6I2uNt8WHivHb/2SavbIKHXqs32poXH/XjQ6YgJSDeAk/ps3J8buRGiCn4w27WhPtlpdlu12nm3BfuKp9jC1ZN/2H5Fo24TEs2MUBBxzQaZjsD3/4wxwq6sjdlI3R9sL0fJ1YQNupUqZuyK09JqW0sxQZHk+i/gAAAMAkEPVHdk4//fSuL9EK4fslu5tYVus3ls70cvlfU5BAez5sZDHxNALp2UdimOr0R6IG+7Xwf1f2ZidL9Dd9F0TOel2fupn9xf6oexfOb21Y1yh+jDul7ntn2h2xF/WbEvW963PXwlQ61r39frMOlyvD+HS5cj6YdP1RMK234T4DV6fMmdbtBv+Gh/q17tS/kQuPvsKP2NPNmzc3ltBJcwGgbkV97HEBYKogFPYC2J2W6iMGqorZ4rxl21O3r1P9r9bpNFX46drOxgSYqi1zpv/+NkZbtL+2sjQ7Up5S62+EJW9z9HLuqpYl/yNJwg8AAAAwCUT9kQXHJB851WXXiGbPIX3qS+pzCXvzns3XninUM1j1wQ9+8JprrumzhpzVK07K9zHxSN9QTLP8DlLTU53BV6T6LFu2zP4SLX7cSP2r/XtnX1uCaFxr5V+1YY4lBFRaXFyLjteD/X/1V39VVdUb3vCG6oWHJcitxfragkTK3/CGN5hmHE98x1UmJvVZZ/4x4CKUchiLaOe07mchT6effrr9d1p7sLS0ZJ9Gx7sH7LLa/vKsRV0/XKO5ANA6waL3v3r1atNbEOkaoDGZR25LdtmDlPZXdyH2NYD6yVG7/iLJp57Z4nftbZrrQ3vSfWRLp+dNAp5kGlf4uc99zrSk6M2Lnn1X4rVd2xZDz2uGqA2u9/j9JvPK7VRvkm07s22YFKmFGzZsiLHaioQfAAAAYCJI+MHwLFNI2uP3Xcs1OLbEnj/TdXM9924QI4j3y9lk6zFv8Yzl8Kpx9/oYXNM9gU4V+tXovro5j5C/aRpg+UyM8b4u0wVcd911VVWdfPLJ2tY97nq1Jsl03TvTt9g9k6S1GfZbiHIZ7/fFL95v15pkGGlz8oGanuS+hkinyq6zKKjyD1TnrKyjV1ZrBaL+AAAAwCQQ9cfwrrjiijPOOKP+fGsZe1Oltp4BTkucXn3QNb3YtKQlAOlXbNRxu/UXigdXX321y0azJcP89hx3y+FtjKNrQXotR7++pCn2L5/vOaKg3gBT+F+QcXqxQILChSLeb2KK1zbWxKy6xOMduQSM1Q9J62nB8XnB/p3NsJhpz0oJjtzj/SrL7oS9LfA3f/M3lUPGf3Fh4EwanEkzpoBhvsjCmWeeqf53cXFRPDD1/v0mtxqKY8+78a+m/7ZuyKNkuHgwmq5/IzVTJciAWm/2nnrrCyW/vfDuXLqk+jQSVwLXXnutdkngUhK+NTGm5xnA++Wh+uiWb6vImwrrjW98Y+PWHYW9+spB46m4nlLlOMw3898jVVZNzaoxrRK0lmG+AAAAAHoh4Qc5mpubq6pqcXHRJSug61A5y61hv5F/3rGrTi90KfPvWNs0XlXsgsibA10PgozWe4fthbAvDFUVtKs1a9ao/1WLe6pkpN+SBeSRsWZZIGrF9+Dh6mHj3x6lCxJUQU3JsXmOCT/5y+HMn0MbJivrbyOm46yzzlL/K08KMvOnspbzT3MS8e76Oyb81NffmAtRfzLIPAZqxv9VV13VdVU5cClgr+arNJb6cexD1zP1h00f6qp/wo/W6Zdae/8paYk0lhNFqD5941iFPlXIxAqvvfbang0T3vSmN6kNk4KcQvsULMpTYxklU9df7n7mndoBm5f5kXGUbC9I+AEAAADQCwk/GN7ZZ5/tEt62aF1+wGBM6yheS6jMsYS5eMaU89B1mG+hIf9Kmaa3z0ocg/dlxfhV2v2K4HP9irsBpth/Yj2rb7m/qvWWYCbx4B/84AdVbZhvKCML+XsY/P01ybZhZRnNYSTqDwAAAEwCUX8Mz3IlLcf7iv/aY2yOOfeWKHvKhFdT8N5jGtGwgxBOO+20cgP/lTn2712Vcqy6xvt7HkCRrd6a8W//FvRJmq9e+IHvWdjeby6RqGeePkzTKeRp2NaqA0gyP1BZ4VjlY+q355AJbZjvZZddJp5UTxbbt2+Xj/ucRPp3/V0qkbf+1dSM4HWELKtyGTZd3Khfx7r+3hV+itb1U2Tp7ncd5nvKKaeo/+30Oa9/WfoPn82N9qWT/01Q19+lSVlxTG4MNe5WDvb9wz/8wz7rGUom72MmzfCWvv0M8wUAAADQC1F/DK8+zFcSz4uEH9NUvsn4bdc7Wq+FrNyTiNxvSpj2SIT5TzvtNLFMWfP7mqL+9QB21+Ke2uEtK0dCcP802tN7TCH/yhD110L+Utc5py1rGLcgxT27ju7tn1vld3PGZflOM5d770jp8X4hk+9IJs3wNqaoP7n+GN7atWtNCT8F9a4sP1f2m9GWFWoPkhGd/uIEKVbTWrpHuwAYXy1zO0unv5Gp0y9kWEc/TyeddFIVJ/nHonVoROs0iJbXWni/d/G+jPfff39V+AXAgIr+MhbdeBMSfgAAAIBJIOqPrLlccLuX1m68L+xersG9gpC2fNhAVOvthfqT9nkD7IHS2Wz2wQ9+sKqqa665xrvNafjV9vEbCKgerlGGhTRdg/2S/cNfP3Q9A8Zh6+ibpsou9B2/5557tGe8C/w7TkViOm6Otdocx4Krc+427lGou0ClxP4L/XzmI9Tc3tki6g8AAABMAlF/5Eim/ncqnl0P7fjV129dbRBdIwrq8qb85vqTlgU0lkJ4Iw5+eCsurtbzTdy0aVPXwP+pp55atR0oU1g9HvtYbdPy7iuMRGzlpJNOCpvu7954e96/97QGWoC/fsJXn3dpp7izUY/9O7ZQ3Vz9Jknm8jkp5dOSTrRmF7oXLuj6YzD1UbxCvQ8qJ/byK/vQ+NfWl9efdzwRBB+56Kg1scdxc/VLiLIq/AibN2+WmT/iQeuMVA8//LBYeMRnfBeNB8o74UdQe3hdO99V2/fa8YUuz3uvtjVHJYjgF0g/+MEPqqp605veJB+I591TH0M1yeWdSnZ9aO/033///fnn/AAWJPwAAAAAk0DUHwM488wzxQP7vf6emTbBQ0QyWmkKW/YfU9hnJfZ75X1aJWp9ljKnb2t036S1rGehOn0AvI+eUC/qb7qn5P2xzLyap/ctO+3liXdHy5BJk8WUIXXEMCZigp9zuv7IQkFlNCx9F8ffS/tiAa9Y+gwnqD9/+umnX3nllfLJU089NfNEoE692K55Bfn0NWPzS/U55ZRTQl15VtbvVOu1hOOsGmneTVNWnuM4pc9+9rOxWtYk5w+56e2WOUtCtu0PK5PdzKQZaEXCDwAAADAJRP2RlCjd4zgA1xQJCxVa8BhuWFkr4ZjWYype0bG9Rn7R/a7VkGaz2emnn66+sKxEIMlx1O84DFWdaTabuQzcdB86753Yk0N9qlCzzJ5yyilhA/8yRt6zwoGWDFnnd9K+55571EwkUxKj3AsxWLneMLsf/OAHYg31lxeBWLu3yR46ov4AAADAJBD1R1JdC0irz8zNzS0uLlbOkT/HcL53Pms9BBUkfd9l4SCxClMITR7n+n/FkmrGf87q0/pOx1Ch7jVr1hx00EHuy7t/+0w5/d5f3tZn+m+lvnLLVgZ5y7SanibeZfu1P3V9r+sNa9yEDNt7I94/QVM+enT9kZQ2mNI7n8clZ6DrFYIjy3hQ7Rqg9Sa4N9Puh0qIkhMpyH8bZZ7wI1J6TBcA/S8McquC0vNjFqSc/6ZNm6655pqqqj74wQ9qf+qZUmLi2GVvPTiOley1FZr+W5b+XWdHkS5v5LwEg7w8vTw/Znm2Co1I+AEAAAAmYfjxT5iUs88+2/JXe+RsaWlp+/btjc93asOAw/6ClDtsXKdgvxvgSIT8q+fj/WrCj/iTeBfk+rON+gsJ0n4yCXeFjfr71fTctGnTqaee2qc9Qx1Mx+22foWjzjMgVxuvyuef/MmfqP8d9rPddZaDsLcvXG4FJJ7WN5NTTaOc29Yo/wZv2LAh0ppJ+EFSa9eurWoXAJYC+doPrUxEUTNSQk2CI7u8Ur3v21PXLriWc6+2qnWdwTsf9eOTead/UnKoYyOEKuSfbNCLut3W9edznCP5/ve/XykXAIMkMnlPmZImbQmNcp4FAhoSfgAAAIBJIOqP4WkRPjV40DimdtmyZeKBGvuvHKIO9VI2ji10X1JorJDTevdA2x37al00RihNdw8qh90ULxHH//LLL+/UmLEaPNAVY3RvKdzvDEQt4BOV3/QjRfCYkKTTO2UqwlbfrrjX4eH++++vwqX92D+rOX9Kq+ybBxVRfwAAAGASiPpjAKbYhpbm6xhFqBeet28oXrDf9MLG/zbm8Udlb5Vl+fqDgmzevDnSSN8colxjigGrBpzrOtTmwmbJi7XJlZ922mmRRtpow3zVrVfh5jdIxlR/WSP3Wt1ByzDfsKN7taOq3uHJ4SSjUe/SZ9g8uBjnzwZyc+aZZ6r/rU9wo/Yp5dmkfloxnSKF1nyYEnuudY5pP2qiUaSWiJyfzKv7V9GK/Az1sxe2/2RK+PGu8CMeiE9F/uxvYv+3uP8aGpMer7766p6rddF4GVDFmavEUdeEH7/1t9b2idr1z1xZrbXIfEeWlpY2btwYaeVj6AkBAAAAaEXUH+mceeaZIgxz2WWXVUqJz9lsJp5Xy8ZX3aP+XdVjQpFKcWvrDzXiUCu3PxTxfl155ZUDtsGOqH+jIIX8NTLqL/UM/6cpLmlZf6hNe9f711J9pGED/5H4ZZIEr8HqOOq3f+w/88BzoxLbLBTXcur6Ywwuv/xy0d0X/7ZOi1O1fVeLyzh0+UFy36lhe/z1rK1JKeUjNziZCdZ4DeD44bF8KWJfGzQOH+qzHpcr/9aoxGi+dJZpSarsv2X3339/4im94CHzT9EgSPgBAAAAJoGoP5LSZvNtHOar6jTFZv/BZ/XkHFMbXPTPR8okXGGKuYr/XnHFFQO0qQuR2RIq7WfYNyVSuDdIto/q9NNPD7tCwR4kdtH49rnfaot9p9FU92wo2uS+3vz2wnQO/P73v682Sa5cJurUG9x4bu8vbF3/bLmkqiKUBD8xRP0BAACASSDqj3TOOussMcBXaA3g+Y2HQ38uibbyr2eccUY1vdj/UALWVRSHItTatAG+V155ZZ/Av2ke1v7sn233of/2G5KmcLXleXOTX0CM7j311FMdlx+W+36p74tpQne5QD2orw3MrU/f+73vfU9d4M1vfnPV9OZ6T+s7Yo5D7zJUXIOrVG2m64+kzjrrLPW/rQNVI/38u+ifb9O/U+VXC8g0MLF+GLWf29athxryiKkxfYUtn/DGyZi0K5/67EJazz7Ut9h9Ja1zSHmnvogHOU+Y4LFrpsNlOuxaSo/MR1L/W1+h1u+vP5O4kFH+Z878W1hXYpuHQsIPAAAAMAlE/ZHObDYTYf7WYL9p2G7iim/JMogcRzO7v9a+gOPk9tBkElUKNeQuUqqPcMYZZ4SdhUOwfHRdHlvugLVuN5N3f5Bps7VhtV15f9LkC7/73e82/knk7Zhe+N3vfte0QKgWjkwmH/KJGPBoE/UHAAAAJoGoP9LpWYBPXU+ny2X3PGPHGcQcmUKM/acx8mtPJOIezhlnnJH/SN8+RhYPS//h6bTFubk5OVl1DjxuwYU6wup6Bgn512Vy5mn0lre8xeNVIvXf77Xjk889LkdltTYH+X6BMUrnnntu9Xxn8ZJLLjnvvPPqyywuLopvctfvs0wQ8s6ICNv111oVUKfiIeoC2msbE6jccyHUBS6//PKWRmema6mfPH9d+qdShKKl/Zx55pmd+u5+U1MvLi6KFzpuy/Qmury5sT8ApsLz2uXElVdeGbUZJmrmzPe+973WRJqep2KNlvDzlre8xW/N9cShnrpW9M/zNCJl3jyTsTZ748aNkTZNwg8AAAAwCUT9EYWcr7eqqrVr155zzjlVbe5eU5RaRv01WlA/HtNswbnpmr/UWprTXhXUHjEdcdQ/85BSz2KR/dXj/eKBYyTeL95vJzddTxxynK2iVfC6wy5R/2ronB8t2C/P4aaEGRFlHzyRJniwX+Me+8/8ZJJ58zRltVbj0vh4Uf8cOzQYDdHjr2qdfvmkqesvHvS5Ox9E4tnLg1fNd6+hbn+5qeuvPqN2tkq5DHDp/ef/65Jn119+u8UHQ/3iq8/IjJ3W1jZ+mN3fnfp1iCm+4LjCRvV5BoR6t771+JsWG7brr3Xiv/vd7w7erbdTr0xia70AyPBkkmGTXBTabNWwXX8SfgAAAIBJoMIPIuoZWYxdZ6A1cNgznlqPUyaenLj/8a8cjo9cQIRvSwn5tyolsGSPIm/evFk86Dqs2ZFl1gjxoB7UV58xhfxN331LXX/7+1UfDWyv9++4WgvTO9K1wJf23zPOOKOqqvTVtOrxfvWB9lfTPgb8TtUH/jZuLk28v1ClnOIQHFF/AAAAYBKI+iMFS2yvcs7pdw8/d+X48nouftfs/KjDBiLdJHGcLTjGYM2hlBgMa60hK8L/oWL/cls///nP1efPOuusIOvvr/FLXf+UivsAlu9Op3NLjC+4ltw/yBGWMXUZ4xfP1GP/9iMQ6hwVe9ju6JV4ihuNHA4+XX9E1LM7qP1OuPysmn6nG583JeS4s+da+CUU1fOC3NlL9GhP1ttpz0Sy50LIv5511lmXXXZZ15anpHV/w/aJB5R4VLpjp987hUb7+jhegtqz7OqblolA9W+BtnX7sN14Tj/99KqqhirnL8iutpZX85a3vEXthbufoqW77767cTH76GHHscWJK7Pdf//9ppG+OfT2qmya4afoxudmPIE6AAAAABYU90REjZP1SmqMuTGKZqrH5zhM1jFe6J6305rwY29J1+F99cNib2eom+mm9TjmZWUe8m+15557Dt2EXrQPiRzmq1mzZk3PDcmann1SUFyqYfZcbf1Plfkc0mkSgMYl7TNkmxpguV+3bNkydQG5fvFFEwWUly1bJlp+6aWXOjbYj2mwr/TWt75V/e93vvMd9fmlpSUR5j/wwAPF81rUXzzf5zw2YC5QzsU9Cw2ZF9rsRh77Eq+4Jwk/yIhjYq7k+Otu17WTYUnvMfUqetb0MK3E/kyfk6ZLg7vuHdKQH0JTp1/YtGlT/95/1Tv1XP3w9ByxY1qt/U/at1WbAsz7ctqjAY1PzmazxgXkBfZnPvMZ8eDcc8/1aKc3Uw9b9PW1C4BKuQYQRI+/vlh/2iCEoYypzzqUco9h/i0n4QcAAACYBMJ1SEfL/2lN+PFWzxSyrNk9N0AwNdsi1PjLxmHT6jS6pnQFl2G+lo26ZEGoT65du9aywsyVnvAjPPzww63L9Iz6i4SffEr6BGHKNhwqjDebzcS3Xkv4kQ9E1F+eWi+55JIBWtmDyPCRaT8yEcjvgA8b7FcTfrKK+2bVGBfFNVgTqv3M5gsAAACgF3L9EdGHPvQh+wKRikDXZ+7UNuc4oLAeaWv8q9yo2KKMzcsGOMb7taC+Gs6vzLcyLOwjDk3H1jT9qrY7pQdmTGS8fBzhfwsRtveL/csxvpdddtmYAv/y22H6MmoS1Pu3v9ZeSiEemaavJfG7/FUl9y5G3n9iluKeQynxLF1umwv6ZaTrj4g+/elPV1X1oQ99qLXqRQz1Lnjjpt3zdkyrNU1foPWYTYuZehXa8pZJEuSfGi8S7NMOYJT23HNPl5yfqt8FgIVjGa54G2qs06+yN6x+Yd+4WP3brX37us5tYr/CH9l3Vnb36/1+x6pr8YYL91FE5y8fhR6uerML2hESfgAAAIBJIOqPiM4///zqhYkiPSvl9cn/UWn1+zzW0Pik42JdF+j6cu8EIcemijVb3pSzzz67yniw7/z8fFVVjzzyiHggPfLII+p/RdR89Gk//bVON2H5a+X87Xaczdf9Va3TfbgsLL8y8iZD45eoXhugNd1Oyx7UXi6LfmoNEzmW4nZrVHK7b3vb26qq+va3v60tYE/1EXH6ekFkyXT85WrFduVf6w1I79WvfnVWcd+sGqPKtmHTQdcfKcguo3qKr98id5yiq+p+47txxgCPznEmXHIKLflO3jqtKs8LANnd1/r9JmrqvymFpvHyoDWRzDEhp+u1h+Nqvcksf5PWATx+L0zMb5o/9+uT1jQkrdNvnymvdVRVJN4d7tbjYHpe7fGr/zVdgaT0wAMPvPrVrx6wARJ9a9iR8AMAAABMAlF/RKcOQnUJG9cn+JSPvQvkN4bJHYt4dE3I8c5rcllz/b+tKQTuGnMMJNNthPrbIWcYDcKeluOxBj+WaLr4U30r2juitty9STLvqLH0kNqqrHKTTHNamxJ+Mo9TOt4ECL6hxmeqqjr33HO1ev+DeNvb3tYYaJ/NZiKlR0v7eetb39pa88fCcmrNIeGnqqoHHnigqqoBY/+Zf4+QCaL+AAAAwCQQ9UcUYoCviSmuHDv+1xghMyXX9t9QfaSadtci1J4mTvo3jZQIG+yXZLC8a/A+SLA/1FY8blao1Oi+6f5D7Cx/vwCzKYxt+na0rqdxMUtU3v6t9+NXMLTPhsTIGTm6d25uTp2411RAOR4RZX/b296mJd+36rp8p9VmEvtPrKBIf0FNbVR6+yW6/gjvggsu6PMNsXQCYtzd1mr8B1mP+ow63LNn+/2at7i4KDrrXQc3y/yfxsnFlpaWRF//3HPP9WiVi8R9fVn5J9TKLd39nlcCKckP7c9//vPGBdSR3Oecc468vnXpo8u+rP1KwJQE2Npm7wV61iKzrDbUCUdM5qXV+REPPvzhD3/qU5/yXnMQ2qFw7PE7vnHZ9sASp/pkexxURTTSovT2NyLhBwAAAJgEov4I75Of/KQp4cdU+V4NRavjAhNfcMe+q9BpeUsFdJV7pfCutEmCq6pScwzcNcbLvcPe8/Pzja8Nld4TME3IfhshK6aSna985StNwX4TLQLd9StsukVmHyUs/+S4mHsz5KuCJA7VdyrlHc5Q6iF8mf/TuKTMw6mP+W7M1HK/sSNXmEmqT7JhvqMMRSMZuv4I74ILLlD/O+BJyq/zoWUshPoNrv/Md22eKZUi1BHWuvgio6C1u3/ppZdWVXXOOec0/tXUk+7Tg3ep+eN44ZRApCEHYq9bV24ZKaGuwXR9ovb7/a5k7H1xe0e/qvUFHacFcFms07fGvfx8z4sBjwXSU/vZanf/29/+timxp/HawLGcUd1sNvvWt75VVdXb3/72qqrE4+mg359Y5mlmHkj4AQAAACYhu3ACRkAO83UM4ciL6foIVL8QWmsp8U5ap2V1b1uflqjN6LMeeZAvvfRSbYSuiN+HkqbAztLS0sLCQlVVq1at6rOeDGOroTjeH+izcpX4UFkm8TCN33Ws8JOSR+JQ2NBg/WaIlr+n3TzRJBvsK6LvKvU4WO4GmJj2SAvw5xn1j53wk3n4OfPmuRt8RzZu3BhpzUT9AQAAgEkYbaALAzr//PP9QnTiIrs+5LcevHdZf/9pbhtT8z0ErwLeM+ofNrqv6R9dNo2ISJZwWcQdgLADUfowZf+LsSJSkGklHGcEt7zcrzHuw3zttU278o76i61/+tOf7t8Gd/XYvxRqZIVYjwzzE/XPSrYN8zP47sSL+jPMFyGJwj6RuiPjKPjTujmXfWzMa9LIv/qV5fHQtdPv2EmSf0327qf8mFnmonLR9Xo4JTkvhPhv12klVGp/N8jUe10vIdyPbdh3oT4PgHZUNdpB/tCHPiQeJL4G0HzrW9+SVwX2T7gYDVy/hBCd+4MOOkjr5U+t0480Bu/0x0bCDwAAADAJeUWJULrWqL8arHIZ1Kst03X0sEt03L6GTsubIrj27ZqKW7s3r3H96eN8rVH/0YdScpb4noDMAtLSfvIRJAHJ8pEO9WlvLHsqT6SNZU/rm453NjjooIOqpjPzN7/5TcurRFzf/RStja6WM5SPO+pfv+eTc5XJPFvlJ5N9IeEHZdBO3PZb8/V77vUesHapL7hDFQAAIABJREFU4Nd9qb+qsWH1roD9PNt1znlTjkHAPtmAt/VXrVrlfboUJXrkegK1CC8g3p2FhQV5hCNdDBQxhVk8wTsNjTld8kyybNmysJvrRPT7q6bPknpJIBN+1MyfynDdojLNhbJs2TLxfG65/mJKL6n/lUCkKVxCya09PY1sdyxI+AEAAAAmgYQfhPev//W/7rR8a/3vILfmq+4DBOV2g1RTaR1ZKIfotcYexALJxu+66Bqtl+FnNeTvsR4E4fHZ7hrdzy3zJ9RZpfHbavkK98zZ0E5i4r+z2WyQhB8Z9W8VfJJjlT25aEDeUf8iws9FNNIi//ZT1x8AAABAL+T6I6QLLrggyHpa4/2d4vemlbROzCnD8GoIqk9tQXt9w1BhyGT8IvSE+TNkmbZ2rNQvo1rvv2sR0sQjL013ILXnh63mmZi8+fDNb35TPB72PsC4g/0jwHGm64+Q/LrFpvG+9h65R6vs5SNinw7kkDW/vsWnPvWpeG1zsWrVKsbjTofpYqD/10Qkqnnn/zTWPDE1rHXWCMcC+X0aqbat5wWVTOyxV/ipnq/on88FQGuVsyBbkdcAww7/feCBBxx7/2EngEumrNZKhTY7BhJ+AAAAgEkg6o+QtCBZz3k35az1crWNk9hL9QL5XTfX+HyQ2UOr7qOW84nYdSLvDJhuC3C7oFBazKxxlLaFCPbL+WV7xv5NtFsTljjfUHl3fqFHeXYKdTrKSvDsMrFCNREo7PpNOqX6pJ+nHBBGns2JQdQz/hu77KYJvOr5P46JyD27/hYxTs2mrOLBE3s0ak9d9PNMfXf7XzFurdcAopc/m81crmm1SwI1IyLUxHxhu/j2U0TA6b0cE37kFlPW9mkdPeWtf7JZ4ux/+zVA6X394tpfXIMFKvwAAAAA6IWEHySlhqbqY5tkKMs+xq51svfgTBE1FzK6r+2v3NlMwvzaKN6qKX5vj+gT75+y+ruvfZxEhs8555zjsrZLLrlEpgYJYcfiBwz5+8X7I5UWkGfO2OmCIoh+0EEHNZ51I41bNU3uW2Uf1s28eZ0UtC8FNTUxov4AAADAJJDrj5Aa5/GVYe+qe/h8kFL39YF0Ls1onb/zk5/8pPjv+eefX1XVxRdf7N/EEOrFOqm4j+DqHypTiVj7aAHtJoC7xi9m1Kl8W/9U+Ub9W3P9tfulse8omqL+knfYtfUWrn2GddN202T8mxL95Wi0oqPROTc+57Z5iJfrT9cf0anXA8uWLZOP5e+TRxUOO3WCnsa/qs/XRxVrXX/HNlj2YvBefiPZ62J4LmJT6z75df0lx2sAeyegf9e/tZMRthciuoyy6FlV6/U2doIH7Pr32f3+qZvDdv0l7RqArn9sObfNA8N8AQAAAPTCMF+ko8Vy6uH24OzTAnhrrTOoPi/zfIZCOB+DUz+EjR/I+nQQppsA6gBW0x2AUoJ/6ijVTvFg+yQkKfMk1Qb3j9bHK9WQiVI+mY1ya3xu7QklwX7R9Ud0n/jEJ7QxAI4/cu4/YJ369Npq+/xMqvmmsbN6WrtEVfdZlrQ15yBsTwIF8fgcyssA95EAPbvF7r/K9kyYSJ/tZJ1+ra5/fXe6ZraM7MveaW6v/I21k52nBFlhJPwAAAAAk0DUH0OSt6e1C1zH2JUp2K9dNMfLLBpkzFZrcDSrKL5F1IGSIwsijl7PD+2nP/1px8C/POd0zY0JOCOv45P1rc9mM9FgtV6CZfnzzjtPTKcQT58vmqzTH/zbytc/IEL+iSU44ET9AQAAgEkg6o8URIzKEokJEj6vV7tTA//y+dabANpf660KPm7YxcLCQinhfLs0MaTWaRaQp64jVTTun66wdwLdo9emJV1aLpeRw4JbnXfeedXzUymHoiX6W7RO5NK6FyOohlkKDnJKwx5tuv7Ikf1efL3D3aczZ58EoOfKwyq6AH8+vyuNLcnnXR5Ea9GqZORQ9U6f854XDOlpFwCmb4fWxVcXs1xsJPuudf20OGb49B80XPeNb3zD+7UeHnjggUoZ7JvP2U+TbcMsSmyzKof2k/ADAAAATAJRf2SkPjxXPBDx+ATZNdomPvGJTzQuJgYUysKCH/7wh2M3rFw5RDhctLZTzR9rXVJd5+Bx9EaWMLP9hbF3p2f8vn7w1XkA6s4999w+m9OYStN6HG01t6eqHXY5TNllVdXzu3nppZdalkmj5+enNYMIQKscf5MwPn/6p3/a+Lw4cdczbewndPt0NpIpgUeuXLui0H5NFxcXB5+NS5V5ng+/wdMU/EqgPrdX1xf2pF4MuH+q7VnsfdbTuE55ppIPTJk/4nn79Y+Hgw8+2N7CrieEqJeUd911V7yVN9Lq+ud5esyzVa0Kbbbk3v4HH3wwUhtI+AEAAAAmgYQfpPCxj31MPNDC/yLSo5Xc8ajN0pgLZKnkoz7/iU984oILLqiqKqsYf85KD7ogII+aLXZ+M1IH3JDIiqknAnWtzBP1a+Je4ScSMWpWi/2rTVKzN/PMeUsptzpF+bQEgyDqDwAAAEwCUX8MSeb6dw0OOQ75dZywk3i/BfEhdKJ9YPwivt4jW7RY/qpVq7S4vmnNjTcB1LHdph1JGdBVg/3qQCn7vOYJ2A/OBJVS3BPJZPUZoOuPwZiqYbiUUnH8wRPrkZk/2pVA/j3+oYb2ZnWSQtFMn6VknUL7l0j7q/yvSPs555xz4jVM4/ila7wU0UoUxD62hxxySNT1I5LST+yltz8fJPwAAAAAkzDRm3EYijrMV968XlpaaszJsYwgbIz3m2Jd9fVs3769Mpftz0SykD+hFAwut8wQmfljD/zXb1F6f5vsw4W142Op8llfWOpf4vPQQw+1NNWyaRPHaaS9j6pc7Z133um3Bj8i1WfwU+vgDQir6N3xaHy84p55nW0xEVqdH9n1r//INSYFWRL9Gyd8kdcVF110Uc+WJ5Cgx1/0CRRTMPiVgHuJIVELSJuBy0OnF8rjIx7MZjN71z9UXf/DDjus6j7/nZqB6TInV32IRX0xU76o9lftT2kuAPbZZx9K+vSnfVqK24X+DaauPwAAAIBeGOaLAYir4Y9//OONs/y2lqyWUfx6+F+7zhZLFhHsj6q4eAkmLvh0AaHIQkDiwWw2EwOChZTDghvJmwBhv/KHH3649kzr6O3GsHf9TZSLmTKaGv/b+hsx7KfFfhBSKv3Mn3P7Lfedcm62QNQfAAAAmASi/hjAxz/+cfFAzPJ74YUXiv+aYkJ+Wsv5p6fm8avJxFHz+/OPQACtTEnhkTbnXhJ0fn6+qqpHHnmkqqrPfOYz4smzzz7bZSse303H4bBh481qSQaXZkg9F9PKNKvPqwPDXHYz8X0AUddf2GeffVJuunQl/mDZR55kiK4/hnfRRRfJ3n9Pav3+wfN8Wjv0sUf0lngOBdy1Jn4kaIB4IC4ApJtuuklcDAitVwLuKTousx/m1vnwSEBqTPixTAXTaeWHHXbYHXfc0eklnch+/7Cd/oLO/13n9ByW/cAWcdhJ+AEAAAAmgag/hveRj3zELznHNKdv5sED97qBfoqIOgBBZBsvVBOB1q5dKwL/9cyZnrT1XHLJJeLBhz/84SDrN23IpOcb4Xg3wzuvSRQnTWb9+vXVELH/Qn8C8m92/i10RNQfAAAAmASi/hieHPUr1PP+7YG9xcXFwdP6VQOm+I8mJgF00nX4aUD2LcoxAGvXrhUPRPjflLzuOKevtr9yeLEk7oUuLi72OSccfvjhLrN3uayqcZSw9+BIS0GIKZ8DC933QptdNLr+KIn8/Ruwry9/y5eWlrTUnQQT8VpwAgUyz/+plGuAqqrOOuusGNs6//zz5eNQGTgxapiEmn/ANOSXUyLCGnyihlBI+AEAAAAmgag/ctR4VS2fHPyaWzZg2DC/NPgBAbKSsuhn1/sM6vBfdSVdG3zZZZeZ/nTxxRergf/+tDOM9+ENO3NLz00ns379+tgjfQv9CSiu2cU12ISuP4oxbJ6PlMOXP4c2ADlLnPnjdwFw2WWXiZwf2Y8PkgJ0/vnnB5nQ8Pbbb28siZNhPlWj1nYeccQRVVXddtttSZoDfrlyQcIPAAAAMAlE/ZGdHEL7eSJkAnQy+HS/dvPz85a8HZXfXszNzYnwv8j/ufjii7uuQc56G7sifuPw3FDjgOsOP/zwijNqEqM5yKPZkYqoPwAAADARRP2B7IwputCf39HIOdaLlFIm/XvcZNBG/YqbAKaMf7lytUJoVVXnnXeemMdXju7V5jjfvn17p1YNbkzf3xhjfIv4jSiika3GsRea8Xy7gDSCV/UZ5ZnFxSA7PqYuBdwlft89NqfV/LGP99XShM477zzR15c9fm2Yr/iu7bDDDp/85Ce7Nkwl0n5a904m6mhLal95ddIAl3r8wfN/br/99oBraxXqGqCUn4xS2qnJp9kPPvhgpDWT8AMAAABMAgk/QLs+kX51xl+xnnyCCoMYdvdjTEqK/GU7y6+J4/BfOznMV4iX9uNYsN90/C3PN75xju+j5VSTON4/KRP/gSsCXX8gnSmfEzPcd1P6AdBT/6T/rj71qU9VSq6/JFKARKdfLNOHLPgjKuRU0b41crV+nX65sLxy0L7sov2JLwB6zu2V4SkUhSLhBwAAAJgEov5AdFPO8ylor4vLCUFXKcv8+32c/GL/l1xyiYj3y82JYL8pdh5K/qttPALFTd9b0FkURSDqDwAAAEwCUX8gFjnAd2oxm6L3V51JdNiWIIbE93a8Y//eSf+CtsX+Wf6m9Qc5konPGEcccURxgX8gILr+QHhF9339jG+Xyf8ZsZSZP36b6znqN/ant3H0rfdJoLVgvzoDgP2vji054ogj5GMuAyCM71fMhIQfAAAAYBIIaAHtHOv6TydmUE1pZwn8j1iyN7fnhjqF/y+44ALtmZ6T+JoceeSR9vl6h2W6CTBUmL9rZc+sDqY7mh0Ks/kCOVp6oaGbE9ekdlY1tf1FDIN8ikSdn3huvfXWTvvlff0zm808XpvbRfv69es7LZ9b+8dnmr9oFV1/AAAAYCIY5gs0a03ymU6cYDp7ajG1yj8Tmeq4lMHcYtSvZM//mZub0wr8x2Ma76s+r/6354BgP63DiPNUYpvz5z4WfMSI+gMAAACTQNQf+AcM51VNZDe7KiVO7MjxXa4vNpojUCW8pZO+qGjsTdxyyy3y8VFHHSUeNN4KcKcG6e2vNf3V9HG99dZbO7UEnWT+kyGbl3k7E6DrD/wDOQlXZb4MmMJZYwr72JN6iArqBAd8Z+0V1guVoGue5tIx869wffe1w9J4fNwPWs51h8aEA1soEn4AAACASSDqD+AFCOR0lXkKUMo3dGqDoYdiH/W7uLgoRvcW9C5EbWomw3zd6/rn0Nq6PFtlwnBei2LOC0BiasLPRM4dE9nNqHLrbOXznuZ2ZOzStDbgVkTvX07mtWzZMvFAvQbYYYcd/uIv/iLUFutkrn/+1CEKyRTa9c+qMe4KbbaKKb0AAAAA9ELXH2gmh/yOIHjgYiK7GVs+c0Nm0gwpt/bYpWlt8E3MPU8+s7i4uLi4KB5HDflXLxyka6ItELU98FbiNLeTnW/eA11/AAAAYBLo+gNGCwsLCwsLW7ZsGbohcREjiSH2IV1qE3Xr3jJvXrnm5+fn5+ftofQLL7wwdjNkA0wtSRPst9x24FZDK76eo0fXH2i3ZcuW8V0A0AmLLUZHfDTvWhE7kibnJ+BWLrrooosuumg2m9UzfxKwV+U3vaRPX1x7ub3HLw0yxreqqvXr19sXKOJLgRGg6w8AAABMAne+gHZ77LHH0E0IiajS4NwjnRN5szJPw4jdvFDrlwX+P/KRj6jPf/zjHw+yfpOjjz66z8u9P+TyuN18883iwTve8Y7K4XjK5ROz1/fM5MueSTPcFddgR/GKezKlFzAtYz1LlkW+C/U+yjTfoKXn59/JU+bNk8RUX+oMX7E7/UFYjq32dTAt2fXaQ1t+qCuBwS0p0xEWeuYptNnDIuEHAAAAmASi/kCLkWX7ICuErCT1UBQRYg8o7F2F+fn5xMH+eGHjkX0SxEhfLe1nwJPAyA4vHBH1BwAAACaBrj/QYjRlPSkbh1K0zlqQvgxi7M0V/fUsumR++kT/9evXr1+/nlKesIj6wSDhB2gxgoQffl0wVuo4xREodHdkwo9seQ7nnNlsZm+GaO3RRx+tHfCbbropasP23nvvqOsfvRw+XcGl3Cmi/gAAAMAkEPUHjEYQ769GGiABVJZiqUhGjbI3vhE9z0X1WwqRhhe/613vqqrqa1/7WtjV5oafhkykfyM4SwJGdP2BspQy91bsDaml/VN65zvfWdX66C5ZQKb6To0ZUKaCSK2TANgXiJ3noxkq7WcEvwgj2AWVaXd++tOfRtoiCT8AAADAJBD1B5qNIOQ/stAI4GgEsf8gmxgq9i8SZjrRov728Hw9rUhb3jRa2rRaGe9PnOoTO/A/sp+Ake2OYNkpov4AAAAAeqHrD/zeqlWrhm5CSKMMkAAuRvDhL7riuxY1d6n637hA+ukCyp2dYJSGmsRj9KjwA/yDPkk+9RMTPyEA+jCNZ201VKqPnSk/R2b4yAXqEwU0rsfyjMtfhzpFizyfDRs2RN0KfWWYEPUHAAAAJoGoPxDLUBNzEuwBRsPvNDI/P18NGvtXK+7Xg/f2oL62mMsCjUepdbiwdMwxx9g3FEO8Mb78BBRhwLeJqD/Qlz0NMeXXm4RIQIj6XUj/LfPbHXEBMCB7sr76/KxJz+3WG6CtNv1YAriYQnL/sHtH1x8AAACYBLr+QLVq1apVq1Z5XIU7RiZGH8AAkKf5+fnBY//etGh9PWDfugYtfmw/FX/1q1/t1952++yzzz777BN7K0XjtzIBuv4AAADAJJDihsmp1+/3DjN0emGCjFLiJYAm0vduqATxQmt9DjKOVnKskZog6q8JPtK36J+AohvfymPvmM0XCGZhYUE+WFhYSHa6iTrokJwiICW+ce6G7fdXXa6XjjnmmMFb663QD+Tof78y3Du6/gAAAMAk0PXH5MiEnz322KPP9L0A8pdhyK2PEncnfSKNn8Tx/nh1/QE7pvTCaMkuvszwkdRnSu/9F9cPADB6sbvRWg5PqNNgoTX+C/0VKLTZI0DUHwAAAJgEov4Ys3q83/RkGo2zzfdcG4ChOJaOGZws7T94qR+NOHr9T2X2d6F1/fLlJZ5Ui2tzcQ32k/NuEvUHAAAAJoGoP8ajXrBfS/e3ZP930vNqvn/sP+dwApChsDfcBlfK3QaTUMF+dW1V02Gxv+/1vxZ9VPPHL1cm6PpjPGSH3nINIOQwtNfjx5vzJoA+ROZP7LSfrmN8LWdC00nP8eKhMZNnNpupnf5yu/ul/CKU0s5Q8t9fEn4AAACASSDqjxHS0nu052XIf8uWLZXXHYBQd6vlGsoNOwETN1QqUZ/tzs/PpxzvW2+kfMb7uIndr5+E1cOi3lnVTtqN253NZl/+8pf92uNhw4YNfqX98w8qq8pqrQf5MStoT+lwYLTqXf+w38yCvufj5n7THxMX+5OQ/pPmvcU0OT+WTn8n9e+42tnyPgj2Fya7DHC8ACjuF6e4BneSYO9++tOfRlozCT8AAADAJJDwg9FaWFioB/6r5/N8qh6DfccdzCiF+7ugjfCL0xwUoPTCOHXeYe/Y431NGTXuCwv2HbTfVVDf7k4ngZRpP6M07p/IEewdUX8AAABgEkYV/wA0WtRfXKxv2bKlZ3HPEVz0F63n8R9Z3BedRH33h/poZZvxf+yxx6r/NU2a61HmuDHXv/WuTqebJOlj//Wk/xJ/a0pscyfJdjBerj8JPxgzbequHMr5o6fR/66gXEMlFHlvN3baz1e+8pWqqo499litefUKPJ2YCgS1ri3by36/Uj+5GevJeXz7RcIPAAAAMAlE/TE5ZPuEZZ9uM/ZWvFeVbfwPiC1lUX+LbL+DiVN9xhHyR0GI+gMAAACTkOk1NxAD8f4YYkf9Ix32bCOOSGB8c3t13W7iwP973vOelJsLJU34fxyje6tim91qqP2KN8yXHz9MAp3+4NyPSc9uULyDT+9/suj6C1wAaNQDeOONNybbrtb7L/EXp8Q2Oxpf15+EHwAAAGASGOYLtBhxMKOrlIciwbYY7ztZ45vWV3D/SKeM97/3ve/dvn17VVWz2cyeH+j3rbestut6+q+kj0J/awptdqux7ldFwg8mwi/hZ8TffD99Dkjrz2p9dh7vbXUy+O89BjHKub38tp7sMuD444/vNDTIchJovMjRrui6nkPqbUiW87PXXnul2VBYo/yJzGenSPgBAAAA0AsJPxi/riH/fC76s9LzsMiX20OS6Q8+aT/TxPueXtfZdmUUX5v9t56vJd9NLXHItMXGd1+75Zjss1FoyB/lIuoPAAAATAJRf4wZ8f4McZCBwYn8/vn5+ZQb/eIXvygevPe97xUP7PF197i7Fuyfm5urXniXoNOa1VsNUYmanpwSMzGdN4KuPzChL7wfjg/GapRpPy71ixJ3+k1cuuD1/9ZfpSX81Jd3OYnJxZJ9KjZs2CAelHgNUFZrG41gF/yQ8AMAAABMAlF/jFDPuXuhmkhcRN3NkcWAAbv5+flk9T1lqo9d42hdy7nIb1oAv3SgGET4P9vYf4ZN6m+UO+WIrj+mbsrffwCjlG0ik0j3f9/73tf413qzGx9bJgfw6M3X/5T+uIlOfyZ6To+Qv/HtUVck/AAAAACTQNQfo9Ip1YdLfzQi+QfIQdd5ALTnizvDD9tgdevFHTp0QtQfAAAAmASi/pgQIhmdcLgq50mIUTSXapgjlmyMr4msqun4LnRdzPFUJpeX8w8kVujNirJweCu6/hiH1jwfvu2dcLjquAYYt2zHxfbheEkja/wPdQ0Q+4TT9W0Vo5C/8IUvxGmO0VAnXk74U0PCDwAAADAJRP1RPEL+SGlk4WG5OyPbr8EtLCxUVbVq1aqhG9JBygL/OUsf7x/KpH4cJ7WzdnT9UTCm7sJQys3/afz9k09OPOu9py1btgzdhDKIvrWs7i+vPAc37Ie/6+AEb5kc7TQ4p9WR8AMAAABMAlF/FMkU7xdRN/nXScU2QuGgdVJKSMn9bSXzB2nMzc21fti0z+1Ya+Bs2LChUub0HetuJqbezBy2Jbkh6g8AAABMAlF/lMeS4q/+iQt9pJF5mNzvi6ANZijl5saw5PlnNpuJYb6wuOGGG+Tj97///eqfGj919U+yFh2fzWameLnLtyCfIQehmpHJ7iA3dP1REsb1Ap30/+2n9+Ank9o+mV+XSvYWyr9qi5n+q105mC5cTdcS48A3t0Rp3jUSfgAAAIBJGM8FLkbPJeRPnKMPjl5/+UQNI72b+exgDAH3LqsD5diYwYv6n3DCCep/3dPM5M2NTgNk62OI1Rykoey1115B1sP5vIgjYGnkQw89FGmjJPxgPIr4nueMshIjwNvnYevWrStXrqxCDGnQSvtnkvbjaPApvWTP+8QTT2xcwHSO8nvXsro8k/IZcoCxIuEHAAAAmASi/iiGDKcx2DcSQk39DVUJh/cuN2XF+6X5+flq6Myfesjf8YZk/6+eyDgaNu2H73IQHEYLov4AAADAJBD1RzH22GMPLY9W4OIeWUlcTjHx59++uTyTpxtt3bo1xmrFPcnGMxVameL99SfVz+ENN9ygjQ8u2saNG71H+k7813Diu++Orj9KQqoPSpEm8ye3nzp1cqWcK8rXj5u4Egh4hhFTepH208n1119fVdUHPvCBxr/Kz9L1118vLhLE8gEVXeEnt7NBemVVqhiwnST8AAAAAJNA1B8FK+XiHtOkfj7rBfvs4XA1fK4+o/0Xkna0vVcStrgnPJjeAvnu1G8LmF6ihYG1xepfyWGH+Yaq6D8a9juHRZ8Dh208XX8UgDwflK5+om/8VTMtZlkgT7HbKY9e44ZcunorVqxQ/7Rt27awLcwq1ccv+WrwMv8aOWNX45/sL3R8PoeEH2g6BU3yl8M5nIQfAAAAYBLKvnjCKMkYv6WQfw7XzSPDIR3ERBJ4QgXqPI6SumnTy7dt2yZm8616NzXn2Xy9d22o2L+W2FNv/3XXXde4pOm2T+Nf65+K4KOHu/LL/BnfOWR8e1R12amHHnooUhuI+gMAAACTQNQf2WnN7B9lJGBwHFXE4x5vtifxx6O10C9Arob8s4r3CwVF/U8++eTK4aTk+CH53Oc+p/5X3iKQUX9tgUy4x/7HevYe2X513Z14UX+G+aIYIzsLANPR9cub/ssu6vrLtJ9R8q5fJMr8V8Nl/gj17Dh77Rd5AXnSSSfV/6oSFwPa84On/TjilxFdkfADAAAATAJdf2Rkjz32oI7nULY9b+iGAMjU/PNib+jaa6+99tprZy+kLmAp9Cn/Kl133XWzJvWF4+5VaEtLS4T8c7b0QkM35x+Q8IMs2Hv8WX1nAIyMWuEHgxOJ/namWu+NPxbaCi1l/q+99lrXVmbAVKEIsCPqDwAAAEwCUX9kQVTGoH7/gLTJTQF4y7C8z8iYAt49KzVp9we0mwDir7HvDEy8sM8Idir/XSDqDwAAAExCYYNaMFaNuf7y0nkKdfcGt7S0JMb4Ev7HdMhx7Y2nl64xY1nXP9uof8+RrLGLe37wgx+sqmpxcdFxlmtZxLPxr7K4p+Nedw3WDh7+zz+67GEEOxVqF+LV9afrj+GZxviO4BRQEHF9VdH1xzRoxaxCdf2z7fSrMr8AqKrqlFNOUf+r9eAdfxrU3Wzc5fp6Ov3oyHXOzc1VVXX11VeL/5522mliPeLfa665xn2dqtF3/Utvf6OAO8WUXgDQ12xWvXzXuVW7z82vWLZqxbIX71Q9+VS1sG37I7/YvrBt+68fH+UvEQAA/4CuP4Yn75LL8D9dsJRGH+9/+a5zRx648zsO3PmVq+b+YNe5hV8sPrJt+8K27Q/9/XN/vNcOq96y0/zuy1atWLbtl9uom5dfAAAgAElEQVQ3b91+y91P33r3U79+fHHoVmN47tPfypPYwsJClXHCT6Fa3wVt1K/ju2aaHrheOdQl7+jUU08V/11c5OzRbqy/8q2flhyQ8IMsqDk/+X9tRkZ2/YUxXQCcfPRL3vn2nff+X3a49e6nvn73U/f892effc746XrRDrM/+eMdjzpwpyMP3PmBv332pm8+dd3Xf5eytUhPpP1YxhF17fpLmff+++T8xE740bJ96kyFfepdf1PBn8ZfGcefnvoFofivfFJm/nhzLPJT9G+l2vhCJyjwy0NzFy/hhwo/AEbo3Qe/eP3Ne6zeY9knr31in6O3fuQ/P3b3umcs/f6qqp59bunb9z39bz7+2N7v2Ppfr33ylfPL7v/ayne+bedkbQYAIDai/hgeeT45GE3azx/+sxf9+fm7/nzhuX9/8WO/eqzXJ2q3P5j78wt2XbX73L/7L49t+LvnQrUQ+bBX+KkcouP1eL8w4qi/KuodAFHwR9UYZ5Vh+NZ4vIn86fH7DSLq76i4BjdKthcM8wWAdheetvzQN+700Ysf+9EDz/Zf26O/Xjzn//z1fn+443/96B/cevfvPnHNb/uvEwCAARH1R0ao3D8IEe8vPdhfVdU1//Hlt9z91Bdvj5Kgf8JRLznkjTud/tFfxVg5htJa4pNcf7tIUX+R7j83N6dlhNuzq1tz/U1M63GkbW5paUms4bOf/Wyn9Qjjm823lHbaqTeX0myRqD8A2Hznmt3/fO3jd93zdKT133DLk7/6zfZvXrn7Qaf/ItIm0JXWca8iXMF2mhNKyrzfnz/RaZY1cyTTsF37Ytrz7l231uVN0wX4dfqFjRs3jqOifxGNdBfqajkHdP0BlG3HF80evGXl4Wc9+tD/iJuOf/v3n/77R7b/7e177HXU1ue2j+pXDQAwEXT9genSynoW6ltX7bb30VufejpFX3zj3z33uuO2ffOq3Q48hdh/jsR9gBFkr8XmdzcjGTHAt57hozVY/rVxdyyx/3rl/qqWLyTzdhrXUDVFtYPEud0TfrI1sni/4D7LR/7o+mN4pPgPYhxn55su2e2C//s3afr9wmNPLP7bix77yn99xbH/6pfJNorMiTJlpmo/6Oqaa64RD9Scn3rHq2tOv2lVjUMITHMzqRs1bVeMVeiT9mOR7ak724b11LMAVIao6w+gVH927ktv/d5TQYr5dPLDnzzzzR8+/dGzX5p4uwAA9ETUH0Mi3j8gOUSy0OyIow7c+ZXzy/6vSx8fZOuXXP/bq/7i5Ye9aac7fhBrYDG8uX+2xQL14cKarvf6FxYWihjpK+rzzM/P93l5AvaDr4bnTdP6qnH92LHb1o9KPaVn48aN0ZqDXkYT6VcR9QdQnpfvOnfy0S85889+PWAbTvt3v/oX79ll+UsGbAIAAN3Q9cdg5CS+SGzr1q2lD/D9N6ctv+Oep4ZuRXXnXz39kdNJ+xlMqBtWK1asWLlyZf+bkAWd0xYWFhYWFsTjZMF7D1dffbWcHFdLspeqWtq9+if1GW099eVN5hTapuvrqbcnFMvIYwQ34qNNwg8GM9Yvlbv6XenECk31WfHyuXe8befXHDP81cvlX/rt+pv3+ORnn/jVY1P/MKMsIh9J6/13zfyZn5+Pfdlw2mmnVW3DedUKPy4pPV3r+reSFyeitUtLS3KYsmW1ajOo6oOUiPoDKMyfnrH8Y1c8MXQrfu8//bfH/+2/IPAPACjDSGqUoizitnjmQYIERXztlePikdk+JUb9V69c9tVLXvH641vGZab037+y8vAzf7Hl0cWhGzJF9hG67p/w1u+d4xdT1vcsYpivjPoLHuN9UyYLnXHGGY3Pz83NLS46ffscqzReddVVXdvmYq+99lI/RV1/AfP/xRy6CcFksi8PPfRQpDWT8IOkRDZtJt8rE/vPQ7yueeK0nxL7/VVVnfyul3zmC78duhUv8JnP//bkd73kP1+Zy40I5ED0qou4AMjfmWeeWVWV2r+fm5vTnnEhM23sJ1uRtyOFuhKQZXxGkN4jZP5T7meUO6Uh4QdASY54807fXffM0K14gbt/9PSRb9556FYAANCOqD/SyaeKv3pZrxV+dn9tzyC9aRL4ZLH/bdu2FRf4f+X8sp13nP3t3z83dENe4MGfPffS5bPVK5dt3rp96LZMjvwMa5k/Q322RTbjUAP3u6oP9vWu8R/V5ZdfXr0w4UeN93eN/beKlPDjbQpx6AFN8PAS9QdQjIPfsNM3/irHKbS+9cNn3n7AjkO3AgCAFkT9MSGNYXXvK37vccCthedKCRmmd8gbdrrsS09qBzCHw3XXPU+d8q6XXHvT74ZuyHTFDvM73pQTw3xJ8R+KNgZA/Fey3x+QRUJFrn+M2P/ee+9ddf/RSTMJ8QRN9pDS9UcKg6T6mL7V+X/bo2b+FDSZV62LX71459nd6/SZvPxSsC48bXlVVRddFWZs7t3rnvmXJy4PsioMQnwv8klKTGnVqlVaqR93IkEoTZ0frR/ff0nTGUM8f/rpp4v/XnnllY7btRP9fmQi/55APCT8ACjDy3ed+6f/8w5B0novPG35G1+z4xteu+OFp4bprz/73NJe/3jZy5ZzRgUAZI2oP6IYtnJ/su02Dhd2XN5l4bCB/4Li/VXTsVrximXbfmkbR9vp7bjn/3km7LwmWx9dXLnb3G+eoLr/mCUei5+MNt63qzSx/3oaj71Iw+Lioin8r76D6jJiE/JdDvtTMuUwc1Z4I4hRASjDylfMbf1lmI71RVc9IRJ+Atry6PY9dlsWdp0AAIRF1B9RyCktBccM2qLTbVuD9EQaXFiOUsCuf1VVex648PDdq37zxOIb/mjH487/Zf8Viqh///WgaOKG58LCwgRH+s7Pz0cN/F9xxRXiwVlnndW4gAzzi+D93NycS+1my82BUFn+yAc/xBVdf6SRONVkqHoIwbcYNbsgt6L+rUdvxW5z2x517fq3XoldeNry3zyx+LLlc6/bO0xRTrr+0zHWMlyrVq0SfXfv6v4pR/2qxNshe/D2Yb7ae2daeGlpScwkIC853DWO6O36A5H5x4w+dLn4oQIwOReetvx9h7/4xTvPFherx55gHi4AwFQQ9Qcmp7h4v7Dt0cVX/9MXdV1tY9jsoqueOPO4XZYWqyeeWnrNu7fVF/Cwcre5B/7fvKYZBvx4x/4jxfvPPvvsqulEYb/Bq373tdsCpsW0aQE84v3Chg0bqt7VPLMN+ZcV7y+rtWkQ9Ud2yipEU5AVK1aITv+25w3dom62/nJx5Ss6n7Iaz/v/5X9/2c8Xtn/6+t8+9niwwQN77LZsy6PcQEDZVq1aJUcpePTj5+fnvZOFLNauXbt27VrZFZ49T1ts8Xna89oL1TWoK9HOFe7TCNTtvffe9X5/1648fdY+lp43dENyRNQfQBn8uv6NZlX1mycWLzx1+Z4HelYzrFu529xW56EIAAAMgq4/chSk1E/wqsylyzPM7/4ebfvl9hWvCFM984L/+JsLT10epLCPRNcf49Nz1G9Ya9eulY9FCpB4Rhb8ueKKK8TA3Msvv1w836nkg4zKy3j/mWeeKdfWiUj4EWT4fxy/RznvRc5tywoJPwDK8MvfLD70P57rcRP+BS66+okwK6qqqqpetMNs4989x3xeAIDMEfUHMAyPCM3vnl46cN+dvn3f0x4bijpm7q377fj4bwk4FW/r1q1B5hUR1f3L1X9y39j1PdU7AJdddpkIz1e1gbnqYip1ZoDLLruscRm5Tm89h/lW2YSxi5jEOpNjVQS6/shXqJ/h0kU67Q5b58fvNH3XPU8f8sbOXX91i5F+vQ5+w07f+CufViETcgT80A0ZicQF/htzckx9evkn09RgotPf/1zheJbTFsuthy2bl23fOtuGZYuEHwDFuOuepw5+485Dt6LBQQfs9E26/gCA7BH1R9bUQp8TvwPQZ2bHrOql9onQbFrY/uTvFv/Xf/Sin/5/z3pvPXhQbe9/ssOvH196eBuVPSek9SaSyJaRhTJLtGrVKu+cn/QT+now3RbwGNfrp/FkOOA89J1GRaNcRP2BcRprVePbvvv0m1+3Y581BD8sf/K6nW69+6mAK8QIqAXyS1dEPx7ull5Ie37AhnkorsE5oOsPoCSfvenJf3nCLkO34gXOO3GXa296cuhWAADQLkyRbCCBXXbJq8M3lNZ8lXoU5MknGzqmiY9nqNjME08u/ZP/aYdVuy/7m5965vxIQTJ/Tn33S37568Wbv0PUfwx22WWXTp8Ky8K5Ddb0s3z58uXLl7/0pS/t+sInnghZPLdQw5ZSGLGJRPofffTRSGsm6g+gMP/pvz3+b/9F575IJH96xvKPXUEvBwBQBqL+KMDKlSsJ+dfJIVn2sVn1eoUrVqwo+nj+7qmlPVfu8I/WLPvvG3sF/vvHZc9+3y5/v3n7HT+gts94BIn6b9myZfny5YFalIVOh+WRRx6Zn59/6UtfOvHYP1H/GCYS8q+I+gMeRn+CkEOyTGOztm3blkOd8hhDxz52xW8Oe1PfKp/9G3bw/juFnRUY4zCaAb5+RFF/dPXggw8++OCDsbdS6C/jWAtXmETdU7r+AMrz2BPVVX/55JV//vIB23DNf3z5ZTf+9oknp/JTBAAYAbr+GKFJxQYyF++NuO17T/3s58+dd2LftAq/T8u/Omn5xp89e9c9pPpMWv2Ts2XLli1btgzSmKj8vibz8/NTvgOwcePGjRs3mv7Kj5SjSf2gp9lTpvQCRktkmmo5P8nSTxOcwv7DZx7/6qd3+9EDz9z7N8/0XFWnqb7e9Mc7vvl1Ox7/v/2y50YxAq1ze0Ht/U9qioC99tqr0/KvetWrIrUE+ZO/mAl+Oon6AyjYMR969GP/ZteXvTTdqWz3P1j2f31oV/r9AIAS0fVH1lauXLly5cqhW1Gq2Ww2hWDkwac/+qMvrdzrn/S9h+lyW/kP/9mLvve53Q49M1bhBQxu69atW7du7bmSWU2QtqEspoQfcapJ/6koNHNm3N+gQYYv0/UHULZnn1v6p4cvXPLvX37Em/vW/LF7x4E7/+eP7LrXUVu3by/v5xMAgIpcf+TMI95fYkgjHhm8TFxeepB34e2nbbvyz1/+By+b3fD138VY/weOfvGBr9/pMOL9aCIz/k2jWhvDlsWdr+wDG0Q5/7Qtypo917+4dz+9ER+iYXeNqD/y1fW2+4hPEz1lUuA/ttM/+qv53Xf41lUrDnjNjt4rqX+K3vhHO37nmt13/4O5s/7s1/0aiPF75HkuC48gHch9Z1GX7N0vNNVnlHJ4L4j6AxiPT1z9+G3f+91fXPCybb9a/Oh/+c22Xy32Wdseu839h/N3ffmuc2f9H79+6H88F6qRAAAMha4/xmDwa2hIg78XG//uuXd/+NGj37rzN69e8cVbn/zej5+5e13n6vsHvn7HP/njnY477MX//uLHbrn7qRjtxPgM/uFPQx2i2inDZ2r3B8QYXzXtR/uETOQD00o9DrPZjMMSW8H3GTEFjun+nCkaySSf3XffvVIydBsPV/2+s1/B8qzeixOPesk7377zH++9463ffermb//u+z9++mnzBAA77Vi9Zd+d3nHgi488cOcfPfDMTd966vO3RRk2gPyJ707X4Uaz2UzO5+WX9Z7V16eVPDnIPr3jXk/qGsDS9U8jtw+V9suSW/Pi6bqnf/u3fxupJUT9AYzW9bc8ef0tT750l9mRb9n5tGN3+bPzdl35irmFbdsf+cXiI1u3b/zZc3v94x3mVy6b331ufuWyR7Yt/vyR7V+/+3cfvfg3Tzw5QOk9AABio+uPYmzdupUa/33YQw7yJr58UHS8X/X4b5e+cNvvvnDb72az6mXL51at+H1ff5eXVH+94dlHvvOUuBJ47LeLue4BkCN5rnC/xTHZeH+V8RkyGfUIDDKzAQS6/gCmYmmp+vXji79+fPHBnw3dFAAAhsAlFwrQGuwnmlKnVvMUuf7exlGSvCsiUlPm9+6ruf7CFDL+qy6Ha1JRf+lVr3qV5a8PPvig+8Kd5PZB0toj7zMP1JxEvHeQXH9Mmlbgn7QfJOA3yjkxrTLGgC0ZDb8BvsLS0pJ4Ydc5SUrn/mUR10LTvAAwCdjXV+Xfpc6/hR6K2Cmm9AIAAAAmgag/SkK8392KFStkzs8vfvGLqkfaTxFhjEgGH4vmfvDtN9O5J5CGX8H76ZhCvP9Vr3qVlsMDZIUfAxRpxYoVQzehAFpdf/gZpNMc73KLawAX3kdJvLBndf+qzOtty0ETPX55NMZ9AdA1gUdeJ4TN/MntI5Rbe4ILvoPxcv1J+AEAAAAmgYQfALBJOd43QWDMcS7ncajvrOOeinG6HhmGod7BEoufPPLII6a7HFNIf/KO2QdMEMrzA5Nnq6aMqD8AAAAwCUT9gXEi0b8swwbGChoNrN6E8ThoiWu2ajnuY7WwsFBNYDftHnzwwT6Bf21V9Sdb5Rlcz7NVE0fXH0US/VoG+yKB2N1EfhpdaEcp9kHreW7ZY489tLm9xkp0+t2Ne4CvX5ddXjP4vTxzs9mMU1xuSPgBAAAAJoGoP4pEvN9CpvogiIKSYcak9EjhHnvsUT1f5VOGurumxGQeMV1YWOg6Oy+z+dbJML8a+x+NnD/APZW7a3T9URJRcKPc7xugye3DPPgUZrIZsdfvsptbt271nkawMeHHUgPHJM9SP1qej32n1I7+xMcDuBhZwg8yRMIPAAAAMAlE/VESUWy7IuHHgFSfBEKViMktjiupDUt5ByDbA+LBsi9da/5kdVg6BfsbkeoTXFafkCq/9gQ3gh0k6g8AAP7/9u5dOW4ja+A46JKfgJS8xVy8KFlrV6py4mCDDfdpvwfYQIlr17LkRCI5lkJWmRw+gVQ7X9B2C8K1AfTl9Dn/X0SNhkM0Bmg0Dk6fBmACUX8ACBIx2KMgbrSR2T1QY67/xmD/2Pt5AqCDnXNZTUsZ+qM+ZPsEYjGvdELmiQ6mBtV18Rjb2tWJQHKaH5K4ZbarGavWzyRdeHLO5dT0tZSEHwAAAMCE8kXcgECPHz9mEd8QfrIvUf8M+mFjH07WFyvq6zQz8EmIHLMbvHGis69M0LEufB5r7y1dgreJFO/3O9OfI7e3t9s/Vo4idTnzn1PSzuLUSrV3t9sl+mQSfgA92hV+GPfn4TN/OpcHI1fH2ls9vV6bkFUOvNn7STem/8tf/tJ5JVzSlB6/P0Xt1Yj8alyJ7gHKnl/Vnd3rdPoEla0m4QcAAAAwgag/ROvk9pDqM6FT1H+/3xP4z0NlWMgsmd+mXw0gJIq/Ip8nNa1h/tT8Y4SmaS4uLkrFoWWeFFiNqD8AAABgAjfiqAYh/2n9pXyJ+gMbffPNpgBZZ5rv6elp+5+zwdTole87qfxLlxZeZzbkr2Oy75b8/k50f/b97dK0GULypqL+chqbbpovQ39Ug6H/tM7Qn3E/sN3Gob8bnP3++++d18NH21tG/0LK8Idn+1R9DxBrau/V1ZX/qMFbgsxjUzlD4TzktDfd0J+EHwAAAMAEov6oCYH/CUT9gbj2+/2TJ0+2f06/ur/P/JETYkzBSLy/Y3X438X4Z3+dqH8i0lpKwg/wFe4BBrnRP4N+IJaNCT/OxNDfkTbmiGVpYR8dNwArhv7txJ6xT2i/5/z8fMWGhdN6QA4S21gSfgAAAABsQl1/1IeQP4A8XMA+StpPmw9vd2biKl5A1IKIM30jftpSRg4/I80cRNQfAAAAMIGoPwAAZQxW1j86OrIckqxIosA88f4UdLduEYb+qAmpPhN8hZ/9ft8w2ReIIcp59OTJk/5M37ZO8f7T01Of+UMKkDTPnj1zP/gvJfq305n1m43Wg01fizYi4QcAAAAwgaE/qkHIH0AR0zH76PwkYF8c8+hrOTdmnXXbeXp62il7KtC7d++if+bFxUWpJB/1CPn3kfADaEOqDxDXxnNqxZ1Dp8J9Z0DsR9UqhzWnp6dVFPiPOCVjaYbP9fV1E7u6v75jSV+LYiHqDwAAAJhA1B8AgCppnZcpmZ/mG5HL9gmP/adezRe6EfUHAAAATCDqDwBAQt99993vv/++5RNc7rv8KbCxuJZKy/j38X430/fZs2fuqcv79++bGMX4/Sf48L+L7rvM/uh0PyzS3bqNKigUAMuo6hPu/v6eCb5AIt98s+kheawaQWOjf2kDnY1liKQN+p2xVB+386N/BZ0P9DcAsbJ9pB0z2ylr0W63S/TJJPwAAAAAJpDwA+jBOr4AFJCZ8DMmbq3VTrZP3/X1NdN8sQVRfwAAAMAEov4Q7f7+viHjf47bSwDE+u6779wPG+f7jqHKZ1I5s/zPz88783qjT/PlODGOoT9EY9C/CKk+QAr7/f7Jkyelt2KeshuAWpb1ja6Tz+P/GeUeQM3hgdVI+AEAAABMIOoPcYj0r0PIH0iEkwuDXEV/Z3tdf282uu/esHSyr5p4v2tIZ3b1xnqyphD1hzhkrgMQxdXOqkXxMVCsDbCZ7RPi/PzcWpGfQ0vnlbIbViOG/gAAAIAJJPwAteo8Htnv96QlADLFik26QPjYmr7KCJnmO1beZ6PD4TD2eGQwoh99NV9lCP+HI+oPAAAAmEDUH6iVnw/twv+E/AE4cdeXLaiuZX1ndb6O2fmp7em8W4L9dR0GdW1tjRj6QxBq+wBQ7O7uLsrn3N7eBub81F7pv+ygPzDVJ7C2z9i3MPvtrKvnA4wh4QcAAAAwgaE/BLn/U+kNQXKHOaU3EIgv4pLAt7e34RHxo6Oj4hU/1zk9PZU2p/ndu3fuh8PhcHl5eXl5OfbOuH2an+YbZU1fWEbCD8Qh7WcRf6ckv8LPoouff3OlQxZAmqOjo9Q31crOVj/Kd5k//p+Bts+4aCf5tEf8ilOAiPtkQNQfAAAAMIGoPwQh3o8+FmkHxiwt86+m8k8R62L/W3Z1J7dHd6oPx2Q2RP0BAAAAEwikQSLC/4sIr+sfK5ZD4B/57ff7Jt703FjFPfvWzYWNHmdNepKWKvQ5VuJzsEj/9CvrjAX7w3P9RQXURW2MZLvdLtEnk/AD1E14QaSIvTyZP8gv1h11ukH/FnGr/qc+N09PT3OO/gOL+iMcg34hSPgBAAAATCDqD9TKTrwfKCVWwo//BIHhf+b+jukU93Ry7qUt83qlfZvStke4pLuLoT/EyZ/oX2kmidtRAm8AkvZZ1PsHEslQ+F+4TpLPYM5Pfy+ly/Ifq+tfF+MH1az8+4eEHwAAAMAEov6wazpyU1FQWUhtn8yhi0qf1aAu7uS6u7uLUuRHYLZPx7qJv9lOQ1fIKN1k307N/sGof7aOrt4wP8IVeSRC1B8AAAAwgaE/xMmQvH44HGZvtUlPrAJfE+Dd3t5GiYgf/cn/c/tn1ujdn5b+YnvvrTZbtv/6+rr9ZODwtY1/HakV/JpI+IFEbvQfa77v6rNL+IxSUSt5caWBbi5XJ9baXtElyoGR2fUl0knvaY/43c+Xl5eZN8mN/sMzf+Iu1IB0yn5HRP0BAAAAE4j6Q6KN8X5iHqYw3xdou729ddNhI2qfX4fDQdnpNjid99mzZytSfYrwlzyB1z6BmwSG/lDFYC+z3+/L5vwI2ef6hiPQJHNtH5f/E/0GwCl+op2enkZMcBoc9wdyvd/V1ZX758XFRft1oE/CsUHCDwAAAGACUX/oke5mWnJKScGQv4ToBZDBycnJfr/f8glufrD8uv66uQC/T+OZjff7909P8PXBfmCCnCsmUX8AAADABKL+0EDOzbQd7HMgHPH+InzYvhPgX5Tfn7+mJ3QQmy/A0B/ixCrnH52c07hsRX+xg345XxD02Xi6kfBT0JZx/4RsPeHS6v6liL00lCVwt5DwAwAAAJhA1B8ibIn0Z76lLlhE0gX7GzEr+AIIRLw/v+3RfVHxWhf7B7Yj6o+KHQ6HIl1zkb/rx/1N0+z3+431RhQrdVTAgru7u4oG8RGL3yOD6+vrwKye8HcCfQz9AQAAABNI+IEILqQtdoLvoMyZP48fP24H/ouoKJrO4r4QhWm+OUWZyDvR3SXtCfvh/P40X4HJPxVdHfKQvEOI+gMAAAAmEPVHeSuC/ZLvpwFo5YL3W36dwH8Gbr3eWEU8ixtL6/evn52dZdycL7gQV4qhP+pDd1Okwg+7HXAD99U3APnH/W6m7+npaea/W9bqQX+pXm7dnF2f9kPnLIFfWEb+10HCDwAAAGACUX8UUNd03gksHwsAyKzzlCBzwo/8qDamEfVHAff39+1iNYGFaw5/SrZddcif7VPpbq90s6HYxqkCCPTu3TuX7p/I0dFR3IjP+fm5wKI9HVyCB3V2SxX7h6E/AAAAYAIJPyimeJX6WLKl/RSZ3Vs7Cvwjivb62Xd3d+vi9/mn+Vqb4AukU0VEPwRRfwAAAMAEov4oYOk0XzW32hu5uCOxfwCBVBb3dI2a9e7dO1fl0/+QBxcsrdwDZAXfL0N/FOBSfUJuANw7Gew6lPNfp90Ekn+AegUO+r3pyb6dlb/C+7roveK6uv7ZKLgKRKFmP5DwAwAAAJhA1B9Zqano35dhOmnmhB81EQ4o4I/G6bOsf9DGOivdedee7LtCZ3Jwtlm/KtN+FpkI/y9NB1LfMapv4DqadgvPvlFA4A1ApWdauhuAzDuk0v0/S3LOz5Z9LrldS0U/9uLunP1+H6tCf86aPwqG/ksTfha5vLwMedvYwXl1deV+WF2h333yzc3N0l90fzHWWaO1598o/2757bffEn0yCT8AAACACQz9gTrkXAaBJRvz277PD5NibWciqbd2+yfv93uf7UPhAWUuLy+nQ/6LDs6Nc3bPzs4Wvf/8/DzWWVNFX5FZLV3oIgz9AQAAABOY5osCfHFPH8lWPP0X0mRbfTlEtmCSqFZ7+WNpnb8YvkM6kX6fo78l6T//4r4qtSfpTlfzXCfbUeqOxvCHBkufD0xTFtjeQv2uYOiPYgE2sx0AABzHSURBVNoZLJ1sFp6nt2Ve3EB9r+cEVoxRRk6rhRxmq++I4hb8yXwPcHt7W+OU37E5vu0SPX4Nr3ybFU/4SbF6JvHGv6uYqZ1Awg8AAABgAlF/ILJEBf73+z0PQ1JYnQES8Y/mVzD8X7ztfRkW5RClxpD/hNQJPyu4pJ1+bL79lMkfdSvOiHYZ0C1pPwJPRmTA0B/FtPP72wk/DHBL4TLQpBwFWt69Wtt+cnLSztUJz/svkuU/URRf+M1AeDn/TsLP2Fpd7TuEido+q4/b9nC8/yH+lY3nRdxcf+OOjo60dlN9JPwAAAAAJhD1RwE+3u9L/bhXcpauR4edgMeswV3hHwWETwytYpemy/ypovle2fm+GBMS729P83Xh/LFgf/s93vv37zuB/+2H7paz6ezsbMWCvtiorv5qI6L+AAAAgAlE/VGAD/Z3XifLfxC7RYJOTEhfiChW4f+q98zqmR61n6QuuC484z9ESHJ/IhcXF7GS+Gdtn+ALywzVNIAEg4k9jx8/rnq40Bc3dyL1zlG28xFF+DGs7PhZd/K6hB/h03yXOj09LXVLMJvnM53S0+eO0vfv3/f/qz/Nd/UhfXV11bQK+yz9nPA8n8FBv//1wFsCZWfuCsL3wG+//Zbok0n4AQAAAEwg4Qf5+AyfTqqP8DvvFWLlTgCl6DsrAwWevC7Mf3Jysm6Cb+f5gPCHAJlX/w2Z2ts+Plf0tBMFPSNaXbZ/HfJ/Apnt3DyG/sjn/v6+n9+PCS4zKlEaMd0fsE57fb2NFX6ED/q9pJk/4WX7U9vYK/bX8MqsnTI0didgtuc32/A+En4AAAAAE4j6oyTuwotgtwPTptN+fJ5P54nc3d1d+EzfCT/99NMPP/zgf/avf/r0afD9P/744/Y/2tcPxvtXaqkFtKivS9QxhiwTu6iQ/1g4f+JD6PPRRtQfAAAAMIGoP5CKzMm+hH+AQLNl/rcv4uueEtzd3f3888/+xc+fP7969Writz5//vzo0ZfLt39zP/zvHhr4ZwiL/ndCrNT/KFn+Y19Tv68bnN1bY/XkwLr+9PYO+6GDoT9yGJzdy9k47f7+vvZ1ggCt/Lm5ffS/Qnvc77QH/e3bBpcj5F6Jnhe0sfLPlnG/q9AfqyR/lFI8rqh/s6Guf6BOYs/NzQ21fQYxxhhDwg8AAABggqxUBKg0VtDTyB35loSfuMU9jexwILqJs7gz3/ebb5YF1Fxxz19//dWF5z9//uxe78zo/fbbb/sv9vlfd/oPBzrcx65I+JnVfhqQrnanj/r7L2hFLxerYzwcDtfX102MqP+iWb/Nn5k//d96+vTpug1QQMH1jtV8AQAAAGxCrj+SYyWvpVywvyHeD8gWK9H/06dPnYC98+2337pI/2y8v8PH+93H/uMf/2ia5tWrV510/+nJxFukXqWrk+UvpIuLsqTX0pD/ul9RTMjBIBlDfyTHuH8pt8fu7+8Ha4cHovsDYunUkGmP+FPPxQ9M9Wnr5/n4Ib4r6fPp0yf3sWi2JQtt/EVvcOzembzL+H4WV71AJPwAAAAAJjDNFzl0Av+mbs1XTPONkvBjaicDqS06kVdM9vXx+PbrPuEnkEvv6WT7NEPPATpR/xQzfaMbrMofxcbesv/r6z5wtlr/0sC/qWm++i556ab5kvCDJEjyWc2P+5te8ZBA+npAoLj2Cn0+4Wfs3Ly7u3NrdYUbHOIvTfF3+tMGOvcA0Qv81y5KXf/tH0h5fjRZruAk/AAAAAAmEPVHVgSkASgQfXbv2HK8IQarA03ol/qRqZ/hM7aI7xYprkpCrnS73a7Rm/YjZCfXiKg/AAAAYAJRf8RHon9bpyxg0j+U4a8AaObm4ZycnLhlepdm/C+1NN7v/d///V/TNP/617+ibk5yseL9EVfwTffhfW4ygL+m+GnBY9N/ifdXJGejGPojPtbw2uLx48dLK/yo7AcBsUJOzNT1/tdpr/BlWfR5vU7Srth/+G63c2N6P7J3twQU/q9U/is4CT8AAACACUT9kQ/B6RBLi3uyV4Fs2iU+p7mTdzbhx+UFpdPOCPrnP/+Z9G+l9v79+9UJP50vrtJu003bbf/Q2CsJWul3JwpDf0CK9qA/BD0goFtn4a11Zf6b+gf9nqvw08wl/bu+8erq6uLiov96R/9tga6urs7Pz1f84lLTXf3Nzc1YTn/VFX6MXOCKNJOEHwAAAMAEov7Iwcjt+2qL4v3sTKAsv5qv18/KEzLNV3i834Xbr66uBl/vuLy89FH/wQL/vm/0H+h+GAvq9//umPY7faQ/XcjfTdgNj9a383/a6or3W7u0FWwvUX8AAADABKL+iGasoKe1W/mIXOCQHQjINBvaX1fd//Pnz48e/XF1dj/42bruh0ePHk1U9Pe/vrrqfyIXFxft8LkPxp+fnw/OnB7r+vwvuth/O6g/HeZfym+AC/BfX1+HvHmjiRqdLoo/FuOvF9e4zBj6A0IdHx/TIQICHR8fB67Tty7tp193/6effmq+nvU7Mbj3tw1y+LH44KB846KH7Xm6bowe2HP6jJ2l70+qvUSXvlF+n83LXNlWk/ADAAAAmCAuNoB69eeqCpnoVtx0LfClNT0B1CKwuv+sH374YfD1f//7300vzO8fBZSa4+sTe8Zm8W755KaXh9OUjqEm+usbH4bIn+NrM94vAUN/JBSyIhX8HAnuAQBr3F3BioW9XAqQq/TfKf8vQTuxJyTzvuolt9xmS9vm3W4nefQvbXdlIKfJJPwAAAAAJhD1B4R6eHg4Pj4uvRUAknvy5MnSwL9LAXr16lXTNI8ePXKBf/cQQOA032k+GionLFrW2dlZ6U1IyM63LLalRP0BAAAAEyqLDQA1Wjdbi5A/INb03P0V1iX9//jjj7E2IK649fWtccU9z87OXPjfHWwWCn0iD4b+SIKpvYswwRcwbsVMX7HCS/qIzYhYJG4r2kt6TSzvBaxGwg8AAABgAlF/JOSKezY8BABgmI8KTyQItWv/a3oCoJvwpxYuR0hIiU/h+yo6ye2NlqcITGDo30xe9QcTfsj1B+QLSfcfe8/E7zL6B5AICT8AAACACUT9EV8nxu/TfuAX7p3gnwAQ9QfkC4n67/f7sXN/7NeJ+iOWsgk/h8NB5mrHESVq2ocPH1J8bEPUHwAAADCCab6Ib7/ftwP/JycnBP5DUOITsCZkBnB1Asv51x4GTr392yt7MsE3narPXIb+ACKLvtoRIFbg0e5u7CdS/jSdNb6uv7sH8CkfjdJRYFwRa/mLqvCjVY2HNAk/AAAAgAlE/ZFEO8OHyp5L1TXBdyzmUfXzUCCi8KRHd9aoyf3znYCmZxrpTMf7z87OBt9wdnY2/Qm73Y7Af0Q1hvk7GPojIT/oNz76D0wGqE5gD8hVH3B94P39fUiZL60UjJly8mN9P7h3P3R2Y/uf7SF+8RG/vq9bTYtI+AEAAABMIA6HJIyH+R33iL+9K6Yj33VV9F8R/yDwD63Cj+3Ad1b6JHDQ+fl56U2ILGn09+bmpp3Dk/rPReQf8Naywetkax11/QEAAABsQq4/EvIz2yw/BPALec6m+VYR7G82xDxI+odWgcf2xLK+kC9PuLcd8q8ofN6Z0q2SmqYx9AfiG6vm0X6I3x8BPDw8JNwmAAJoyuQJdH19XWnOT9mhnvyBpvwtjEhTY0n4AQAAAEwg6g8kNxjnyxb8i5hHlCLsQf4P1Ag5mAML/CsjeTXf9gokEjZPwjbAU/l1MPRHQmZT/F3D113jxWb8J+oBD4cDo3/oMHsw2xn3dzJ8RI2fZlchTPQXO/c/Qu400OHPYsXfDgk/AAAAgAlE/QHMSB38oPIPoMz19bX/WcIc34IR3LHSN4qDypWyUKTIIeoPAAAAmEDUH5BCZpZ/tvgHsX8oMHYY687yd3H94pF+OcFaOVuCWQa/LIb+SKJ9nTM72XcpV9df5g1ANsz6BWqXYdxvcLgmjYKvQEET1iHhBwAAADCBqD+SINK/grR4f6mICJk/gHD9DJ8mfbC/lhhtLdu5mvoGqsfQH/Ex7ne2VPcvS0LP3l5np+yWAEvpzlvzQ/x0Y30JXVC4urZ2NSPNtICEHwAAAMAEov6Iyce5CfwvIi3VRxTyf1CjznFb7zPApAgkIz+OOqL+AAAAgAkM/REfIf+qyYyIyNwqYBH6Rufwp9IbgiCaviw1DdmChB9swpVsQuDDfbJ9AjHxFyhr6bxercMsre3yVDZQZaPWIeoPAAAAmEDUHxG48DZPADr8DhkM/wsM9tcSFGHiL2rRP1bb/WRFs36Nx/uVNccavr4Ohv5f+dvf/jb4ev+4efPmTfrNwWKDZ3jZMeLY1f3h4cH9IPAeoArcAKB2JycntYz+3epdqRftApABCT8AAACACUaj/mPRfaxTNtWHZ3lRVLobmfurVeeA5PutSKWdCVR+cSobtRFRfwAAAMAEu3GURYH/ibtGkv69bLH/TqA35J6+SMiwluKeKoMitQSJV+z8Wpo2bd1RV2nbJza7llz/jrGkf2WdibLmdOhunVdvMz98+JDok40m/Hi//PJL+58kAtUl/JTOPCW0lst5vX3irLGmFR87bt/n7U8o3pwVtuyBw+FQaZNr3OyllPUnyprTprhpnoU2rkbCDwAAAGCC9ah/YJi/E7DxIRxuKzNP8N24w7PF/ju7ZfohwMPDQ5GcH5tHb8FpwSl2eEXh5FjNn/4csXtjrPNxfUUtzwn7VNbY1do3qmyXykalZnfov6XDUtbNSVb1aKney7kF2Q6D1FcmsTWOilySxe6NadPL/yGPim6k11ETslTQhLJI+AEAAABMsBv1d9TcBKuU7ntJPVGS0F0VEtWGKtWfSJj+K6cvrTT8Xyk53/sK7Y2vuiGz1LSufVKraVRORP0BAAAAE6xH/f/3v/81G8JCFPV34e3ok325j0+K3Rsu/MmAqL2aP+YtqvltouahzmaT1z7rt0ZHR0edg0TswbyUmoYM8t+a7mamYHfo3x61U85fCE5g1EjycZv6HkBy29vk3ACEbMnJyQmj/5wkHBgpCIxKRGEnRysREn4AAAAAE+xG/ZfSevcsRMEdq76gWwfHsE39772/XEn/xelPqE4tJzsh/8zkPBQCMiDqDwAAAJhgPer//Pnzdb/4yy+/xN2SSmVezTcRQj4waDCKryC0P62Kop+s8JVH52hXf/BXiu8lOutDfz/Zl5m+BQk5sUslAxwfH+f/o4BxEpZBqJ2QrhuDFHw7CpogEwk/AAAAgAnWo/6eS+CZiP1z94lA4c/oM8f7OYaBQTmf+D08PDR/nvsTf1Ryqs/5+XntnUnt2z+t9tbVvv3yEfXHJvv9XvIlaqnD4bC90wmc/5Bz3B+lXQA2cuN+94P/uU9TpyrBoaf0FiWhu3WIiKE/AAAAYAIJP1/p1+1h+u+0jRV+ZMYnlBX8kbmTAVMGY/z7/b7GImnX19dnZ2eltwJf0MljEaL+AAAAgAlE/bumw/yU8+9wOanrAldiAxXr4v0C03PF7mFAGmXP+uDQBwJ9Rof+z58/d128L+zjO4h2T+Gr/mNMjU+rZ6UeBOSZ4Ms1D5DGn/s+/8eHDOrqS29ubpqmIe1HAmVdvbLmyETCDwAAAGCC0aj/mzdvOok9LsTbWeO983AAiKJd2BuAHOkK/C86309OTgQmEFZHffxYTQPVNKQW+of+07n7/f91ST7udRJ+EuE8T4rdC6xG0n+IKlJ9jo6OtHaGWtuFPEj4AQAAAEzQH/X3E3mbpjkcDi6Q7zN5+vw73T+fP3/ufuAJQBSKYxXtWXqDD+szZPgo3r1ATsT+FaA/FI4vqBSi/gAAAIAJtkIaPoS/GrH/jkUF6aq7xV8d8+tE/anmCVQqdeB/7POFT/MVm+tvpBvU0UwdrUjnw4cPiT5Zf8JP25s3bwJH/wzx0ax96N+/ZlPSB6jUxswfX7/fme0EhI/4hVM/lNTUQE1tqQ4JPwAAAIAJtqL+4dzDAWL/WKRUxI7wCaAJdf2hD9cpORj6T3n+/Dmj/yg45wHUa/VSX0vT/BbNnoJn4RJjoY3I8y2T8AMAAACYYCvqv73CDwDAoESV/llAADAu//Mcov4AAACACbai/sAKq9N88yABFKhdv5MZTPqXM/f35uamEVDd30jvV3Uzq954rRj6YxN3KZqemqbgzN/4UJ6K/oAOpfJz5Az6hVBwWQlRdTOr3njdSPgBAAAATLAS9WeCbyLq4/0AEB0rfK9jalY0F1ALinzLVob+vjw/9wBxhST82OH2Q+fRPFd3QJkt83/coH/wM5vxQe1g32KW7jFxRa0bPGgr2v6yCu4oEn4AAAAAE6xE/T0X/if2H4upeP/ss2bi/QBCLO0cZMb7b25uihf50aTSeLm/Mla6/UWU3VdE/QEAAAATzEX9iffHNZbrr/juv5/mWyogp3gnA8Ktnm/aifcHzvcl11+3ujrzwa2tqwlFyNlF5ob+iMtUws8YrsqATavn+/oRf2fQP3ZHIbN7yZztI2fkFFdd7aprazGIhB8AAADABBPFcZum+f7776ffMBi58SVBMc3H/k1N9wlM+0k32dfCTgaEi1tj3j8NEJJVGCh6+N9I51ZjM2vcZiGW7rqPHz8m2hIrCT9v3751P/h7APeK/+fgY9bnz58z+l+BrsFxg/6Hh4foo3/2MKCbqbWrOtT3b+obCOFI+AEAAABMsBVRmEj78cGVdqyFkH+gTsKPEbNP5En1AYxIF55vf7LAtJ9YqT6m+rRKG1vpZsshJ+GHqD8AAABggpWh//fff98O+R99rf3O9iuzk4PRZi0kENheN28PAFY4tJTelgE3Nzc3NzeltwKQ6PC10pvzha1pvu2h/PTX4P7XTw4GFmmn+jDHF4BWWxJ+DHZlBptsTRVfsZWoPwAAAGCc3Wm+Lqunf382+Drh/xDpZrWKNT0DL3pxzyrCCYBBqatwCs8bDI/9W+7E6m17vVueU/S9xDRf1OHh4UH4JSoFaWl8ADKjEwhhcxfV22qOaq0Y+gMAAAAmWJnmG659j0uezyI+3p9i/VqBHh4e/IIGY29oTOZBATYdDgeb6+/OshY87rS30uZzMAeq7vsl6g8AAACYYCXq36/QP32XRrwfs46Pj8eOohSR/uriCgC2q2L2lCvtPzbZl76rUnxxWlkZ+odj0L+dzRSXdK2m/wXM8oXCSm9IkE5nZTNjpPYeu/btT03B/iHhBwAAADDBStR/rIo/EIsPy9l86AHAuP4V1to111p7rVHz/VoZ+ne8ffu2n/3fkO2DDcjvB+DO2YiJLlWk+jx9+rT0JpSnoLtW0ASEIOEHAAAAMMHK0P/Nmzdv3rxpv/L27dt+jH/wUQCWqiJMJR8BGACQj1VvURcrQ38AAADAOCu5/p1w/lh0n1z/jYzPcGX5XgANy/qaoSPYr6MVqWnaS+v7ppcvX7of/vvf/0bamKwY/adjduwbq8iPpi4GsGzjDcDDw0Nddf2tzffV0VfraEU6pfbPx48fE30yCT8AAACACVsTfqp7pkmwPymz8f6mnrAcgFpY7lElUxMmV9MQLDIz9PdZPWM6x83Lly8l5/9MFPBx/8UNwBZcpaKgLwbUCCzz7xN7IBmdsymKv24SfgAAAAATZkIRs1H/Zi6e4W6bCj4KWFqqn8D/IkSqmnizex3FkQbApliZsfKzCnVP89XXOetr0XZy9gnTfAEAAABsMprrHxLvbwKCGWVT///6178W/OuKEexvi1V9T06wAUBERsr8Kw75q+ycVTZqNVN7Y2uFn9kerXMLIXkScEO2z0JMTXP8oH9wSS/2EoDA+b5AOqZGt+EM7hYSfgAAAAATBqL+gak+wpHqk9RgeNsg+bPuBOqEWIiDwo7+c3Lfl9KpAjkZDPZ7f/RBL168+OPfyy/D7V9p92tjuzVnzg/lfVIzfqEaHPqv3ie6e6LZ1nEPADv6R3u7M5noQySHG7Tm+qvpmdU0ZKNa9gMVfgAAAABs0k342ViIYOJ3meCrEg+po6glCLFOYOtIBAIcXxuAIgGIQvclJhA7wSPqDwAAAJiwtbhn83XNMv/QgLsrWNCu6E9wLi7fhxD+B6qw2+2UpfszktGB77FjYOi/tPxw+53+56Ojo86+doWDZKb9kO2zmvHxbnvKnf/Z+D6JbqzXnu2jOl3ZdO/PDQZymr3OdlYLcehbcqp9vFj79kdESLqDhB8AAADAhD+i/ltm9w5GL/7zn/+0//ny5UuZ8X4A0eUJrvSnBQ/+3fBJxgT+UVA7e3Dsf2ffhi3URIXVNCQK9kYfUX8AAADAhEd///vf3U+DebGzYbDAWH7mkP/SlbywDomn6CsVYtn+d2cnFi+aB9XfHp4qYFY/qD/YzfrVfxGFjsCwjlYgg29ev379+vVr/28dhw7TdlHQ0kuyjpNOk8OI6f8dfHP/Y/3P+dqD2rSH+w9f8y8W2jSFOBm1GuuKQcIPAAAAYML64p5VTNsdm/nn8XwA2IiwyiKdwD9ZQJatmFxOvH87uiwL+JYnLF7Sq4oRfxNwWWXQvx2LzBtH37odK5cBqanvqdQ3EHGR8AMAAACYMBP1r/dW8tdff3U/tKv9EOmPzj19JvbvmNoP9XYOMpH/g1m+hxGb9rPb7Zqmefr0aakN0N0vdR4S6m4s0iHqDwAAAJjwR9T/9evXvsB/h7+5rDQc5SL9VPpPymbsf3vgjZgNOmpP/a/3SlHK2NMea90pFuHaMYGdM2sm4cf3R/6Hly9fNvVM9vVI9UmKq5QpdKwZhK8IVipTaOwwGHyd+4Fpym6ZdrtdkZwfrV2T1nbFxV4KR8IPAAAAYMJA1D8k9vDy5cvqAv+AKDWGKGrcZjWmd/7Y/8aKJW/86mtPZMqsXze5k1R5fHwsc6ZvwQm+TcBKPlCJL32pL0P/169fN00zlvHfwbgfbf4i5K5MNuv9G2wy5JN2UexsD3cCXjtxi85kNUrfWMN3vQIJPwAAAIAJ3aF/YAzGTfbtvNJ/ETapD1k9PDz0n7aHP38/HA4EKoDmz3OB02HW8fGx+n51Ow4nIARRfwAAAMCEL7n+L168aP9HeAomwX4QjrKAWBqQWnip1navK3PKL5AUl6TVvvQvnaH/H/+9dg4W84BtMnIPMHahnW1+1V1V1RuPuhif/rui+aJG/6Xq/Gjto7S2ayP1u+Xjx4+JPpmEHwAAAMCELwk/G0tiEeZH0ys+jbZ6QxT1bjkqpWx122x8eeXSG5KV4g5KcdNWY59s92Xo78fugbn7pVaPh2TKBv3cyTT0syjE8iWm9juf3W7nfoiV+UMvBEREwg8AAABgwpeo/9JCPT4mQaoPVPIPzcMXJx57SlBpyKrSzYYm/iCsOgqeQbvbOT4+tpbzowkdbwc7JDqi/gAAAIAJ5PojpsFQkw9B1ZU0v2Jr62rgBKIskMZa+L/qK2zE4p4W+iILbYQoj/ovuXuA6RsAjlQsomZM3BionsHZDcmqHhNjEd19ke7WRcEuSoSEHwAAAMCEgai/03m6OnHv1X4+4EuSMffXOMXlpSem0A3mNVUUt6hoU2Fc51jlIYAQVPOcprVdqMvo0P/nn39umubFixdjbxis8PPixQuObPixr6Y8H0/l/QxQNe4E2mrsoxg5wONgSI2EHwAAAMCEmaG/i/1POBwOL1688A8HuFcz7vj4WGWkP1Cn+YfDoaIzoqJNBaapOZjVNASYcPha6c3Rj6g/AAAAYMJorr83dgfWed0H/mcfFABVG5vmW+/jDqIs0EdNDdAVDWE1X1SEC1B+80N/X+Gn3fW0/+m+Nkb8BvnBbo0rdqGhz4V21hYCc6ob9xvpiIw0E/KR8AMAAACY8P9+yqrElyokbQAAAABJRU5ErkJggg==;" vertex="1" parent="1">
          <mxGeometry x="980" y="440" width="160.52" height="120" as="geometry" />
        </mxCell>
        <mxCell id="lHLvW-LTFp40BhWTVn9L-31" style="edgeStyle=orthogonalEdgeStyle;rounded=0;orthogonalLoop=1;jettySize=auto;html=1;" edge="1" parent="1" source="lHLvW-LTFp40BhWTVn9L-7" target="lHLvW-LTFp40BhWTVn9L-25">
          <mxGeometry relative="1" as="geometry" />
        </mxCell>
        <mxCell id="lHLvW-LTFp40BhWTVn9L-7" value="" style="rounded=1;whiteSpace=wrap;html=1;fillColor=none;" vertex="1" parent="1">
          <mxGeometry x="940.0799999999999" y="420" width="239.92" height="190" as="geometry" />
        </mxCell>
        <mxCell id="lHLvW-LTFp40BhWTVn9L-10" value="" style="shape=image;verticalLabelPosition=bottom;labelBackgroundColor=#ffffff;verticalAlign=top;aspect=fixed;imageAspect=0;image=data:image/png,iVBORw0KGgoAAAANSUhEUgAABAEAAAMACAMAAABipo4BAAAAAXNSR0IB2cksfwAAAAlwSFlzAAAOxAAADsQBlSsOGwAAAa1QTFRF7+vnAAAAv7qwNjY2NTU1NDQ0MzMzMjIyMTExMDAwLy8vLi4uLS0tLCwsS0tLRUVFNzc3GxsbTU1NTExMODg4KysrRERESkpKQ0NDRkZGTk5OT09PR0dHHBwcUFBQUVFRGhoaSEhIUlJSU1NTSUlJVFRUVVVVVlZWV1dXWFhYWVlZXFxcWlpaKioqW1tbXV1dXl5eYGBgYWFhX19fYmJiOTk5Y2NjOjo6ZWVlZmZmOzs7Z2dnaGhoPDw8aWlpKSkpa2trPT09Pj4+bGxsHR0dPz8/QEBAbW1tb29vGRkZQUFBQkJCcHBwGBgYcnJyc3NzdXV1KCgodnZ2FxcXFhYWenp6JycnFRUVJiYmT08QQUERe3sMxMQF8PAB//8AXV0Op6cI4uIDbGwNUFAQJCQUbW0N4+MDqKgIiooK1NQEfHwMxcUFmZkJMjIS8fEBtrYGXl4O09MEFBQUpqYHe3sL4uICbGwMQEAQmJgJIyMT4eECp6cHT08PenoLiYkKTk4PiooLJSUlExMTJCQkyMjIw8PDzMzMv7+/0dHRIyMjs7Ozu7u7EhISIiIiERERONmv0QAAZddJREFUeJzt3Yu/3MSdJvzRYhJCZriYW7jGBoMBY7CxY3DwGBImAWYgQOAFJ5OwySSTG7vZifd+fRdIZib7ZudvfqVSleqiutevVKXu5/nA8Tl9utXdaj3fo5LU6j/7swFBkGPNv/ozCIAgxxsIgDTNLSzipxNTbnXmS+F8+cviX5Zxml+25TYzlosc+UogtzvDnuLtX83JnzvyF+EEXgAIgDTNLTIneDK7b0rgTWzdo3sfKL+WtO57+g8BkN0HAkAA5JhTSYAAAJECsFrHAxArQBICf+4DAAIg+8odd5iXrAXI3QIQV/2sdYC4/tcQwFP+WAcCLwkEQDYMBIAAu8mdd7Z+BAeWO0TGb9kFd9111y23EAtAXP00ARr1HwLUCQQgDgSAADvKnXNaP4zU3H333eoP7R6IkTuM8IujBIgeAEQNAeoJQNx+CNA6+6v/1P858ru7lYubPKaTJ++55x4TACbAvY51AJMAwv7fdtuOBIivv0eA++67L/ACQQBXIABJIAAE2F3uZ1/nUcDkQLcU2ErtFGDzR3dyqv9JJsCagFmBW4ICJAwBiI4ByOh+Qv/ptwFAAOqw5t9/p5rWD8nI3UYG7S99KPUf30k999xjM4Bd85ZbbAbk9f+IBfAEAqQHApQGAkCAPadzAWKLvoEArN3zOF9cNHX9ZLwAdx2ZALHtT+g/BCAPBIgNBIAAB5pRgCldCuAhIPBragX0hs/tjxfggQfuCu0LSOt/BQG+QixAhfoHBLgPAqTm/vuH4Wv3368LcOedD7K0fnA8/l6z7yIdyKHgoYfYP2O1h0WBe6ZLFAE0DMQPJgJD6IggagGSDaBdAYgVIK3/PgHuuw8CJAcChAIBIMAh5341BgG9DAo89Re/r7dr4OGHHjJX85WS20YB+m+ZBGzUcEvgfQGpANAKEN3+eADiBKADAKOAnIjmmwAMwyOPPLh9+9U/7DF/0WN7r98unoGHRwDsAohv5n+szdeQGFz7Ak/0sQJAL0DcGgAEaBwI4A0EgAAHHocArR5O7JA+P/N2A2v4iH/6zvjN2oCTugDqiMAmwDQRE4ACAcL1T+s//QCgzkYAb/shQFYggAwEgABHl2UboBSAHSPUZjfAo4/O5Qy2WD0vQC4D6h2fZOVn6/vDtML+mNj2z8YAtnGAHA6s9gWc1C5aLj1JMwqIKH89AOL7HydAWv9jzhMKAdIj1wLU/QBNHsokwKrpXglEoquvvKNYyUk23n/ooce+/nUmAK+sfUdASuR6gWVLQOaegHYrAM0FCBsAAdIDASAABDjmrEcBDz7ySBsBbH0NHRVcsN1A3O3DU5gAJ9koYM708yxAKQM85igg92gAUgES6h8vQEz5MwXAvgDKTGcGWR8LNAogsvUDclR0dfH05ZTvhikCsPrP/z10Uvb9ISkAUQZjHSBPgFb9p/3jn1v/0DoABEgKBJgCASDAceb+++0CPGhkw4fkEGD+nfbrYTh16pT7hvH9Hx57+OHHHnuYDwTm3vNVf+VbEgEesnxcSGL/SeufJEA8AA0FwPsCkgIBWCAABDjauN8TNOfOrccBPgGW68TcMNqA8YsqgCUn5Zey/j9kE4Ab0KT+lY4DqCjAX2AUUB55xJ/lXYGs9I9M6WM7gAqBlwXXLU+FDGACiFgF0CwoEmDIFCCi+R0JUHMFAEcEEQQCQAAIcMyRx/3zU4ON5b+fXzyX/pElDR6ercVzBt/5Pdw3O+VBYL7dw7bMewLCKNQXIKH/lQToYgAAAagCASAABDj2TAKw8muXzccBTN+fbkWAVk9W4vnyU9qG/9AtowUQDlgN8MCQRcAogOVoAFIBEvsfIUBC+SudGDip/hAgnGWLvykAC18HON1kNcCo5WDs8PNHKfr07SktAQCGx8TOAB7jRycG61WEk8a//BCj+edBWQc4cUIRgGQjQHr7CQWIL3++ALEAQABvIAAEgAD5C+n+o+z3F+8IZJebm/2FAKdrICA7rl5gZOlvykTvNssfMQ5gArDM5X9MTcywILSxYBaAPUjWfaX+NALcdluNEUA9ACoJcN99OCIoHHnw/5j75Q+zAGwX4CNaTp+u8ChWBKwMUPqbMk1b/xMFsOZh5SpOCfSsLx64ACeIBbitnQBf/epW/Q8JcJ9MYEGBABAAAkCAoww/zufO5SyAyoHAy4XiiKCaGwLWABgCaP1NnLi4fpIBg6P5VgEithI8pNrwsBTArD/VKCALARIBMlKh/xAgKhAAAkCAoxWAHenL3/Yj6q4MCe5Ur6ncpsooYOmd9rMDgGQB0sYAcQKsRFDjGx2ogwRb/wMCxPQ/6yOCGwpQo/8QICYPstMAy88Cm//6i3UA5XrL+wFmAU6TI6A0bwj1P0eAQXMgov/JAjwmmu+ToViAqP7XEyDY/80ESAIAArgCASAABDhaAea3+2nHA8xvBFh2DChXfVDchAtA/mjYOYHZd+tC6uXPFUB8GzEIYFdNFSDIwyqDdSsAhQC5BJTWP0uAjP5DAKKIHX5yd6B6OiD1mgsJfDvAaeqHIrrn739y+c07iRfg66QCWCFgjylJgFgA6AWIq//tiXsDs8ofFuA+vf8QwBkIAAEgwDELwA/9eXA9DnCeDOTBB+ftADxkD8VdRzoAWKJHAcTjgBUGkweDRQDHGwOjy08vwO23JwlQu/xJ+wEhgDcQAAJAgGMWYD7k1zwTsJrVJwaPMCz7A2i3CB6ZACzTvdgEMAnYpP52AaKrDwF2F7YvgJ8CUHy7NF8/LFCGC/DIVgKs9wNqDGShECvA11naC5DW/4MXINR/CBAbCAABIMCU4xVAOQEgfw/ggwoB7GAB983p+y/+tQugHNnDbpE/MAgKwB/M41OqGjA/noAAqQAUGFBa/w0EyOg/BPBFnv5HCCA4sF5dOVqIVID5M4GH8OGAWumNjwqMv7dg+dlXIQAjIMuB0I3mh9OrABn9ry5ATv8hgC8QAAJAgGMWQNT4tHImwDGutf959wB7ryCdAL42encDsM//SLyz+ZCgmPcH3v3EE09wApSwYqtbCByjhK9/PWIzwvyQuhQgq/6xAtSqPwRIDwSAABDgmAUQb/3XTwTmOAuIODkA/0JjAHtPUIQAFgPYNVLvb5yOOlHnPbMrjwYo7V9xYIssv/zZJ4BtV8CtRf1XJJjPGSpdCOCwyV6AXANi+g8BcnM60P7T/M++KsCZM3T3HxQgcLtlX0JkIgjg13xcS4QADhZi1wFIBQgKYZhQtA7w1eafEAgB8gMBIAAEOOb4BZh3GLDrKQIQ3bV/FOA1wFHawa+GfiXn/cprPj6t/+sIKBbwC1dAmFy4+j8VvpUAigSGAInlrzwAgABbxLkCMG0kPM32EQ6cgPl4wDNnCNcC/Arc7eyz2HenrgsE1ht4EgR4/PEneB6PyRoMFwTz9L/0JaP/mwsgDMgTIKX8VY8FtNcfAkQGAkAACHDUcQhwmn0RIwTlncFnzoz/E923t/x3h/rMerw6bshPQNxmgPnbJ9QwD2TD41hwECAejAmAYsBGAnxZE6DWEKBq/SFAaSAABIAARxzrJ4IqhVfOCsCHAGSjAE//fQJYOp8ugIsA5ZENg26AHBDYLksxQDwYGgH49fPQUARIqn/quUEr9h8ClMXe5nHYL88GIg4CWgCgEcALgG9ULy6sIcDd5hYGCwJ2FoIMiPabAlj6LxgwJZA4fMmaKCy06+YKUL/+8QK4AIAAUYEAEAACHG8eeMDa5jOy/tr5AUkF8B8QIOu8OuQnOAxwyqHHTYDy/ZNPRgmwSMA5MFHQxgHiAa0ECJ8q0N58V3wCzL+WAlRqf8l5wSBA/TzwgOXCM2fOyKP/xVrAQL4OENoOwPvPemieIShLAOO23rtfEiVA1NqB3CKwPJr1dgD3Rwcm198wwPXrIVGAzfqf/44gCBAfCAABIABiRAggGVB+QzYGYAkJwJpqdrpEgFQC4kYBkQzoAoijgm8NDQNqZhRgGBIESOt/ZQG89YcA+YEAEAACHG9YydflZzlNOAZgCPjbN9ytfvin/C5HALkDYRBnHg21fyJqFOBJCgSe0EYD/DEZ5W9jwJAiwJYAQIAWOSOjbQowdgacprivmD/BYh0gUwDrRYP4PkaAR8frPclDp8AwbQIY1wGsAmxswBAvQGr/Cwgo3gYAAfICASAABDjmnDmjGTBo9XdsHJjy1FNPpd/Z2LEoAyw3jTRg+WowICYSIYAYCNCMBXiG+fwArmzbfyYAcf3/nJW/8rFAEKBW9LUA9Uig5XLt+mfPns0BIO4jPGYDtO4ap/zzCjBYVgT4v/PPIQOG4dEnlZAJYPsA8VbrAKMB1AKwNHo7AAQoDQSAABAAEU03+89HB3OennKWJ/UeQicKUwiQAkTWP+CATIQAcksAqQCDDQHrZwjXF4Cw/wXr/hCgq0AACAABjjPzLn9e98GsvynAWT0J9xMWwOzyELsnYMWA55d+ARgCTy0xGcgjYTSFPRmLAMyAUGsptxzOs5VKgMLyJwgQ7D8EyA5r+gOy9A88MP8wHy0or/c0TyUBzOaLf2kiJxUSYFwDeEqNJEDdPpC0ejDegD0ZqwAhA4j3IbAHQrUBoLj5kQJE1B8C5AcCQAAIcMyZ3zDIj/4VAgzG2cSeljl7ViAw/RR/PwkCqBKQCcAnlyGAjP5TvABiU4BrSwCrs/Iv++opv4WBSBFunR5GBwLErfsn9B8CZGcUYC79FPu7AJ55prYASvuX/Xfsp7y6qz+oBngNupudMOhJQwANAV2AdZwI8HngWgegiWTDs0LBHgfJRoDqZwNKAwAC5AYCQAAIgPAdAvZfPm2Et59cALO85aMAOQn2GEJvEBysAjADxi8KB085LRAjf30U4DwsiFIAuwm3LuVf4hTgq1/dZDdAjf5DgMJAAAgAAY454qAA2++eNQVQknIfEQKcUjfaDfRbAjMFWHPwlGDAtdFQeCBYmB/AxgIoDkQKUH0EAAE6Dd8PaJ5IcOz4M9pWgHwDIs8RRNn7lQGnAkcFjldZKn327PT/WfY2iNh4NhEMvr2Bm+bECQIBCuqfIEBC/yFAYSAABIAAx531CGBuOJ0AnurV6LyFgAgBBtZ94+DnMgH4YUVPs77fcsstYQGqsjBOvJUACav/EKCH8I5bBHhGvTxuYpHrAAPlKoBy97ECmOUPMTBzwb6zOMB+5BcNY/dvmeMlIGENIUOKaZqWdYCkjwbM//tfEQAIUCEQAAJAgKONUffNtgNQxvIwggQ4BVAoSCFiQWGcthBAcUD5TGHHdoIVBO7reERQ78EUIL77hQKkKJBWfwhAHwgAASDA8eTcOf3nZ5QNgNM37OdnZFL7P/g+MaTO1n+7AP4jg9k1VmdBiE5IAJZb1gyEBZAdj4sHClOAraqf1H8IsFGeffbZ5Ztn1V8848+z8tvIe/J9apC7wOT9jxFgbvPk23zoY64HggUmg1uA+dLYapOklQDx/YcAGwUCQAAIcGTRmv7sc1PGi56bI680ZlV7M9H1n+MSYHA03XV5mQEhAUT7VykQgA0PBAFq/+XDaiVAn0OADAHOB5Y+CDAMc9lnAVjZee2nC+V3asEDAuirDeG41gGqbQc4xfcC6gmvBdi3eZasBzgEUBXYDoBBvj94wxWAWu8HgADRgQBzIAAEONLwii/Ff07vvSnAs/72Jwvg3BIw/VI0lhaDJAHmzw1k8e3+XNVbbC/g/6YIoD2u2AKvjylKDat+6m7A7eqf0X8IEBUIwAIBIMBxZuz3c6LqDgGeMy5aZfqN+uuU+3/UNQ6YfklafMuZRpTH4RFAGOATQDiwlD2CCn50MJu2fQwwqAKYAwXLRfI3WQKwTm84Bkjpfw4A589DAG+e4ysALgHYP88rsSnwnJHposTHkbo/ML7m4SvzePsvBGDrPYH1gLAShgH8AdzFy3uXYx3A0XVKAYZhFmC7zwaBAI0DAZaHAAEgwNFlLjQXwOzxXPep9eeW7ttGAubt5iQ/FusQYCAf/uvTU0YBAQA4Aeo2kIimRzGwCKBFmTVJ1Q8ooF/MflIu2XITQFL3M/s/AQABPIEAEAACHLMA9vKy+nMBWPfPndMNsPVfN+K555Mfi6V88y8yWh64mbk50HX/AQGKCRAK8Edw110OA6YfchXwbCzUrjT/y0cBWwBQ97xAov0QwJJzotJTbd0G8NH/ufnqGgFm/c3tBNO/yQ/L1cCsTQH+/us8BB6ARwDJQAEGdgGMmVMgQFJ6FSD3zz8EsAUCQAAIIHN8Agzn5kazamsEPM/7rJT6nBq7F89bk/PAxIo/CQKxAgz2u+ThhystD3EtgH9QMF0awQObtleAbQjYToDK9Zf9hwDrvDCFVZr/w0Xgf+jHf9h38kLlSs+vVxsULMoFIFsL8AlgguBmYNAOB+JvjVwSoQATgJ1Dhf8QKcBqO0DRtoCE9Nb/++6DAOSBABAAAiw5MgEujHlhlXNqx9cCTLVX9wgsDsjmK0LkC8DiIqDa2wRlbIOAeRgwPzR9I4gPgqSRghBgRQBH4F71krr9H4ZtzgtQeQigGxBY4CAABIAAEOBocuGCzQBe/xe0dX5xsVj1X8qv5pwRcTkrS+qDc40C5u2DUSXmU1J/tl/DuJgpI+5Mu2dlDOAQIFWDp8XGQS7CM0KAe++969571wIMmg11CbglVoBN6k/RfwigxyXAwDYPyPJrv3zeKL+6acCURPMh/fGxtnsBEKN25xuGh9Uv7HfFf3W3Uv6VANP12DqA3OzxbAiBrHUD/piEAMNU/ooCuKcTtzNgk/qXAAABXIEASyAABJhybAIwBNZbAgYpwPgvu4pyPWMV/3lr/bXtCfP1zQ8biIxVgMFa5ygBLAYonxnMRwHOEQjfDmDuApnfTykHBnEwuEcG8+NiAvDHaBeAlVfDIATDMI3vbxFvL1hvbFiuN8RuB9ik/iX9hwBqLvJcmH6wrwPIBr8gBBDXE1dWBVjWAUICMFnSsx6MOyMrbl0fsJ8LaO48//O/CMBWQCwEOATQMZDf5iqw/pAV1v9xreBeY+OAM6LgsunKxMK3ZV+i1gEgwK4CAaw3ggAQgOXQBRir/+KYSQCl1wEBrL+KEMA0IPMxz3UcuALiUuvqvNhL6NlVsJ6+IsDaGXN7wKPGdoC4kAoQ13811tkaIiBWgA3qX1R+CKAFAqynDwEggMyhC/DinFGAS6z+/KDgKRcUE7wwKPWemRi/uK9SviVwEHWMEcC6pT+kwN3rbX/yvlejgGEaA/jeRpkGgUsA6wctzX1mHY2VYLj3Xutcjbvx7YFtgZn9Tx0ClDIAAUSkAKuSX1hF+Y213l4f1vsOxutfIHkS2lsDAtddrqZsCli2/MsJ2mL/xXR9cZiTcrhTPAI2CWwGWM+vvFQzdnuAe86UC5Dd/oz+QwCiQAAIYE4KAqg5FgEuXTJrvQbAKUJUXMcZEEQVwH9NrfOezQJ2AhwsjAKcM451SmZgzoqC6SNXnmGfu2IVgJX+XiPigjoCTKEWILX5pfXXADh2AS5fvswIuHTJLLWn+ZfEtWMQUFYdjN+coyLAeINw+Abyr757w2AKAeeiBIhgwbFdQHy7PDiz9c5EGMDfXzRdNbwWwa5LK8Cmf/shgBkIAAH4FCGANUcgADPg4sUoAS6pCY4G+DFDPiZInkT8KEBEjgZco4AIAdinGbKr830bPgP0XwXGCdZ9BEKAaUu+WnIvB2aD+U2GeRrsX0FCSA6vAHnlbzr+hwAsEAAC8HkCAaw5cAEumwKMdeX7/10DgJmB+Tsj4j1D7sLrV79wgWpfwN0SgZgbnHKdUUSbYoQBTIBnn5WHOJg19yRtNMAuZo/NLPnwjW/EEhDJhnJj6/kImg0ACgWw1B8CaAJYms97fkn9+ZLys1UA11/99S1onoUYkSetBkyxKjCvG8QJwKdjFSAYHwEzA8/x9xSKS9idfYP/GV/+nHMBXA6I0b3lV0P8FgU2Bf50qQTIAiBbAHv/IQAEgAAQwJMDFuDyknlvwLr8Y91NAVIjBwbWX18ieSas/gPfHpByQ/soYPwnchQwXVsZA/BDnZXvZN3lb4ICuH7FT6nyjWHprXgeowHfmOIpsPVSwQnjw3v7e/mRB+zuGm4EoAfgeAW4fGWOWAfQ/8ybUX9pj/s37ltMIXgqvI1xmwLkddynF10m6vv7z88QyM+YaL71WQpwTpxYVfmVwwDPagL7cXkS3/jG+ol9gyfub7pAQ0vgNvP97HAzoLP9EAACQAAI4M3hCnDliiRgQuAiH+LbBRDj/0uWjQDqVcwdhSEBip+G8i7eVYm1M/8q355yll/sJ2Rf/Wv/MmIzx8oAd6wbA5bxgnOfgndOJPV5vsb6RhEE0LQ/XYC88gcBgAAQAAJAAHcOV4BBB2ASIBSt4fqv2InGxn+sBCibAbVJXbxY+hz0Yqo9HuQZA/TBgfzXsu4vbix/Dgqg7uyY6y2+9aIgBXB+EqthxbnA6RReWq/Vuxttu652A+tN+T3RALBR/SGAMy9PUQmYS5wRcapB9TtDARsbFykFmH6y/ln3/a03VxosUwiuAbC88IL2cYvz96YMzm4/7wZguer8jW9evDSlWAAHC3yVYQrNKkDa3/9qKwAQAAJAAAjgy6ELIAyQZwrRspRVltasvTW6EGPztYv4FagFMDcFnOLnAo6H4dR6+4BLAO0zg9WqO4+IXp0qWau+u/5qfPPipSgC0qqvR9xTsQDbdB8CBHJ1ykzAFSHAigB3uZWL5I2XKfCrCD6sU5luWfQMzFpyAbQSz9dMQiBCgEd5xCNx1940wPxEdkv4VW1rDu63Un3zm9+0CiAgKGm+ScBS/9rHApa2P6L/EAACQAAI4MnhCvDK1Tm6AIoBDg7WAqi3dNxIEUK9bhkAg7kdYD0KKI1xJysBhAGRAtgGA0b3z53zbT/wvZ3aPgogDb+nkiFAygCg/ggAAkAACAABvDlcAa4KAaZxwGW5MVCL1m6LAJdUASwjiVXzzRQ/DXXzfBUB3NsBXeMA93nRnNVml0WgERYgn4GIW/J7Gou8yZHApQBAAH9Y/8d/ph0CCQJcXAb5q3UA47rO2it3xq6X/xy0Yt5NLoC1/VPM/vMDn4QA84/iaKiUFQQPAdMX37x46aUyA8QN538ckxhY//PT3yoABIAAEAACuHO4ArwihwHqEQHBuAb5phz65Xz6+ikJXpxGAeM185+EXk1zXwD7mf2eRAB5t+YYQB7+bDsNAoEAMo4Z8ZIRe8XH/83LDAIWCayTGAr7DwG6ilgHuHpV2xIYL8CL8l9Re2dcArDb5T4Ds5xm01n35/8oBXjU2AoQ9TYomnWBaW3AOitMAZQKvyQLHl4JkCsDDgG2WwfYpP4QAAJAAAjgyxEIwEYBS1Evv6h9y9vqEkIbA1gEWN1OPTXZ8sv8Nwnr1TTX90sGAC4BHtXCLlIPfxbvgXCdSNES8dbJIgHmWARQ/pUXKzzIprNfqlNxCJBrQNIAoEyA8+chQEQgAASAAEcvAAt/f6C6gi6+M9bazUb7tvirq/zKNJQpiovy3yEUFoCs/+JuTAG09zwFzpHCK2/fYrj8KmSAe3bwI4NVBV5aNu9bRgnyX1UA65hi+r24m+r1Lyh/QvWPWoCrr8wZ/533BlzW8+JlZ9yNt/yhV8o+39I6xfznIT7bR/w0Nl45XyCpAPweV+sA/E3Rl4w3RC5viE5PiADfDPmmfIdAVuapWAVQ7gUC7D4QAAJAgOMV4OWXx9oLAV6xCeDNi6LTjvpbBND/Xf++4MmYAozNJRHAOgRYDwKG9fER8qipBYMsCTQTFBl8c2Ms/ze/WWDAPBXnL3j6FSC1/kctwISAax0gGgOt+dYVAE/zr8izlU4Pi/isgTykAjy6WgW44DxXyiVLxGZC96YCvfmSAHmhdxYIAXIImG7GpmG7vXYvVfu/6QoABIAAEAAC+HKAAkyNX40CrjgNYL+5ouayeWVXw72T1CfK/Sh4Wq4P/KYBwCnA0v95p4ZOgOu0i1ECvOAQwEPAN9Vo3X7JcqnoNrvGS8s19KnwS/T7qQlA2V5ACBARCAABIMAxCzC9F1AIwBTgpwnRO/2irOuVtQBX+OWOgqvNtl+BX+vl5cuV3KejlJRMAMtk5jszBHj00iVNAP85VdwJWGDENzdW7V1nteZvln0tgJmK/d94M+BRCnBVbAR45do1VQCtsKoARql1DS7PIvii/NlfCfCyuOdJgMx1AGvxsw2wToLfkwnAINYB5OYQx0aBxQKXDBf4Jy9GcOCdGREEeGOdhHkn9eq//SoABIAAEAACuHOAAiyr/1wApoApgGWFPtDykADyXyVMgJfZN2zokfWEQgKkEeAWwOz/KMBF21HRXgTcAqjf+gC4FDBg+Msp8Z03r+xGRL2TSv2HAJuE13/MhADbKzg2kf85tgogPlzk5StxeXmpt0GBQwB2mqLc7YCkAtinwO7HIoDjoMiLKSBYtgqUCZBiwF/yRF1ZvYtqAmA7wAaBABAAAhy9AJwAZYfAVf7pIXr/X5bRflg+c+yKLgO7TNnGb+FByCBZYZPOfTqEALjrP2QLoGuwliFFAD5aCM2RcKn/0oz5ez46mH9pvRN37RsBAAGiAwEgAAQ4ZgHmgwGuXbt+fTFA/QixmQGz/v7w5l/hKngEcE8j+/lQ9d83BBhSBIiKUwDPIQKXLkV82Jqz1o7yWwWw/X65h/B6f3r77ytrPwSIDKvafDzQ9esWAbShe3T/PTCokwtNMXd/IIkA7imIu7EIMGQb4NkOEBYgPEuW4tr7niOAMnXikX/p3/4iAV4NzEkIAAHE3UAAEQiw57w8nRxwGgRcv/7aaxYBzFx1/0q5hrje+rpJkly+nPOUqgrA7mFdfiHA4EAgfCqVAAHW7QHiiKLwPImq/be+9S0rBNYra5On7n+pAFnlnxOYkYcnwCC2AjIBRPnt7Y0XwEh85/Xp5L09gAKAAgGGBQHzgCovBoF9gmsOZAgE+NaSLAHsBDQSoKD+EAACQAAI4MsBCjAZMNZ/7P8sgLo/cCqvpdBLra2XOq6bVH32D/0Owej+uzcDTJN3ADAJYJY+IrkIXJLvKoiZJ6HmmwQMsunyqk4BrAbkt7+VAK++enzbAQYIAAEgwBELwLYDXucCXDeOCfKmhgBiqvxHitME5Ang2Rfg6f9gJ8B7+oTL5qhgfZSwwOCiUXxR/1wB9OZ/+9vj/+ZYgN2U/fwt/q29/5QCFJS/rP8TAEcowLQrkNWfC3D1alT/nWUPuyH+0Ct1t05stwKIuptHP10WX8SbrK0CmJ/NfpGfgNya+QYxc8T/p//bS+af2Q3YjQYmALtEmdR6+jT1b9V9CAABIAAEOEoBXrku6j8JcP16/CggJuuJJbBBLUBC/90G+Ps/XLmsNNt6GPSKhcBAIChA7CyxCfBta+brf2uxYLxEE0D3gIdAgJL6lwnwqkxgLkIACAABIMAh5ZomgNwSaBIgLjF/+YoRcVXL5alh2wIzn1Y5AHYBXADoAhjxnkbBIoCr7tYxQPQssa39xwjALjE6/+315EkE2PxsABBgGCYBBosAorm2OnsEmE857oq4kXp7+dXYAjEJUPDESgWwGuAUgBtgln29u+OK8fYI2w6BmOaLf6MPnGZ1Nrf9uwWw/NYzcZKtAK3WACAABIAAEODoBJgKOVybjwV6XQqwnC0sEFf/o25nfntV+1Y5HIlOgPT+WwkI9N98+6Mny+jAfVyA0wJVgIS3T87Fn1boRaPtAniGBu40FaCo/hoARyTAMFy7Jo4FfF1uCbwmEIgpc8SVPBOzGqIIIHqS+/yKAcgQ4Ko4dRI7R4p2sJM85El3QCJg7hWcIVDarp2KOGVX4Jy5yQmtl7Ft+zNTAkC7P/8QAAJAAAhwnAJcv359LcD1gABeG8TtrinfRnKiGKCOAgrOFziU9l81QEzOBcBfsXtc4NIj3uagbeHQDdA+nWUlgDtsz0Pc7JDr8uy77/A4Sy+vOgIQcwcFAhQBAAFyAwEgAAQ4cgF4819//XVtFODpu7mZUGw5ZLfSau8RIESCtj8g+/mV918SICZor/9fKQBEC6Bd07NF0BN+r1Fz49t8y9/8w3dkfABsI0BZ/0m3Ax6XAPJIIEWAZUOAuVtA9lirtGi4EED8IGNOUU56vqIiiy6D6EvWk+O9LRaAGyCmGVoBsP6Zv7o+FFJeqhog1gX4X/cgBewsavEzSFb7O2b0q7g8CCSr/23bDwEgAASAABBgEuD1mYF54wDbS7Dq6mLCNY0DcZG8ti7AOKXr4st1LwrmRoh8AJQUAqAIMLhODjKY/ec15xLYfidPvSJPiGAcHsAN4BDMP11ePsd5uoif5/nqtF9nfOVCc0Lp8nensH+/wzxgF9pHBNEzOmcU0Lr9Rv2PXAD5M3fg+vXrlrUCvaTSCpONpf+O2ARQfyXuofRplgowGqBMzSGAteRKwyNiJeDF9dkGZa6w24k5FCWA/GEWQPzAvrq2CUTO6K03ARJXHwJAAAgAAY5KABZzFGCJUdllHZ+v7S8r+PJ69srLyb0mpicnq1xNu7NyAsoFUKeWLkB87AMBjwDi016uXWMvZMFMYuMA646B+GlkCNCs/xBgCQSAAAMEOE4BXpd5443XuQBWBZxr7lrBWcettWf/rgSQcogpafdHJcBQjIA+MeuGQBoCjE9q0+tuCbsJE4DNtog5Idf9tVHA+NO8cXC1k+A7tqk4suVugLLyuwE4KgFGA3jz3wgIoDXb/AsvGv6aWvfXzG+VKRnTW68l9CaAQcDKgOky3mDtcCZ7XlneEbG8KcLGwMviE9as7zKUArxCIcB3tcjy60yEkroK0OKvv7P5EAACQAAIcFwCvPnmG7z6ugDODQKOdfzMOPvPkOAIZO8OeOut8b8x/MfqAvAm653Wyv1KTEwJtJMrmwcSv8ynO5rMR3PB2fLXU9h3Wv//evyPRSDArjr+nzLL0+qfBUBR+SGAmVGAGYHxnzcZAkKAqYWvG7H2NrX1hi1OAcTqRvYuwbdE5EVLj3mt33I0PFD/wRRgviyq35EJrUUsqwnq4VKxAojvvqte6ElwkjL1VwAgAGkgAATgF0KAIxXgzbn6iwBK3U0AtKGBCwDn6OE1xRSFAc+gYjFg2tPlitFx9dK1APZrsB+NX0+lF91PFOAaP4Ra/FSVAXEw0PVl3gZecVZ28R0f4n/XJsDfZPR/St3+QwDiQAAIAAGOV4A33xQCLBC8oZTdIsAKAlvHhQSWK1pv7x5UzAKEnobZ8beM2G5h/trOhDtq//mpARQBxGFTr6zfRaleSbl2rgTzxMbZNj0Atl8n4sEvLRcC2Fb9/0Z+mzRnara/3kFAxynA2zYB3nD3PqzA8rsIKkTJDQPYT/z4oan8fgHMjpvlN37v/EVylPr/lXr5WGXtDZVjOeeiqzb448fAEGERYJr58wsYfvD6EF/vvZpa2wF6bj8EgABRgQD2QIBd5U0jHIBoBKKZWL6TQqzX9o1RAH+MigCW1hpNdgDgS+Es/Cvj52vauyOFAOJn5R0Qxg8rBrwcaP1PFECUeqk3OwJg/LI24K8ZAolzZOcjgKMS4O0p0QKs1w7EYN9+ddUAaUHgTQes+caRbUIAs7SWMrN/3mHJwMDGg26FvFR9gOpP164pZ0G5Jt/3dN39bqnr2g1SVwv4vSStAwzq3/5BWwvQ1gH+Zhim/9NSDYByAWIRCDxDCAABIIA7EGA/Gdv/thrnpoDZBTsMLgKs13YdbTw2YD5xufvBhuv6zjC8YwuJBSsPbL+eIt/1KJqvlNtHwEqD6+powg8AZ/aNN6INkAP91Y5AWf+hGwFKy38+YQwAASCAs+KBX0+BABBgN9H7zxGYBVjeLbTELoC6eU83w7ljwSpA4JE6Kj/3+x2x4u9JZufTbigerT6w0WO93HJ15bQJTAAXAhYBog4JEAYoW/wNAL7Gyt+FAAT9hwDrvGkBQBHgjSgBXNEEMG/5mnpkUMQjtfQyWPmMSFUy+RCPV75Fet10Z7yrA57VAGM7wPgCsjkbnqvLn3oNAXH5MHwta6kK9b+VAAn9hwAQAAJAAE8OUIDvjVk2BcjDg99YC/CGEWvzteu9vr7ea/HHsLNo5W+aWAh8Va8owOtyVvvn6NfGVfyvjZGXiJ3/yxhgusp3KccA9/EvTQCAAJYs3efRtgiKbYJmk9/ghw/K35t/9cWV9QlYBIh+oLYqui6vnulewysC1AK4twTOCrCrxgvwNRm2DiC3CSybAMRv0w0YHAxk/O0nan9a/SEABPAFAkQEAuwk3zOy2iu4juU44vXQYL6meiP9XceJD9NSQuvlm8a5EUCESIDVJ7lbOeBbGTIE4DXX+q8n8dWaQtb/7Q4EhgAQIC0QwBMIsItoQwBFAKX/67qzf7Vjia0w6AMFfRSQJMC6etYLW4VQAH6e5euWQwPCArDDh/i2wIjhVZIAEwIpDtDVv1iAvP4fjQBm/+VKwJt2AHj51Y0FHgHe1gzgmwoSHp5rqG+/tGnYLgrz8b82v8NhFYbg6/JdkyYD6/UB7e0B1o0C5r6A0Lxdd1y1wPGr6FfOKH+r/ufWHwJAgNRAAC0QYCcx9wVoGwKUFf7xR8uhQysJQqOA1IenCTD0V/t1zGfAnrJHAP0Aadd2AFMA2xDgmphyoQChRLxsZOv/EGCDyMOBvvfuu8KA7ym9FiX3CeAjYDkVeeojmwslq9Wu1mlRnsLYyEH7kf/Bf91IogDWaOsAQQJ4ne+//35P2e2/jHrxqPpfJEBB/yEABMiO8hQgAAToPosA707RBgPGoD+YdfPFRUmPqIPdfAThT0Y/v6EovEOAhP6vJVAEGOd9eDZP7WfxCXC/xYmoF5Gk/EUAFNUfAkCA0vAnAwEgQNcRdV8L8L1w44UdxpUXAt5+e5jee5TwcN5ZvuxeAHHEkngu8kma9Q8LYBkBhAQID7oWAawG3K/+1rxe+IVchgDFDLQo/zEJwDOV+L0xqgHWsovvli9vr6+7CJD+ON7Z03g/nMEqwGAgENoVcC28DYAdDiS2L/A9L6F57V0HuN+ajLUACLCPQIAqGSAABNhHpkHAezMBfgHYxfyXKwH4VgOx9SDh/rXWNKpr3QycN5k1AGkCXBMfSSYFeJ0LEDcKEE2P7X+WABv3n6T7Y95///3A0zswAQYmwPe/rwhgG+0vAlhYeHvZchi6L7UJxe/v+WAMVUtrZn6KxpzQBQjVX5Ng/schQMQ6gNb0uP4nCdDoYCAqAUYDAk8QAkCApEAACNB1hADjOGDdf1H+mQevANOX0H3RVOoDf2juhDrmrDBHAe53A7giRwXX2elB5BFB/ndfak1X2u8DYEnEAkUhQDoAGAVkBwJsEnNWQAAI0Emm+n9/FoD1fC3Au9rxAvoYQZ5bNGoXQHmTAvXvkwLLnHB/dqopgP6Zw+InY8vga5oAvnMwWNb2VyOAO+9sJEBG84kEeF9J4AkeugCy499T+q8LsIIgVoBCAxLqXxmC1Omaz7tAAO0twuLjg7X3BoYEWPVavehOnsz+T8nrf0H7i1cA3n8fAkCA1EeSdH0IAAF6jSaA8h5BuQnALgD7QUyEvR0t6j2ARaUrjT4NNk2SxxG6yfp5i50Bytv43ALw1q+PCro6Zd4UoL7rkIniegG8m/xVASwORC5SEGBX+T4PF0B5f4DoPj9gaPm1FCDl0J8p6XWzN67LJAlg2zTAst4K6BLg6pJ5Y6B86/Fr3vcHK1V3td+RuBc5cytACQAQoCQQgCgQYA4E2F+EARoAWv8lAWwUMCQd+CtzmNXX4jIgJIC8ZBbAts3fI8C1eAG4AWK0H2h9pgCpBhT1HwKUBgLQBQJAgP1FjALk2cJmAd7TowiQmYPuvpKIp8g7rxwaPfCLzGFAWICrjIvRALkx0PsyhNf3SwTI2hLYUoD3zQSe3oEK8J65HUBbARBXGP/P7f+xtF9NhAC239i2A3j6zwzgHxoi1gPcr0NW9+sKUFh/yoOBIAAEoAwEgAC7CBOAbwdYDJD9l3sLpsiDAJJyZN1XEkufFEAh4LoLAVH9l1/Wdwe85h8HPPjg0ucHjWgXWfo/Xhr1SifVv7T8EIAoYkvg/Kff3Awg9xZmTv5Yyy+TJoAStlEgYh1AnCsosA7wyCNK59n3j4wXPTJFuVD8IKEQ34Rf6+RzAxV1vxCAVfkhAASoEwgAAbrOe+8N4iQhUgB9b0B2/Qe/AK27uWWSBGC7ENlnEicI8Prrb7gFOD1lIYDX/hEZ9XvFBDXh1zptV2BJ/XPLP5Xc038IAAGqBQJAgJ7z7jrawQBpUxMLc2B5b13KFomCYM5bbzEDBl/7+ZuDxCjA/blhj4z9j8lpcT05HhBohF/3v5i+bDMEyIwoOgRYxSXA9G/CZJQ/Z6EFvHUXGyWBAIYAd0ARwL0dwPPJgVYBVhednmPHYZxIeAGI7n/JxwLlCuCqPQQYIMBmgQAQoMe8txZgNuDdd7///YTpLP0PDAFa97BlkgVgBrAzgsyNt44D2JlBPALYmn7aeqH4jUWCmEWg+hAgr/1R/YcAEGCDQAAI0GnEYYELAYm3j16wW3ewedL6LxGYRwGrowLHi+ZX4M0337AJcNrVc6Xppy2R2wVpBSiof8EhABAgmEWA8b/oG40LZ+rnf7TuXw9JFoBvD/AK8Kbjg8PEn3tbycXmf5sAq1WFmAWiWwGwHSAYCLBdIAAE6C/KWcLi3wL0Vnzz0X8lUfNqbcDcd10A+WK4BbAOAWKz3DRqidhx/yEAf2tgyo1Q/tzkGcAK7xDgTddHB9q3AaRnGM6cCS4RtQQoKD8EiAsE2DQQAAIcQlD/7OQIMB8orO8OXF6LUYDpP+unt4QEODNm+idCgUBqCFDa/lgAIEB6IEB2IAAEOIA0bP6Hq9S7rzrJIUA34BW+G+A1tieA7QywHxMUJcCsQJkAFQYAW9UfAuRk2+6vS29NhXuukpi1gOBqAPvxNfbpjfwDhO2nc9QEODN3/oxo/+kzSvs9DEQtE11tAYguPwTICwQoCASAALuObXmdL6/Sl8j670qBbAGMCAHYKMD+Ma5CgDPOLDIYV0rrP7EARfWHAHXjEqBGVdLqvxsGslYCLAa8xo8IHL94zhfu7T9fEbDTcCbJgG5WACBA3UCA4kAACLDjWAWoMQTIq/8uDIghIMaAN998++232RfrMUFz/AAEE71g0PUfAnQdCFAeCAAB9htL/+mHAAXt3wcCeQaYrwUr/9uBz3YdW/yAPbQEQIAjibmYfvDBQCtAefv3YADJaoBcB/C8YKzsd9zhJ0D+MH23wiFmwehHgLT+Q4DEQACSQAAIsNMY9ScNVfn3QEDe0cHroUBwFDAacMcUx1DAFcFA7HJBV/9SAVIBgABp2UX592BA5lqARYDvhT7hfVoHUASwYGAFomxLYBMBktsPAZIDAYgCASDA7lJt/b9K/+kRIJ5i7jhAY2D+4Ef/63bHnAeWL6u+u7cTRC8czUcB72cCAAHiAwEggDMQ4MCjLZh0LfigZv2pGltPllwC5OvyPfbZz+HX7w4t+pBAXmL+PmEBoRMgr//5CTwxCCBTA4DK/S/sa7UJi2SuBsjXJPY0z3dYIhtvTQMBssoPATYLBCCbsAgEgAA7SgUBtuh/ZlXrTVlJpgCSgbfZJ76FXztv150ExC8bpf0v6H5R/SFASqj//m/W/5ym1p26TIEBbF8g+7jX73///wm8djkCsEQuG0UC5Ne/7K8/BEgMBCCbugwEgAD7yY4BSKxp1YkbySaAbQVgH/wY/rj3e+644x4R9m0vAjQtPwRIDAQgmbgRCAABdpT8Bb28ZMWp/IgyZ0T+MOCtd98VAoQ2Bk7NP3nynnsUBjxRrha5XOQKUAIABGiTzOWctmz0Na07dW/yNwUMw7vvvfdejAAnJwBUAawGsAuZFSLRi0XmRgAIsL9kt56+b5QdrTt1byAABNhPsjtP3zayolacdGTyBRjemxJ61U7acs86c+VVAaIJ2F4Amv5DgMQQ9L89AFOqPZQaBLi3BAwR/XcIoFPgvUbEgpEqwKuvdrECAAFSAwHiJgwBIMBBhgKAPgSoGmoBQscGh/LQQ34DQom6k11uBIAAiYEAUYEAEOBQg/6np6oBUa/aww8XERC7cCTVvxcBPgo8KQigBf3PCoEALgOiXrbHHnvoobT1AOXK4w2nWz8UupPU/m99PkBL+VkCTwsCaIEAWYEAEOAgUtz/IwVgSmMBHn5oib3x7HL5S4sADz/sv5Ntyk8nwEcfQYDUQID8lAsQ9QkizkwNfph/USiY/51/VIUwv426j23qDwHaBQLkBwJAgN0H/S9KsQElewOGaYeAEbZqz1fw5x+FD6YA7NYRd1G9+mT1lwBAgPhAgKJAAAiw37wzfQEAZSkVoHAcwAh47LHHNAMe5vUPCvDYYxH3UFsAovJDgPRYTw4UtVxDgCXlAgQ/UNwbLoBAQFDw0MOriBUD8e8QI8D58yEBevnzDwHSAwEIAgEgwG7jESDWgJbd6yMEAhQZwJr/GDdAHw7wsAvnL+blMQJU3whQof8QIC4WAeIXbfRfhIKAtQGxL+Jj9lgEEL9QzWguAF39NQAgQFQgAEkgAATYZSxnCU9atCEATx0BYg1wCCBW/B+WP2guzPUPCRB+Y3BHAECAxEAAokAACLCzzMtcuNEQIC4UApTtEHAxYIFB/SFu4nvo/0dmAs/pyAUYCbAfCZS0aLfoWp8JOFlfgHgA9JQeEdRJ/df9hwCBQADSQAAIsK/YhwAQID8EAqwNSHhFcwmIEaDWIAACbJ933nln/nf6UipAi6J1m4YChCr+9SnuX4bvoPv+Q4DoQIBagQAQYA95R/0hrtXof1S8AtTdIWg02i6AjP6bklFAx/WHAI5AgFqBABCg8yyL2TIWiC01+h8VAgHydgdo9XcI8Pjjj0//j18VCeZ/w3dALgBp/yFAfJRFLenPOuofkzoChA14zBBg9cd+qv0iAEfgcc7CmPByQ9t/4vo7+g8BbIEANQMBIED/mZczNgCwbgeIW7w3rNWO4hOgyIDAa6qM9ZWaW1f45VBAXOeJqMWGchMAZffd9YcAjnhWAHrp9scyrR9KWvwC5B8YGLESIPptZum95XePP7EkYsHpbwugp/sQwB0IUC8QAALsIFyAIW0MsFk+XqX1I0oIiQAZBnxdB2Aptq3yj/PLn0jqP5UAG/YfAjgCAeoFAkCA/iMEsC6jrSu07v+uCGglwDCIghtr9xyC6XJe/sUG7Rpxi07xCKDyO4EgQHw6FcAKwOEIUHWX4OOy7umJWWb62QkQUX4IEAgEqBIIAAF2EscSWrEc4Trb678rAyoJEPWSZjU/vv9D+TYACNBRIECVQAAIsJNs3f+wAJ7+70eAWgZEvab5AkQhUL4ZEAJ0k837H9FnrwD7IaDSWkBNA54cEzP1fnYEQIDSQIBqgQAQYAfZFICYOvvrvysDiATQDYh5Uc+OXZalthTdA0CkACX133wIAAE82XQFIFBn9gMEIFkLeOpJnqfmiB+f5D1/Yv7eIkAMAT30P6H+EMATCFAvEAACdJ8N6+8ud+j3B2pAVQHOPrXk7JQnp3+n/4QH05cnDBbYb54KT7wIAAjQVSBA1UAACNB1Nu1/SsMhgFOAYYj95ICzU9/P8jylCTA23fhZASM03dIPCG3QfwjgyJb1J+z/fgTwGhAvQNaBgcNZd57SaJDln9YBggIMZQhsXn4I4A4EqB4IAAF6zW6HALtSoIoAURsC1Dz9tPiyFN8QYFYhahTAkmFAcfULAIAAlmwLAAQoESDrzQFP80zdf/rs8oOKwnrdYPwSMenEQwLfpwMgr/8QwBYIsEUgAAToMxv3v4IA+1CgFwHkD2e1H3IF2HzlHwIQBwJsEwgAAfrMluX/sFL/d4FADQHiXmJW8mee9kffYBhV/yFtFNAFABBAz6Z//D+s2f89IEAiQMYOwUD37R48/XTMAtSo/xCAKhBgy0AACNBZtgagtgAkBowTqWSJUwDt85sTBYggIEuAuCUoVoBe+g8B1GhLYZVFfpXqApQhQEvJKtb6z69FVQGYAaHtAGbilqGocwRR1x8CEAUCeB4e2VNWAgEgQEeRS+Bm/d8EgOzyEkriSDsBnn3mmfG/OazfzwRBiF2OIgyg7X9hAk8HAlQNBIAAEKCTNBgCbCVAVnkd0yF1wCrAB/W3BM5h9X92hmAWYP7CL9JIeCZJgI3W/iEAYYxFkHIx96VfAQgn5Y5TgMTkCfDsnJkB8e/05Vnxs7qK8EzsZN0CVAGgSIAbYwJPBwJUDQSAABCgh7Ro/3b9Ty8u4aR8cQmQSkAWAAM34Jln1YwCPPecccnEQsrStOkgIFeAGyKBJ3N8AtAt3xHZqP5ptSWclC/Dh75NgRusA7CIuiu1NwSYkzLNXawDQAAtECDhQRE9dwgAAbpKAwG2aH5qb+mmFIpPgKT+5+8NmAB4bu68rP1zVgFSDNjFrgAIYAYCxD4momcPASBAP/mAC0C0cEemeuuTm0s/RXvYTP/QuSlwKwGem/Ks+MJqTiGAjYCu2g8BVmmyEYBMgB/8gKiwGfed9bbBj43ZXroWYAoQb8Dzzz//HM/owTA4BUhZmjbbBECwBgAB5uxUgB/+7Y9+9ONPWH78ox/97Q9Dba3wgCDAOhBgf2nR/1IB/vVPfvqJkZ/+5F9HNPZjtbQf848lzn04cQLo97kIUGdfQIoA586de37Kc+zrIAYGfIeA+GH8Lt6AipsAPvqotPlrACDA0GoNoEyAv1vVnyPwd5HNLX0AxqTcz/FD45rLTx4BkvpvNSDypRcCPH9uysBWCuRqgZL4pamqACylAty4AQH07E+Anzn6zwz4WXRt8x/AalLu5wgBIEC/mZe3Nv3P79/Pf+Tu/5Qf/Tyqttn3b5tY3DNULyQ8Isg2DkjZFMABUAWYXZi/SzXAggCpAKWBADK7FOCHP/YD8MknPw5tE4QAMhDAm8MXoNUQILuBf692/Re//NWvfjbmV7/65S/Uy/8+t8xZMZ9X3FNjV7YDkNj/AgFeeOGczPNq2K8ZDs+nL1h19gRU6D8EaFX/D3MF+Ims+a9/o/2t/+Fvfi1/95O8qW8ZxzFB0+uSLICNgCgEuAAvGBKc46sFswB8NSBhwaqzKxACkGd/AkgAfm3Z4vezX++IAAgAARqn5RDgQ3ZobHJrfrOs/jvW8/9+GQxsOxDISH0BohB4geecisD4LfvFYkK+AGT9LxfALP+RC9C4/1kCLNsAPnVu7v/5pzshYGAzobEAL8icU1cGXmDfKUlcuPpcB4AAWnYowLIX4N/4rvVv4vcItAwEgACt07T/OdsBfhr3112sKfw0r5obxSNAOgAUArDuv+ALv0louaqyI6C0/fb6Q4BdCSA2AvwqdEWxFvCbrGpuFAgAAdpGDgGGoY0AiaOAn/MxwC/DV/0lHwdEHBzYKMMy0ysKEFoELl164cKFC+pAQHw3XnhBjdUCTyBA/2m8EeDD9O0A/C/7r2Ou++vItYVGYa+AS4CM/mcbMPB+myWfLr00x0rAeMnFi+PNX7x48dIly2QJBSiuvh8ACLAbAf4tX7WPeuPPz/iV/21eQ2uHvQIQAAI0zp76v2wFiBgDTPll11sC2OwXc2K1JyDPgAIBlI6zf+cLLi2Rv78gBbh06eJU/0uVBSACAKOAddquAMynyktpzbyf/7eRf9X5GsO/y+nnFlG2vawFoCMgtBCshvpCAFZtUXGxIiCuyYG4yFYDLKHcEjiVt8iBGzc89YcA+xHg50mrAMtKQK/bAiEABGictv2fMiQJwHfy/0Ps9f+h7wMDB+soQLw4ZAJEKCAqzr68oPVbxCRgKwEKer/UP5jA7IEA9TIkCfDvEv+mp64zbJwBAkCA5mlZ/w9TNwR+mjqun8n4NO1eNovyAtQcBQQFuHCBrehflKv88xDg4kVdgLUB7Erjpetp0hwRRFB/CBDIrgT4aeoO/l+xG/wu7V4qZJ7X1kvFvCDZF5C7DnDx0iXzD7749sUXdQEUBvh2Akv/B4o9AeX15whAAF9aApAsQPIhPrMAn6TdS4XM89p6qZgXEAACNEnT/ucJEL0hcNkUmHYvFSLmtuVSWgFcBniXgUuXXmSNf3HK+M/SfR7rOGD8VuwjsE2zeAxAVX8I4EvD+vOPzEjq0Q8TDgicww8LbP4WYTHDLZeK2WFuCdhQgDFa460xNgcqKw2h7QB9//mHAM0CAbTXAAJAgK3Tsv4fZp0eaPejAPM5D46DgqYrZgowDBkADGr/L0//z18u8++8AijvCpgrL79rLEAsABCgSYZcAXa7JZDFvHyZHxAAAmybtgcDsYeQWqRf5AkQ9V7iupGzXb9cmSMkwwB2FxkCDANr/mWe5Zv5J3UoYB4nwC4UE7EIkNH/SicEhgBG6jT748Bn6CkCpPdov0cEydmuX04tgMuA0MLwotL5K9P/V2wAvHjRCLul8r7A8+dfNdMMAAgQyg4F2O9RwXK265dDAAjQKJnvCAjWe71kEwqw33cGyRmvX96LAFOu8Lx8RY1GgPf2r54/vxYgBwASARL6f4wCZLX/Q/MzsJ1XiZhUDgA7fnewnPX65R4BSLcEhBeJl1nxp6+6AOrawOUQA6s1gHQBKNqfCgAE2IsAfEPAj/d3hhA56/XLIQAEaJH03n+4PrG3GwDXL3UBcgjY81nC2Jw3L3QJ8MEHWfVfDCgZBZhRBAhNgmAMsHX5IcCuBNjzmULZnDcvhAAQoEWS6u/8VA93/62/pBBAnC38dx/fnOK/7u+SDyDaPto80UYBbQVgY4KXp0gBrkyjAN8ELHsCth8FZPT/6ASI7n7K0ru+SQiALAF+/tu51v/+Jo/7qvwzxn/bwXZAd7RXg0iAiYDVhoCoLQG2XJl3DiorA67bW/YEbC9AFgAQYD8CfPwf+Kr9r0IC7OJTwyAABNg28UcBRC7Bvpv4+58nwM2b/5E3+z/dvOlbDxCfHPqLnHvZLobHNAKMBqwFCBswr/dfvXpVdF8IcIWPCCYDrrgFWNd/cwHy+g8BdiXAf+bjgE/+i0+A/8Kv9Nvmbwz2BwJAgO1jlLFIgI89tyAXYO77f+Ll/uRH/9UlwM9/JK7TweGA3rgEyP/gMLcAEQOBqyys/GPp529nAa4IAdw3bi9ALgDHJoARV00Jlm+vAKkTW/7ki00Bn/y3v7MT8Hc/3QsApgAfEglgf49w2ICrV4UBL4vVgWXnwLJJYHWr83NW5c8RoMkqAATYlwA3/7so+Ce/+x9rAX629L+HtwQFAgEgQPO0ESB1UjfVSAI++d3//M+qAT/82999siMAKgqQemjwK6/M5Wf/CgDkRoGrggPrja0CZIwCGpQfAjgJIFi+3bhM95s0KU0AuS2ADQb+/f/6X//vD37wg//9v3/yY/Xy7ocAH9cTIGeX4CtT/V9hArA/+hMHrPhyxWC82HLD8/aVgIx1gCb1hwA7FEDuEXCm970AcyAABOghtQhwCTDfa8qUbpr5r5/6Afi060MBl1QVIOPg4FdeYRsDhmlt/yofGAgBxJDAekOS7QBN2g8Bhl0KcPPm//iP7v7/OuGM4k0DASBAD+ldAEv/2dYAhwG/2MMWgDnmzCd5c6A0IOOQgGE6PJj9c1X8PHVf/s45DijdCJglAAkAEMBOAMUS7hEgfiIOAMb8w39fIfCLXyZ8nkAH2VaASAPMCAHYxgHL79fN3+LPP1X/IcB+BZi2Cf6HTz/lmwV/++mnv9nF9j81EAACdJIqAtgI4PcXOwVv/yUE02EBJI9445jzneqtAe9YDwuqtOzkrvt/lLnuDwFqZBMBpkv4/cVOIU4AHpLHvGmcAhSvA9hWAiotOxkCFPSeHAAIwAIBmgQCQIBOUkcAzQC+zM+JunFS/fdJQD0BLB8kXGnZaSAAWfshgAgEaBMIAAF6yKr/ZAKwhfxjObn5/iJvebwCFG8HtBEwVDJgewFIAYAAg02AOsu7uL+oKyf3f48GOAQgAWC9ErCNAMNQFQDa+t+48Vng6UEAwoj7i7oyBIAAEGCjbNP/NAGyANidAeacJzoYoJEB79cXgLr+EIBlKwEcn51jSW7/90bAeu2rsgAVFNh0MwBt/1kCTw8CkIbdXcT1IAAEgABbZautANPyzu4w4poFAuzKgPXcZwLMTd2JAMKA99+PI6Cg/5QGfCYSeHIQgDAQwAwEgADNs1n/2Rgg6npF/d+5AKMBRmFJDBjqCbDHMcBnSgJP7/AFMJfBqsv7UH8NYFcEWAUYVof0lwkwTW4bASIY6OHv/2efQQA1EKBdIAAEaJ+t+h8tQCkAOxdg2lhCNxBYjwLol6DqY4CptoS7ASCAnk0FYPXUiroubLEA+zbAsg5QuhpgTpF4CUoQIL37dH/6rf2HABCgbSAABGgdtuK5nQBaTy1VJeg/BDAJqN3/SoMA1lgIUDsQoGUgAARon41GAdNd+fpK0v29CbDeEPgBe00qGkC/AMmGGz8WjwGoBTDrDwFkDkqATAM2x8NxrvaBWIDaBlRZAfiI9o+/pfsQQAsEgAC5gQD7z1bbARwGVEj8w7LeeBsLrAJ88IHt0z7oBKBcbgKr/RBgT9lied+s/9H9JZlIQewCWD/xh0QANmW6hcYsueWifAG26D8EkKm/tA8QYBUIAAF6Sf2lfdhSgJj60k0pLpapRR4XXGpAlSOCbC13CZDa/ionA4EA3lAt5u4MEGA1NQgAAXoJ1WLuzLAtAMHekk7MdReODY3KTLELQDoOMCdGtci4VvfXv2kMAASIS95SHp1hUwFCj4Z4ckn3oF3NtiVgejXIBDAnRrnIrLrP6k8hANYBGiRjKU/JAAFsE4MAEKCPZCzjKWH3UdTp5HgfD+W0UieuXde6N8BxaHAWAHwHQBUDHIOAnkYBnvJDAJnKxwJ93J0ApBNLnrg2YxzrAFPKVwOG9d//6gJYAgF6DwQomVjyxLUZAwEgQBfJqXV0+H3k9Dg/ttOPRFbUNcFwkifk3BnAUtT/9RSoF5oq9Scrf7j+EEBJec094feR2bzMQIDVFKgXGghwQCmvuSf8PjKbV5D8lsZOLGeq2qzxCFAyCnBMgFYCagEIyx/XfwiwhKzs1rC7yC1eUbSKpjY1PE057exJ0AvgvnnXAjSoPwSQqdl/COCbBASAAM3zcf2DgodGAijnJCadqJxyBQFyDFi9qI7ynzp1avxCsthE9T9WANr+Q4C0VBdguhPKAia2rdld+yLsSBTgLbX0tuq7//IvBJyiEWAIIBD7x5/+AMB4AD4LPEEIAAFqBQJAgC5St/oSgIYE9JmPuUxJAoyXhF7QcP03EID/rskAAAKkBQI0CgSAAN0EAjSMWwDWVa3+zggeYkYAVAZ4mq8MBCIYoBcgIYEnCQHoBGjdtF5jFYC/OzDiTX2h0rsEKEfA+fc/cR2AGAAIkBEI0DAQAAK0DwRoFvuHhogtAfowoDCk/WexjgO0QcDmAqT1HwLIVCagddH6TUgAOgNOnaI2wLodYFC+3/jvf2r9IYASCNAoEAAC9JCqAEAAT9wfHjiHl7dDAaxjAPmb6ZstAcioPwSQgQCtAgEgQA+BAK0SEoAZQDIWIBTAvhcgcRTQuvwQQKZu/7EvwB/fhoAlkwGFDBAJcP78+VdffdUjgJJN1gEK+g8BeCBAy0AACNA4lQGAAP4EhwEssrk0/c83wCOAacAWAhQB8FnguUIAKgFat6zrxAAwpwABmwB5BLCVgLh1AJ8BJPUv7D8EmAMB2gYCQIC2gQBtky5AhgFkApz3CJAyCoAA/QQCtA0EgABtAwHaxibAB47XilaAdAPG+vMvLgMmBD76aL521fJTAPBZ4OkegQC1288EaF2xzhO1L0AklwCidYDzPO61gPf5ewIH9ypAJ+2HAFMgQPtAAAjQLpsIgFGAN+0EyBoFCAN8g4BZgLqjAAhAEgjQPhAAArTMBv2HAN5YBfjgA/vGQFneBgLEjAE+YsWfr191OyAEIEnt/mMNIBj7UcFhAdIMcAiQRkCUACKDXQAqACAATSBA80AACNAo9ds/C9C6Yr1nfwJM33tGAUoq9H/6RJDpCwQoDwToIfnrAAkEkACQLAD5GoDSXQhAEAjQQyAABGiVLeo/pXXH+o7rIwNcOwRJBUgi4LxPgI+M7QCDdTMAnQA0CTxjCAAB6gcCQIBWqS/AxxgFBFMgQDwCTgFSDHAKwOu9fO86Fqij6kOAjfYEQIBg/B8cZonR4K3WAeThgOY7A1dNn64OAXoPBOgkEAACtEr3AnwuQ9e43pI6ChhyDCAYBYj2a2cKta/ts+uP/0CAvrMRAJkEfL4KcfN6SbkAQQI8/U/aFsi2AJjnCrYj8NFg2RjYHQCfBZ4wBIAA9QMBIECTbNJ/UgEO1IAMAdYG+BGgE8AcBdgBkLcgEaBa/yEABOggEAACtMpGBGS0wlb/wyTA8cmhAQAsBPgM8AqQvC1wEkAY4BgCLAYUCVCx+RCAZRsAMgRwAXCQBuT03yaA24AAAHEEKDsDtxFgg/5DAAjQQSAABGiVTfqfLoCn/4cngHsU4EfA0eWKAgzi00JeDQogb5U9AtgGgC8CT/rABYgr8c2bpQakVcLb/8NDgFgAKwHFApw/n7YGIBXIFaB69XkCTxwCQIDagQAQoFmi6i+SLUBSH8L1P0ADcgBwCrA2INj/GAOGhYHwGMB+jpCuBPgCAkyBAF0EAkCAVonv/81sAqoIcFAE5ArgUWCsPb0Ag7olMOKdQTzJ5a8vwBdfQACRqO4vyeh/HQAOSwDHpoDwq+erNKUAy1lBhkHfExDeGzgL0NeegC8ggAwEaJ8BAkCARkkoP0s/AhySAUO2AF4CJgWiyh8SQD01WI4AqeWvDQAEkEnrf54ACQQk9P+QCBisAkS+hPEdzyXgvEUA9vmg3r2B8va9CfDFFxBgCQToIQMEgACNkgjAzXQDEgBI6/8BCeA6KCjqJawowHlxHLA0IHYM0K8AX3wBAZRAgC4CASBAo6T2v6YAqQAcugCRL2EdAdh5QPgX83jg3QrwxRcQwEjyGsCUTvp/WAb0tg5w3h4TgIj3BaQKUKP6iwCWBGYvBFgHAlQIBIAAW8dW2LilNb7+1XYDHIMAka9jFQH8/Y8UYAkE6DK5/Z8SC8BQeR3gcAywbAmIfSE7E0A/K1D6uwIgwFaBAD0FAkCA7ZMvQAIBcdPL7P/hEFCwN4BegMBGAP+HhYiJKJ8d2DMAEAACdBEIAAE2zqqvSQssBCCOdV/AtjsD1GkSCDCH/dxB+yHAKkUARAsQObl8AA5FgJJjgogMkNPzbgLwC2A+tKR1gJrld/QfAkCAPgIBIMB2sdY1dZGFAKQ5VAFY2g8BIICRqZ4l9b8ZKUDcpAr6fzAG2N8bFPlyUgtgMeDVV+0GhLYDsDSvvy+BeQsBXIEApIEAEGDrFAoQYUDshAoFOAAC2AvSz97AQxHAX30IAAG6CXtBIAAE2Ci5TTXSyyjg2AUgMkCfpHlqAIcAawB6EiDKgMC8PUgBdANyPtubhWodoBSAA1CAvShNBbBMlXeffeNYA1gLYH18HfcfAkCAHsJeFAgAATZJ7rr6OiSjAJL+dymA9qhCj3JwfoJw1ItaQwCZ+MMBUgWo1f14AI5QAMOAooWcYB2ASIAsAmpRkvUwnZ8hHvOS1hVAfkyIJsCgvxGY58aN1a3dRwVCgCaBAJ77zplOwnNy3wgCQICtspEAG44BsppLP8W4J2S5FRsv9SuAfQQwCWAh4MaKgCb9j6s/BIAAlFOMe0KWW0EACLBtpjftHJgAiY2ln2Las7Hceig4MphKgHnjvxk7AA4BzK2BN264BGjf/uMVYEnqMm7E1/+tAUirLP0UU5+MZQr5uwOmDpOsApy3GZAkgL4KIFYLNut/UvshAASgmyIEgAA7TMICbo1PgIiJJ5aGqrTU08t7KutpFAlQFDGd5FGAMGBc1//oBu+6etPpp35HAMcrAK9oMQBlAqSXJrdaRXcangtkD3N6TTK2AigpWwMYxGGAy5sCpgvt/Z8FuHFj/SdefTzbbwSEADGBAFSTK3gilglNrwkEgAC1w/oZO1T3p0SAvN4kNUyvWdGkajwLy+QaCKDdXrwRQAGAE/D+KtOvrMN8ZXqbC5AKAAQoCwQofIRmIAAE2CKzAKl1t8QtQPi2Jd3ZPHWegm2aZQJkGKDd+rzZ/ikOAd53bebXpggBegv/JA+K/pcIQFHLbVPh8a9nS+k6AM+pWAmU26xPC8R/Yd0IMK8EWAzQH4i8cAMAktsPASBAQiAABDiExK+llxlweAJUiVZ+y76A3KHAEEeAepup5isBHIcCKAKYBugPxD4GqCFAVv2PUQCS9wMEBQhsBmzdu36iAMAZIOj/LEDAgNVtvAJY+r+cHyRGAPX7juoPASBA40AACLB1SPufJUDr1vUVScBw0/oGQf66/X76f8wfeOJe7VwBWO2HRQArAMs5wpz91wAY6m0AgAApgQB9BQJAgG1DLIDdAJ8ArSvXW6QAcyxbAv9xzFR9LsA/aQj8/vfilvI7JZH952VXAfCOAByjAGOa4n1B8w+V6l/S/6MTgHgjgEsA71aA1o3rLcqsYa9RWADZ/z84LFATCcDADDDbzwRwIDBY9gauJzpeVlWAovpDAAjQPhAAAmyWjzcSwDMKaN23HqMIcHN9vsBh+Oex/7z6igDjaGCK8rNdABF380VcArgGAdYjgiwMiEt6BAACQID2gQAQYKtsIsCA/qdFAmAXYOr/VH21/VwA9nUcDbBXN3YHgT2r5gcFcJwCzHkPHfb/2ATYah1gsBnQumcdh9d/nmkeAX7/e0OA5ev4m+k6JQuHUwA7ApZdgbL9dgk67D8EgAA9BAJAgI1C3//4UUDrmnUcY06tDBAbAVajgGUowHcU5BLga7/3kGDbGMA5HOgRgCMSQDa0sgDz3aH/SREbAVjMHYLDH+z5J5myTQABARLWAbwbBPoT4I9//GNgzkAACLBJIAAEqJ1K/YcAJBHvDbQLMMVT/3kgkLlczBX3IZC2J8AjAJ0BBOWHABCgp0AACFA5tcYAawLm+0P9k6KNAsyzBLAZ6us/E+D//J+sBSN59V8dA3gBGPMZ2zIo7qqz/v+RJTB7DkeAeusAtpUA9D8x5jxNFWA6LCgvGZsAhACh+n/2GSv9DepjAgn7DwEgQB+BABCgdqoBEBoFtC7XTqLOUW0UwF8/pwD/35iC5WLeDGCtfmgUEBKA3wO1ACQAQIBaAoi7Q/8TEyHA7+W7gzUBipaLWYBBPy3woLZ9WAPg+VRwdQ2AR/2uefMNACAABOgkEAAC1E2t/msCyLtD/ROjzLab2nYAPkOdAmQtDfOn/k3/vroQsHw6GP8NL/ugCjD9RhwL5BRANN28007Kr/YfAkCAXqLMNggAAYhTbz+AQwCUPzmDtgdFGQfwWfpPowDTmUKm9wPJEcD4X+KywEo8bcvTV+sH8eX9YTB+s/zMai8FcAOwdF2/6176DwGqC9C6TbuMMVdNAeaIlQBlM0DSkrAe0msCDO/LA/6DcW4CGLtuvfMeAYAAEKCXQAAIUDl1+q8aIO6pdZl2GW2OrkcBevhJARI2A7CSOwVIKH6o/9qBwGp66f/xClDPAHMtoHWZdhmXABYD+AmD2PpA7GtvqXxG7yPXAeznCuwCgD8aCcw2CAABtgoEgADVs5UAICAjbgEsA4E//OEf//mfpw8S+cfY1750rT9BgBuO8wW37r9ZfggAAXoKBIAA1VO9/xgFlMQpgGNzYFLM/fwVBWBvBlofEAQB2qZO+w0B+H21rtJO4xSAaBHYaA1goNsOAAEIAwG6DwSAABWjn4cKAnQYTYBxbhKPAygFCGwDcH1yWMP6OwA4IgFYqgigGMDvpnWV9hrbPKVeEUCSAgEgwIaBAN3lcARgS1W1qRt7A1o3aa9RBRhMAqq9eBsmYQhAOAqwr/4f2ygAAuwgEAAC1EtVAnA8AEmsAggECl8i0oMBfBsCnQcEJW0HJGw/BJizHwH+9CeaPu0xigCDYUD5qzSfFqS0/UEBPI+giQD+BOYZBIgLBCAKBIAANbONAPnL/59k6Eq1q6jDAG3rysfB1yAcVt7aAsi7E9+ql24sQLD/xyVA+l6+uJiLae7S/yc9lMXaTbQZa25gLQ1F9+MEmN8awE4ZLrP5GkBE/yEABOgrEAAC1Eql+s8TphgF/MkMabV2EqetJAQQGeDdCjAasC5/Qr74gvBwYAigBALsIRAAAtRKpXcGDdMGK2V1NXfRX/UfBtwk3xRIIUCg/jy5/Sd9OxBGAVqqCMCmzBdOuuUUqZYNyp8PAGX7YwGAABDgqAIBIAC9APFxrvpaxwDHORQomL0RyTkiaGx0Qvn3NAI4NgGqZH1HGUu9D4AjJoB2Aaj3V/+zz+Yv2dWnFeCPCf2HABCgu0AACFAl/Qrg7//RGVBLgCn07S9Z668iQEL5IQAE6DEQAAJUyUYCpC/xYQCO0wC6l/6jj+avtMWnbT+NAKn1PyoBpmwgQLoBUQIcFQFVBCCufgUBWvQfAkCADgMBIECFVGi/bTlNXdrj+n9cBhAKEFf+vPbTAlDcfwjgTyUAVktq2rIe3/+jQoBMgGrV724LAAQIBQLsKBAAAhBnXJ42ESB1UU8UAAYkpkLzexUgq/4QAAJ0GggAAUhTrf5lAiQDcDQErGdtVmrVn1YAgv5nA3AEAtQsv7mQpi7nGQIcCQIkAlRpfn/lL+k/BIAAfQYCQACqiFP5VUcgeSnP6/9xGVCgQO/r/nQCFPS/rQBf5rmNpda9pApgLIDRAExJW8bzBTgGA2zzNzEQAAIMEGCvgQCHK8CXjdQWILn92gJYTYASADpHgOLxUQtAAkB3+wCLAYAAEKBCIAAE8MYqQEUEYhRgy5x1CYzuf5IApf0vZKCCJ8RGEQgwSAQ6qz9R93csAP+nLwGcy2Bk/xMEIOp/VtlIJhI31ZIJlu8MmNIlAP3UHwJAAAgAAXzZZBQwMzD+V+GuIrcDBBbCaAZK6rINAgSTyHk+WZMlMIC1n0SAzupf3PymAtx2m82ARgJELYNR9R/aChDRMpKJ5D6V1CnrHyGYGSIBPutqIwBZ+yEABCjuKeXDMwMBDleAL32pFwGSlsNA/xsL4K1b0Y2pnkbshHmoBCitP2mK+0+sQGAGQgAIQPg0YifMAwEOVwDrOKDCPbEU9b+CAMnFKUzOPdZ6GlEzyDrr8157kv0A/FPBeik/6z8ZAYEZWO99AR0IkLEY7lKAzFR6DpFzfT3zs157uvcEEwjQ9HyAEAACJKbSc4ic6+uZn/XaQ4BdCMC3ClS6J4cAWUshhQB0Hd0i/CETPvpMAfJe+65GARBADQTYRyAABKgRfUsgE6DK/QzFYwBjOTw6Aaokc85nvPrlApA0n0oA0u43FWDQVgJaCJACgJsA476iptW6fp1kKwHKVwB6qX+N/kMACNAqEODYBTB3B9S6l5oC6PeE/iclYmZN87Sk/8MB9b9K/Y9CAIcBaQK4DFDvBv1PSwwAyquX9dIf0OcCQoD8QIAuAwGOXoA5TUYBqf13GaDeEQBIS1T/5QuY9+p3IQBB/yFAfiBAp4EAEGCLIcBgM4Ck/+bdoP+p6VgAwv5DgFVumxr/5drnBhShWgVYGaDfTfj2rfvWX0ICLAzkC5BrwNEAAAEgQLtAgCMVgJ0r+MvsHMHsDKEV7kHJRgKEDWjdtw4TnunKa5j5+rcGoOf2by6A8W7g25bzhtcMUf9LBWhdtk5TW4C8NYDOzgwMAYoCAXoOBDgqAabG38a2A8wCTAOBofa2AKL+e/cGBm/bumgdp0sBqAAgEKBq/SEABGgeCHBUAsxnCV2H+E7UUAFgJYDdQ/iWrVvWdWJne9ar37L9EMCerZovQieAe1MABCiKZY4pszW//kOOAF3Vvz4AEAACtA8EOF4Btj8iiFAAeR/of1GiBNhqFNCPANXL34cA1Qmg6z8EqJWomZ716jfsf7fnBJH5v2MCMxACQIANAgGOSIAtdwOwQIA9JGK2Z736EMDXfggAAXoJBIAAtUIpgOvUtQCgNPGzPfX1b1T/7jcDHo8AqgGlAOgLo5h+4Baty7WTxM309Fcf/YcAEGAPgQBHIcCq/1uOAgj6DwGqxT7z5rlbX4DPPjuiTQAqAEewN1AaQC1A5NsCWldrL7H2XzssqOJ2gC7q/8c/br0CAAEgQD+BAEcigGkA/fT1EI8CzI+xCl+/dbP2EqsA5kzPWAA2FiC7/3P1NzkW+P9CAAjQXyDAkQjQahRA1P/PjTerof90sc9BNo8LtgVuKkBZ/bdu/3EIQLwGIJfGefIQgDCO+itzPf31BwAQAALsJRDg4AX4isxmg4CB1Z9QgKRxQOtS7Sru2TjO5tztAF4EqKpf2P/jEWBgCHAJNtwOQFn/zzUBxoUT/aeKVwA227MWgE0AKKk/BKgbCLCXQIAjEEAdBUxfiCdvS2UBfGldqd0lPN+TX/5NBgCFAmzWfwhAEwhQK+H5nvzyQ4CeBJBr/2JL4FdIp28NOQDqoohRAGnCsz5jAYAA9vI3Wwe4TXFgAwBqChC4Wus+7S/hWZ/88m/Q/h1sBbC2HwJkBwJUSnjWJ7/8EKA7Ab5y221iUwD7h/geLCFpvZqoUUDrNu0xoRmf9fJXbn8xAA37fzQCUCMwrVbwSUMA2tQWoEL9C98OBAGI78ESCLCfQIAjEmCb+vNQAjBIATwTbt2lnaaqAOTtp0jD/kMACNBdIMAhC/AVI6QT94dSgGVh9P2+dZP2msAsz0qv+wA2qH/XApBOOhDi+gfTukf7jXe2Zr76c/X7WwVo2n0IUDWte7TfeGdr5qsPAXoRQN0CsHcB/BNt3aP9JjTTc0LdfJr+b/XRgN0JMDQAYON1gNYt2necszXzta/T/3IA6vYfAujZsP6fQ4CyOGdr5msPAfoRgJ8gZDhwAlpXaOdxztfMl77P/kMACIDY45yvmS89BOhHgIM5GGBeHiFAnfQvQP/1jwQgT4ATJ05kvhZzDmNfgHNnQOv+HELsMzz/mKDjEyCu/xAAAvQZCNC5ALfkvhJt6l9lFOCcbuv2HEJ8Mz0nndW/mzFAmgAnlLCfc16KJtsBagDgFKB1eQ4k6pzuSQCC+tcXILb+EAACdBsI0LcAtyxJ2CbQ5J2BVdrvOya4dXUOJJ4Zn5FjEiCh/hAAAnQbCNCbACfsACRsE7x9ewEq1X9eFK2Xti7O4cQ123PSWf8rApBW/3wBtHWA2J2DpgBZr2Va/J/nUdT/efIrCVr35pBykALUK39O/yEABOg4EKAjAU6cKBXg9tsbCFBrHKBOvKIA/zKFdIr7Cp/X2vHXWUvBUQiQUf9IAW699VYTACbACdH/yJWAJhsC6+0JtE+bbvH/Fxm6ie4tcnYXEdAPANUEyOs/BIAAfQcCdCLAioD0rQDtThK4oQB0i/6/rEI37R1Fmd1ivJWzCHQjQGf1hwAQoPNAgF4FmAw4IQYBkS/DAQngOjkA3aK/FuAoESASgIaA4v5XEqCg//ECmAZo6wCRBrQBoFL/7dOmW/StAlgkYD8cshFm6dsJ0GX7iw0IzDgIAAEaBwK0F+BLFgG4AexKWaOArNcxJ/sTwFt+pezHMVDQZnj2OKBx+av2v6D+EAACdB8I0FqAL00xDUh/CdocDLDFMYHUAkQC4KFhmZBluhSPcNOos9yY/Qlp3P969d9AgHEdgBNQJIBJQMYUslJVAHPqJIt8sQBBIHbFgGWeZywGB7sCUNh/CAABeg8E6EOAyYCS/k8C3LZ9/3cmQO3yqwzsJuY8z0q78lcWoBSADAFyX4Pbb79t+/4PdbcE0gqwXf93hUAjAajKX7X/ECAiEAACQAAaAeYUvAybt39OLQHWFxct6RsDsBsDDAFyLWhQ/bGgPZ0VGAJAAAgAAXIEGIQAJ07cWvx5YUU3z00VAFZTLVzStxegFIGtCLHP/sS0EaD3/qcJULQroGGo+19FgCb9Nx2IFcFx82qhECCWgKOqPwSAAFqFIQAEMLIIoB0RlPcKNMtGApQs4k1670vqAy158uGwec7nfB4B0WOAHXwkAGX/o88VrAmQPv+bh/is4XyaByxAVqgKb4mc89UFIDJgJwBAAAhAF6q6WwIBGgtw63oUsCsJKOtvPxyobAFv3V2y0PR9HfsrEJ+N6w8BegsE2Cg0fV8HAjQVwHJ2gD2NBkjrX0WA1r2lC1HhLXG9CnE5MAHI+p8igO18wceJgGWihUt3694Sh6TxZpwvQ2QgAASAABuFpPFmIEBDAU6csAiQ3MK2qSpA2bLdurD0oem8HsvLkKTApvXv++2A6QIMxmcHMwzSS9gwRM2vIkDrulYJUe3VFAowuBEg6z0E6DYQYOMQtV4NBGgnwI43APDQALA6WTX67wlR8Zc4X5TobCTAbsoPASBAzRAVfwkEaCfAsB4FJM35buL4vM8MCtjUPi8WoHVLK4es/XOKBKi/9a9u+VsLoBpw634FoMhqavmLdOuG1g9d/f9USYD91L9G/yEABKgbuvr/CQI0FmA+S5h6cFDpKcO2zec0Q4DPV9sBshfo1u3cLB0IULv/1dvfgQCjAUIAviWw7LShG4em/MZCBwHiU0WA6Je/9va/ndYfAkCAzQIB9i/AIAVg5f/SfgSg67+5HSB/eW5dya1Tg4DoBWDXAtQqPwSAAFsGAuxfgFuNpLWwZSgF+FybJvofnwoGxC4AexagKgDJ6wB8H8CJ3dT/c7p9AIQCtO5isxALEL0Y7BgACFAWCNBVIMD+BEAQ5Gjzr/5/HWaFPeOCtS8AAAAASUVORK5CYII=;" vertex="1" parent="1">
          <mxGeometry x="980" y="440" width="160.16" height="120" as="geometry" />
        </mxCell>
        <mxCell id="lHLvW-LTFp40BhWTVn9L-8" value="Find the deepest point" style="text;html=1;strokeColor=none;fillColor=none;align=center;verticalAlign=middle;whiteSpace=wrap;rounded=0;" vertex="1" parent="1">
          <mxGeometry x="995.26" y="570" width="130" height="30" as="geometry" />
        </mxCell>
        <mxCell id="lHLvW-LTFp40BhWTVn9L-11" value="" style="endArrow=classic;html=1;rounded=0;edgeStyle=orthogonalEdgeStyle;" edge="1" parent="1">
          <mxGeometry width="50" height="50" relative="1" as="geometry">
            <mxPoint x="1070.08" y="490" as="sourcePoint" />
            <mxPoint x="1120.08" y="440" as="targetPoint" />
          </mxGeometry>
        </mxCell>
        <mxCell id="lHLvW-LTFp40BhWTVn9L-27" value="Get Euclidean Distance" style="text;html=1;strokeColor=none;fillColor=none;align=center;verticalAlign=middle;whiteSpace=wrap;rounded=0;" vertex="1" parent="1">
          <mxGeometry x="1335.18" y="560" width="130" height="30" as="geometry" />
        </mxCell>
        <mxCell id="lHLvW-LTFp40BhWTVn9L-33" style="edgeStyle=orthogonalEdgeStyle;rounded=0;orthogonalLoop=1;jettySize=auto;html=1;" edge="1" parent="1" source="lHLvW-LTFp40BhWTVn9L-32" target="lHLvW-LTFp40BhWTVn9L-3">
          <mxGeometry relative="1" as="geometry" />
        </mxCell>
        <mxCell id="lHLvW-LTFp40BhWTVn9L-34" value="No" style="edgeLabel;html=1;align=center;verticalAlign=middle;resizable=0;points=[];" vertex="1" connectable="0" parent="lHLvW-LTFp40BhWTVn9L-33">
          <mxGeometry x="-0.1515" relative="1" as="geometry">
            <mxPoint as="offset" />
          </mxGeometry>
        </mxCell>
        <mxCell id="lHLvW-LTFp40BhWTVn9L-40" style="edgeStyle=orthogonalEdgeStyle;rounded=0;orthogonalLoop=1;jettySize=auto;html=1;entryX=0;entryY=0.5;entryDx=0;entryDy=0;" edge="1" parent="1" source="lHLvW-LTFp40BhWTVn9L-32" target="lHLvW-LTFp40BhWTVn9L-38">
          <mxGeometry relative="1" as="geometry" />
        </mxCell>
        <mxCell id="lHLvW-LTFp40BhWTVn9L-32" value="If distance &amp;lt; alpha" style="rhombus;whiteSpace=wrap;html=1;fillColor=none;" vertex="1" parent="1">
          <mxGeometry x="1325.18" y="225" width="150" height="80" as="geometry" />
        </mxCell>
        <mxCell id="lHLvW-LTFp40BhWTVn9L-37" style="edgeStyle=orthogonalEdgeStyle;rounded=0;orthogonalLoop=1;jettySize=auto;html=1;" edge="1" parent="1" source="lHLvW-LTFp40BhWTVn9L-38" target="lHLvW-LTFp40BhWTVn9L-39">
          <mxGeometry relative="1" as="geometry" />
        </mxCell>
        <mxCell id="lHLvW-LTFp40BhWTVn9L-38" value="Get:&lt;br&gt;X value&lt;br&gt;Depth value" style="ellipse;whiteSpace=wrap;html=1;fillColor=none;" vertex="1" parent="1">
          <mxGeometry x="1550" y="225" width="120" height="80" as="geometry" />
        </mxCell>
        <mxCell id="lHLvW-LTFp40BhWTVn9L-41" style="edgeStyle=orthogonalEdgeStyle;rounded=0;orthogonalLoop=1;jettySize=auto;html=1;entryX=0.5;entryY=0;entryDx=0;entryDy=0;" edge="1" parent="1" source="lHLvW-LTFp40BhWTVn9L-39" target="lHLvW-LTFp40BhWTVn9L-3">
          <mxGeometry relative="1" as="geometry" />
        </mxCell>
        <mxCell id="lHLvW-LTFp40BhWTVn9L-39" value="P Controller" style="ellipse;whiteSpace=wrap;html=1;fillColor=none;" vertex="1" parent="1">
          <mxGeometry x="1550" y="110" width="120" height="80" as="geometry" />
        </mxCell>
      </root>
    </mxGraphModel>
  </diagram>
</mxfile>
